<?xml version="1.0" encoding="UTF-8"?>
<!DOCTYPE svg PUBLIC "-//W3C//DTD SVG 1.1//EN" "http://www.w3.org/Graphics/SVG/1.1/DTD/svg11.dtd">
<!-- Creator: CorelDRAW 2020 (64-Bit) -->
<svg xmlns="http://www.w3.org/2000/svg" xml:space="preserve" width="18.6676mm" height="18.6676mm" version="1.1" style="shape-rendering:geometricPrecision; text-rendering:geometricPrecision; image-rendering:optimizeQuality; fill-rule:evenodd; clip-rule:evenodd"
viewBox="0 0 209.05 209.05"
 xmlns:xlink="http://www.w3.org/1999/xlink"
 xmlns:xodm="http://www.corel.com/coreldraw/odm/2003">
 <defs>
  <style type="text/css">
   <![CDATA[
    .fil0 {fill:#103E68;fill-rule:nonzero}
    .fil1 {fill:white;fill-rule:nonzero}
   ]]>
  </style>
 </defs>
 <g id="Capa_x0020_1">
  <metadata id="CorelCorpID_0Corel-Layer"/>
  <path class="fil0" d="M104.53 209.05l0 0c-57.73,0 -104.53,-46.8 -104.53,-104.53 0,-57.73 46.8,-104.53 104.53,-104.53 57.73,0 104.53,46.8 104.53,104.53 0,57.73 -46.8,104.53 -104.53,104.53z"/>
  <polygon class="fil1" points="104.24,176.98 45.1,135.71 45.67,134.9 104.81,176.17 "/>
  <polygon class="fil1" points="104.98,176.77 104.07,176.38 123.85,130.05 124.75,130.43 "/>
  <polygon class="fil1" points="123.87,130.48 109.11,103.48 109.97,103 124.73,130 "/>
  <polygon class="fil1" points="102.11,76.1 57.22,49.79 57.72,48.94 102.61,75.24 "/>
  <polygon class="fil1" points="102.75,75.98 101.97,75.37 124.98,45.96 125.76,46.58 "/>
  <polygon class="fil1" points="124.5,130.69 124.1,129.79 172.43,108.64 172.82,109.55 "/>
  <polygon class="fil1" points="131.16,83.58 124.88,46.35 125.86,46.19 132.13,83.41 "/>
  <polygon class="fil1" points="109.44,103.72 79.81,97.51 80.02,96.54 109.64,102.76 "/>
  <polygon class="fil1" points="89.83,126.33 89.09,125.67 109.17,102.91 109.91,103.57 "/>
  <path class="fil1" d="M81.29 109.1c-6.59,0 -11.98,-5.59 -11.98,-12.18 0,-6.59 5.39,-11.98 11.98,-11.98 6.59,0 12.18,5.39 12.18,11.98 0,6.99 -5.59,12.18 -12.18,12.18z"/>
  <path class="fil1" d="M102.26 87.75c-6.59,0 -11.98,-5.59 -11.98,-12.18 0,-6.59 5.39,-11.98 11.98,-11.98 6.59,0 12.18,5.39 12.18,11.98 0,6.99 -5.6,12.18 -12.18,12.18z"/>
  <path class="fil1" d="M109.44 115.31c-6.59,0 -11.98,-5.59 -11.98,-12.18 0,-6.59 5.39,-11.98 11.98,-11.98 6.59,0 12.18,5.39 12.18,11.98 0,6.99 -5.59,12.18 -12.18,12.18z"/>
  <path class="fil1" d="M104.52 187.46c-6.59,0 -11.98,-5.59 -11.98,-12.18 0,-6.59 5.39,-11.98 11.98,-11.98 6.59,0 12.18,5.39 12.18,11.98 0,6.99 -5.6,12.18 -12.18,12.18z"/>
  <path class="fil1" d="M172.53 121.18c-6.59,0 -11.98,-5.59 -11.98,-12.18 0,-6.59 5.39,-11.98 11.98,-11.98 6.59,0 12.18,5.39 12.18,11.98 0,6.99 -5.59,12.18 -12.18,12.18z"/>
  <path class="fil1" d="M131.54 95.57c-6.59,0 -11.98,-5.59 -11.98,-12.18 0,-6.59 5.39,-11.98 11.98,-11.98 6.59,0 12.18,5.39 12.18,11.98 0,6.99 -5.59,12.18 -12.18,12.18z"/>
  <path class="fil1" d="M88.83 137.35c-6.58,0 -11.98,-5.59 -11.98,-12.18 0,-6.59 5.39,-11.98 11.98,-11.98 6.59,0 12.18,5.39 12.18,11.98 0,6.99 -5.59,12.18 -12.18,12.18z"/>
  <path class="fil1" d="M124.2 142.32c-6.59,0 -11.98,-5.59 -11.98,-12.18 0,-6.59 5.39,-11.98 11.98,-11.98 6.59,0 12.18,5.39 12.18,11.98 0,6.99 -5.59,12.18 -12.18,12.18z"/>
  <path class="fil1" d="M45.29 147.38c-6.59,0 -11.98,-5.59 -11.98,-12.18 0,-6.59 5.39,-11.98 11.98,-11.98 6.59,0 12.18,5.39 12.18,11.98 0,6.99 -5.59,12.18 -12.18,12.18z"/>
  <path class="fil1" d="M124.2 58.35c-6.59,0 -11.98,-5.59 -11.98,-12.18 0,-6.59 5.39,-11.98 11.98,-11.98 6.59,0 12.18,5.39 12.18,11.98 0,6.99 -5.59,12.18 -12.18,12.18z"/>
  <path class="fil1" d="M58.78 62.45c-6.59,0 -11.98,-5.59 -11.98,-12.18 0,-6.59 5.39,-11.98 11.98,-11.98 6.59,0 12.18,5.39 12.18,11.98 0,6.99 -5.59,12.18 -12.18,12.18z"/>
 </g>
</svg>
