<?xml version="1.0" encoding="UTF-8"?>
<!DOCTYPE svg PUBLIC "-//W3C//DTD SVG 1.1//EN" "http://www.w3.org/Graphics/SVG/1.1/DTD/svg11.dtd">
<!-- Creator: CorelDRAW 2020 (64-Bit) -->
<svg xmlns="http://www.w3.org/2000/svg" xml:space="preserve" width="18.6676mm" height="18.6676mm" version="1.1" style="shape-rendering:geometricPrecision; text-rendering:geometricPrecision; image-rendering:optimizeQuality; fill-rule:evenodd; clip-rule:evenodd"
viewBox="0 0 284.08 284.08"
 xmlns:xlink="http://www.w3.org/1999/xlink"
 xmlns:xodm="http://www.corel.com/coreldraw/odm/2003">
 <defs>
  <style type="text/css">
   <![CDATA[
    .fil1 {fill:#103E68;fill-rule:nonzero}
    .fil0 {fill:white;fill-rule:nonzero}
   ]]>
  </style>
 </defs>
 <g id="Capa_x0020_1">
  <metadata id="CorelCorpID_0Corel-Layer"/>
  <path class="fil0" d="M142.04 284.08l0 0c-78.44,0 -142.04,-63.59 -142.04,-142.04 0,-78.44 63.59,-142.04 142.04,-142.04 78.44,0 142.04,63.59 142.04,142.04 0,78.44 -63.59,142.04 -142.04,142.04z"/>
  <polygon class="fil1" points="141.66,240.5 61.29,184.42 62.06,183.32 142.43,239.4 "/>
  <polygon class="fil1" points="142.66,240.21 141.43,239.69 168.3,176.72 169.53,177.25 "/>
  <polygon class="fil1" points="168.32,177.3 148.26,140.61 149.44,139.97 169.51,176.66 "/>
  <polygon class="fil1" points="138.76,103.41 77.76,67.66 78.44,66.5 139.44,102.25 "/>
  <polygon class="fil1" points="139.63,103.24 138.57,102.42 169.84,62.46 170.9,63.29 "/>
  <polygon class="fil1" points="169.18,177.6 168.64,176.37 234.32,147.63 234.85,148.87 "/>
  <polygon class="fil1" points="178.23,113.58 169.71,62.99 171.03,62.76 179.55,113.35 "/>
  <polygon class="fil1" points="148.71,140.95 108.46,132.5 108.74,131.19 148.99,139.63 "/>
  <polygon class="fil1" points="122.08,171.66 121.07,170.78 148.35,139.85 149.36,140.74 "/>
  <path class="fil1" d="M110.46 148.25c-8.96,0 -16.28,-7.59 -16.28,-16.55 0,-8.95 7.32,-16.28 16.28,-16.28 8.95,0 16.56,7.33 16.56,16.28 0,9.5 -7.61,16.55 -16.56,16.55z"/>
  <path class="fil1" d="M138.96 119.24c-8.95,0 -16.28,-7.59 -16.28,-16.55 0,-8.95 7.32,-16.28 16.28,-16.28 8.95,0 16.56,7.32 16.56,16.28 0,9.5 -7.6,16.55 -16.56,16.55z"/>
  <path class="fil1" d="M148.71 156.7c-8.95,0 -16.28,-7.59 -16.28,-16.55 0,-8.95 7.33,-16.28 16.28,-16.28 8.95,0 16.56,7.33 16.56,16.28 0,9.5 -7.6,16.55 -16.56,16.55z"/>
  <path class="fil1" d="M142.03 254.74c-8.96,0 -16.28,-7.59 -16.28,-16.54 0,-8.96 7.32,-16.28 16.28,-16.28 8.95,0 16.56,7.32 16.56,16.28 0,9.5 -7.6,16.54 -16.56,16.54z"/>
  <path class="fil1" d="M234.45 164.67c-8.95,0 -16.28,-7.59 -16.28,-16.55 0,-8.95 7.32,-16.28 16.28,-16.28 8.95,0 16.56,7.32 16.56,16.28 0,9.5 -7.6,16.55 -16.56,16.55z"/>
  <path class="fil1" d="M178.75 129.88c-8.95,0 -16.28,-7.59 -16.28,-16.54 0,-8.96 7.32,-16.28 16.28,-16.28 8.96,0 16.56,7.32 16.56,16.28 0,9.5 -7.6,16.54 -16.56,16.54z"/>
  <path class="fil1" d="M120.72 186.65c-8.95,0 -16.28,-7.59 -16.28,-16.54 0,-8.96 7.32,-16.28 16.28,-16.28 8.95,0 16.56,7.32 16.56,16.28 0,9.5 -7.61,16.54 -16.56,16.54z"/>
  <path class="fil1" d="M168.78 193.39c-8.95,0 -16.28,-7.59 -16.28,-16.55 0,-8.95 7.32,-16.28 16.28,-16.28 8.95,0 16.56,7.32 16.56,16.28 0,9.5 -7.61,16.55 -16.56,16.55z"/>
  <path class="fil1" d="M61.54 200.28c-8.95,0 -16.28,-7.59 -16.28,-16.54 0,-8.96 7.33,-16.28 16.28,-16.28 8.95,0 16.56,7.32 16.56,16.28 0,9.5 -7.6,16.54 -16.56,16.54z"/>
  <path class="fil1" d="M168.78 79.29c-8.95,0 -16.28,-7.59 -16.28,-16.55 0,-8.95 7.32,-16.28 16.28,-16.28 8.95,0 16.56,7.32 16.56,16.28 0,9.5 -7.61,16.55 -16.56,16.55z"/>
  <path class="fil1" d="M79.89 84.86c-8.96,0 -16.28,-7.59 -16.28,-16.54 0,-8.96 7.32,-16.28 16.28,-16.28 8.95,0 16.56,7.32 16.56,16.28 0,9.5 -7.61,16.54 -16.56,16.54z"/>
 </g>
</svg>
