<?xml version="1.0" encoding="UTF-8"?>
<!DOCTYPE svg PUBLIC "-//W3C//DTD SVG 1.1//EN" "http://www.w3.org/Graphics/SVG/1.1/DTD/svg11.dtd">
<!-- Creator: CorelDRAW 2020 (64-Bit) -->
<svg xmlns="http://www.w3.org/2000/svg" xml:space="preserve" width="85.0411mm" height="44.8665mm" version="1.1" style="shape-rendering:geometricPrecision; text-rendering:geometricPrecision; image-rendering:optimizeQuality; fill-rule:evenodd; clip-rule:evenodd"
viewBox="0 0 8552.96 4512.42"
 xmlns:xlink="http://www.w3.org/1999/xlink"
 xmlns:xodm="http://www.corel.com/coreldraw/odm/2003">
 <defs>
  <style type="text/css">
   <![CDATA[
    .fil1 {fill:#B5D2CE;fill-rule:nonzero}
    .fil2 {fill:#E0DCD5;fill-rule:nonzero}
    .fil0 {fill:white;fill-rule:nonzero}
   ]]>
  </style>
 </defs>
 <g id="Capa_x0020_1">
  <metadata id="CorelCorpID_0Corel-Layer"/>
  <path class="fil0" d="M3176.71 4386.85l0 -105.48c-45.21,-16.31 -92.89,-25.08 -144.37,-25.08 -104.24,0 -169.52,36.41 -169.52,105.45 0,66.52 55.28,100.44 129.32,100.44 71.57,0 143.13,-31.4 184.57,-75.33zm135.56 110.49c-17.56,10.04 -37.65,15.08 -59,15.08 -43.93,0 -69.04,-25.11 -75.33,-74.08 -56.48,48.97 -121.77,74.08 -198.37,74.08 -114.2,0 -178.25,-56.51 -178.25,-146.92 0,-105.45 91.64,-155.66 223.46,-155.66 51.48,0 101.68,8.77 151.93,25.09l0 -82.85c0,-94.17 -41.45,-141.88 -145.61,-141.88 -61.56,0 -120.57,17.59 -175.8,54l-7.52 -48.96c56.48,-37.69 120.53,-56.49 192.09,-56.49 130.57,0 195.85,61.49 195.85,185.78l0 256.13c0,50.24 12.56,65.28 43.93,65.28 8.8,0 17.56,-2.52 27.64,-6.29l5 37.69z"/>
  <path class="fil0" d="M3940.16 4497.34c-17.6,10.05 -36.4,15.09 -57.76,15.09 -51.48,0 -76.57,-32.65 -76.57,-97.93l0 -233.53c0,-114.24 -40.2,-168.25 -139.41,-168.25 -69,0 -131.8,28.88 -189.57,86.64l0 400.51 -60.24 0 0 -528.56 55.25 0 5 75.33c61.56,-59.01 130.58,-87.88 207.17,-87.88 126.77,0 182.05,67.77 182.05,203.37l0 238.53c0,50.24 11.28,65.28 41.41,65.28 7.55,0 17.6,-2.51 28.92,-6.28l3.76 37.68z"/>
  <path class="fil0" d="M4041.97 4414.47l0 -443.18 60.24 0 0 434.38c0,46.49 11.31,60.28 41.44,60.28 8.8,0 18.81,-2.52 30.12,-6.28l3.76 37.63c-17.56,10.08 -36.4,15.09 -57.76,15.09 -51.44,0 -77.8,-32.65 -77.8,-97.93zm-15.09 -563.64c0,-23.88 20.12,-45.21 45.24,-45.21 23.81,0 43.93,21.33 43.93,45.21 0,23.85 -20.12,45.2 -43.93,45.2 -25.11,0 -45.24,-21.35 -45.24,-45.2z"/>
  <polygon class="fil0" points="4299.37,4448.38 4630.83,4448.38 4630.83,4499.86 4212.72,4499.86 4212.72,4473.5 4541.66,4022.76 4229.08,4022.76 4229.08,3971.31 4629.55,3971.31 4629.55,3996.39 "/>
  <path class="fil0" d="M5047.71 4386.85l0 -105.48c-45.2,-16.31 -92.88,-25.08 -144.36,-25.08 -104.25,0 -169.53,36.41 -169.53,105.45 0,66.52 55.29,100.44 129.33,100.44 71.57,0 143.13,-31.4 184.56,-75.33zm135.57 110.49c-17.56,10.04 -37.65,15.08 -59.01,15.08 -43.92,0 -69.04,-25.11 -75.32,-74.08 -56.48,48.97 -121.77,74.08 -198.37,74.08 -114.21,0 -178.25,-56.51 -178.25,-146.92 0,-105.45 91.64,-155.66 223.46,-155.66 51.47,0 101.68,8.77 151.92,25.09l0 -82.85c0,-94.17 -41.44,-141.88 -145.61,-141.88 -61.55,0 -120.56,17.59 -175.8,54l-7.52 -48.96c56.49,-37.69 120.53,-56.49 192.1,-56.49 130.57,0 195.85,61.49 195.85,185.78l0 256.13c0,50.24 12.56,65.28 43.93,65.28 8.79,0 17.56,-2.52 27.64,-6.29l5 37.69z"/>
  <path class="fil0" d="M5548.81 4183.47l323.9 0 0 -13.8c-1.25,-99.21 -51.45,-167.01 -143.1,-167.01 -100.44,0 -165.73,71.57 -180.8,180.81zm381.66 269.93c-48.96,38.92 -111.77,59.01 -189.57,59.01 -166.97,0 -254.9,-111.73 -254.9,-276.22 0,-81.61 21.36,-148.13 65.29,-199.61 43.99,-51.48 101.72,-77.84 175.76,-77.84 131.84,0 200.93,84.12 200.93,219.69 0,16.32 -1.28,32.64 -3.79,50.24l-377.87 0c0,146.89 77.8,234.78 204.61,234.78 62.77,0 118.01,-17.57 165.74,-51.48l13.8 41.44z"/>
  <path class="fil0" d="M5999.59 4383.08l50.24 -20.08c22.61,66.56 76.57,100.44 160.7,100.44 89.12,0 144.4,-38.92 144.4,-97.92 0,-55.25 -44,-79.12 -143.17,-110.49 -65.24,-21.32 -111.73,-41.44 -140.57,-60.28 -27.64,-18.8 -41.44,-48.92 -41.44,-90.37 0,-46.48 18.8,-81.61 55.21,-106.72 36.44,-26.37 81.61,-38.92 133.09,-38.92 104.24,0 182.05,48.96 188.33,144.36l-47.72 12.56c-8.76,-76.57 -71.53,-109.21 -141.85,-109.21 -76.57,0 -130.61,36.41 -130.61,92.89 0,23.85 10.08,42.68 28.93,55.25 20.07,11.28 60.24,27.6 119.24,47.72 51.48,16.32 67.81,22.6 104.25,42.68 51.44,25.08 69.01,55.24 74.04,114.24 0,100.44 -90.37,153.17 -207.13,153.17 -115.52,0 -185.84,-53.97 -205.93,-129.33z"/>
  <polygon class="fil0" points="1942.58,4499.85 1962.49,3957.53 2275.11,4385.92 2288.91,4385.92 2604.05,3953.77 2621.96,4499.85 2682,4499.85 2658.01,3805.65 2631.65,3805.65 2283.87,4296.8 1936.1,3805.65 1908.49,3805.65 1882.45,4499.85 "/>
  <path class="fil0" d="M5389.32 4465.95c-30.16,0 -41.45,-13.8 -41.45,-60.24l0 -600.09 -60.24 0 0 608.85c0,65.32 25.12,97.96 76.57,97.96 22.6,0 41.45,-5.04 57.76,-15.08l-2.51 -37.69c-11.31,3.76 -21.36,6.29 -30.12,6.29z"/>
  <polygon class="fil1" points="6267.84,1635.86 6262.34,1628.94 6540.4,1407.83 6545.9,1414.75 "/>
  <path class="fil0" d="M-0 3007.66c0,-160.87 43.64,-287.18 133.26,-379.15 89.59,-91.85 209.05,-137.77 353.81,-137.77 220.55,0 360.73,107.94 381.38,312.44l-195.25 55.13c-16.11,-103.43 -71.25,-190.71 -197.66,-190.71 -156.22,0 -248.05,126.38 -248.05,319.32 0,227.43 119.43,351.51 319.25,351.51 105.73,0 199.9,-32.14 284.88,-98.74l52.9 156.18c-71.25,66.63 -227.44,128.7 -385.96,128.7 -328.51,0 -498.57,-206.78 -498.57,-516.92z"/>
  <path class="fil0" d="M1438.06 2663.03c-167.71,0 -273.37,128.64 -273.37,340 0,213.63 105.66,349.2 271.14,349.2 165.41,0 271.04,-135.57 271.04,-349.2 0,-211.36 -103.36,-340 -268.81,-340zm496.23 335.4c0,158.56 -45.95,287.18 -135.53,383.72 -89.59,94.16 -211.33,142.41 -365.31,142.41 -153.88,0 -273.34,-45.94 -362.93,-140.11 -89.58,-94.27 -133.26,-220.58 -133.26,-379.11 0,-319.36 195.32,-514.61 505.39,-514.61 303.24,0 491.65,192.97 491.65,507.69z"/>
  <path class="fil0" d="M5717.59 3287.9l0 -1387.64 225.23 0 0 1350.92c0,84.98 25.26,114.86 82.7,114.86 16.07,0 32.18,-2.31 50.56,-9.19l9.15 130.96c-43.64,25.26 -96.5,36.76 -158.53,36.76 -137.88,0 -209.11,-62.02 -209.11,-236.66z"/>
  <path class="fil0" d="M6852.51 2899.64c0,-13.76 0,-25.22 -2.27,-32.14 -6.96,-137.84 -82.77,-229.73 -213.7,-229.73 -140.15,0 -238.96,96.47 -259.57,261.88l475.55 0zm179.17 137.85l-657.06 0c16.11,209.08 133.26,317.05 326.2,317.05 103.43,0 197.67,-27.57 287.22,-82.7l43.64 142.41c-89.59,73.55 -213.63,110.31 -367.61,110.31 -346.89,0 -516.92,-202.16 -516.92,-516.91 0,-153.95 43.72,-280.3 128.7,-374.53 87.28,-94.17 204.51,-142.38 349.16,-142.38 266.52,0 418.17,169.98 418.17,424.98 0,34.49 -4.62,75.82 -11.5,121.78z"/>
  <path class="fil0" d="M7835.63 2502.22l-4.58 227.43 -11.5 4.62c-29.91,-18.39 -73.52,-27.61 -131,-27.61 -89.55,0 -174.53,43.68 -252.69,130.96l0 661.68 -225.16 0 0 -983.31 216 0 6.89 137.84c94.16,-108 199.86,-163.1 317.01,-163.1 29.84,0 57.48,4.62 85.02,11.5z"/>
  <path class="fil0" d="M8536.89 3287.9c-64.36,34.49 -126.38,52.87 -188.44,52.87 -126.34,0 -190.64,-80.4 -190.64,-241.23l0 -411.26 351.47 0 0 -172.29 -351.47 0 0 -291.76 -225.2 27.54 0 51.09 0 213.13 0 172.29 0 186.13 0 282.56c0,245.8 112.62,367.58 335.48,367.58 117.19,0 211.35,-25.26 284.87,-75.79l-16.07 -160.87z"/>
  <path class="fil2" d="M5211.68 1925.29c-75.82,0 -137.88,-64.29 -137.88,-140.08 0,-75.82 62.05,-137.84 137.88,-137.84 75.82,0 140.18,62.01 140.18,137.84 0,80.4 -64.36,140.08 -140.18,140.08z"/>
  <path class="fil1" d="M5350.69 277.96c-75.82,0 -137.85,-64.29 -137.85,-140.11 0,-75.79 62.02,-137.85 137.85,-137.85 75.81,0 140.21,62.05 140.21,137.85 0,80.4 -64.4,140.11 -140.21,140.11z"/>
  <path class="fil0" d="M5969.23 1281.23c-75.81,0 -137.84,-64.29 -137.84,-140.07 0,-75.82 62.02,-137.85 137.84,-137.85 75.82,0 140.22,62.02 140.22,137.85 0,80.4 -64.4,140.07 -140.22,140.07z"/>
  <path class="fil2" d="M6295.91 1393.11c-75.82,0 -137.85,-64.29 -137.85,-140.11 0,-75.78 62.02,-137.84 137.85,-137.84 75.82,0 140.21,62.05 140.21,137.84 0,80.44 -64.39,140.11 -140.21,140.11z"/>
  <path class="fil0" d="M5964.7 941.01c-75.82,0 -137.88,-64.29 -137.88,-140.08 0,-75.81 62.05,-137.84 137.88,-137.84 75.82,0 140.18,62.02 140.18,137.84 0,80.4 -64.36,140.08 -140.18,140.08z"/>
  <path class="fil0" d="M5630.68 1165.13c-75.82,0 -137.88,-64.29 -137.88,-140.07 0,-75.82 62.05,-137.85 137.88,-137.85 75.82,0 140.19,62.02 140.19,137.85 0,80.4 -64.37,140.07 -140.19,140.07z"/>
  <path class="fil2" d="M5664.22 1560.59c-75.82,0 -137.84,-64.3 -137.84,-140.08 0,-75.82 62.01,-137.85 137.84,-137.85 75.82,0 140.22,62.02 140.22,137.85 0,80.4 -64.4,140.08 -140.22,140.08z"/>
  <path class="fil1" d="M6288.87 1785.65c-75.81,0 -137.84,-64.29 -137.84,-140.08 0,-75.82 62.02,-137.84 137.84,-137.84 75.82,0 140.19,62.01 140.19,137.84 0,80.4 -64.37,140.08 -140.19,140.08z"/>
  <path class="fil1" d="M6573.96 1565.21c-75.81,0 -137.84,-64.29 -137.84,-140.11 0,-75.78 62.02,-137.84 137.84,-137.84 75.82,0 140.22,62.05 140.22,137.84 0,80.4 -64.4,140.11 -140.22,140.11z"/>
  <path class="fil2" d="M6615.64 1218.96c-75.82,0 -137.84,-64.29 -137.84,-140.11 0,-75.78 62.01,-137.84 137.84,-137.84 75.82,0 140.18,62.05 140.18,137.84 0,80.44 -64.36,140.11 -140.18,140.11z"/>
  <path class="fil1" d="M6485.3 505.57c-75.82,0 -137.85,-64.3 -137.85,-140.08 0,-75.82 62.02,-137.84 137.85,-137.84 75.81,0 140.21,62.01 140.21,137.84 0,80.4 -64.4,140.08 -140.21,140.08z"/>
  <path class="fil1" d="M7277.86 1967.49c-75.82,0 -137.88,-64.3 -137.88,-140.11 0,-75.79 62.05,-137.85 137.88,-137.85 75.82,0 140.18,62.05 140.18,137.85 0,80.4 -64.36,140.11 -140.18,140.11z"/>
  <path class="fil2" d="M7138.8 882.58c-75.82,0 -137.84,-64.29 -137.84,-140.11 0,-75.79 62.01,-137.85 137.84,-137.85 75.82,0 140.22,62.05 140.22,137.85 0,80.43 -64.4,140.11 -140.22,140.11z"/>
  <path class="fil1" d="M3928.49 1209.18c-75.82,0 -137.84,-64.29 -137.84,-140.11 0,-75.78 62.01,-137.84 137.84,-137.84 75.85,0 140.22,62.05 140.22,137.84 0,80.4 -64.37,140.11 -140.22,140.11z"/>
  <polygon class="fil1" points="2676.28,2513.69 2917.51,2513.69 2501.68,3501.57 2343.11,3501.57 1925.01,2513.69 2163.98,2513.69 2428.2,3214.39 "/>
  <path class="fil1" d="M2997.79 3287.9l0 -771.91 225.16 0 0 735.19c0,84.98 25.26,114.86 82.7,114.86 13.77,0 29.91,-2.31 50.56,-9.19l9.15 130.96c-43.6,25.26 -96.43,36.76 -160.8,36.76 -135.53,0 -206.77,-62.02 -206.77,-236.66zm112.57 -1022.36c-75.82,0 -137.88,-64.26 -137.88,-140.08 0,-75.82 62.05,-137.88 137.88,-137.88 75.82,0 140.18,62.05 140.18,137.88 0,80.4 -64.36,140.08 -140.18,140.08z"/>
  <path class="fil1" d="M3893.74 3324.68c94.23,0 181.45,-39.09 261.95,-114.89l0 -482.43c-66.63,-29.91 -137.88,-45.98 -213.7,-45.98 -199.86,0 -300.94,119.5 -300.94,330.86 0,186.05 80.43,312.43 252.69,312.43zm629.53 163.11c-45.98,25.25 -98.77,36.79 -158.6,36.79 -112.51,0 -176.87,-48.29 -197.52,-142.45 -98.78,94.17 -211.4,142.45 -340.01,142.45 -264.26,0 -413.52,-186.13 -413.52,-496.26 0,-346.93 195.29,-537.57 491.58,-537.57 94.2,0 176.98,18.34 250.49,57.38l0 -647.87 222.82 0 0 1350.92c0,85.01 25.25,114.85 82.7,114.85 16.07,0 32.14,-2.3 50.52,-9.18l11.54 130.96z"/>
  <path class="fil1" d="M4980.28 3349.94c89.55,0 172.33,-29.84 248.16,-91.89l0 -133.26c-64.33,-18.34 -126.38,-27.54 -188.41,-27.54 -147.07,0 -238.96,50.49 -238.96,135.53 0,73.55 75.86,117.16 179.21,117.16zm615.7 137.84c-45.91,25.26 -101.02,36.8 -167.65,36.8 -94.24,0 -153.98,-36.8 -181.52,-112.58 -103.35,75.78 -215.97,112.58 -337.77,112.58 -213.63,0 -339.98,-108.01 -339.98,-282.57 0,-204.51 172.29,-300.98 436.52,-300.98 80.4,0 153.88,9.19 222.85,29.84l0 -98.77c0,-135.57 -75.82,-202.2 -225.24,-202.2 -105.62,0 -213.63,34.45 -326.2,101.09l-22.92 -172.29c117.12,-71.22 248.08,-107.94 388.23,-107.94 273.41,0 408.95,121.74 408.95,365.24l0 374.53c0,101.05 22.99,135.5 87.32,135.5 13.77,0 29.84,-2.3 45.94,-9.19l11.47 130.96z"/>
  <path class="fil1" d="M4875.3 1117.82c-75.82,0 -137.88,-64.29 -137.88,-140.11 0,-75.78 62.05,-137.84 137.88,-137.84 75.81,0 140.18,62.05 140.18,137.84 0,80.4 -64.37,140.11 -140.18,140.11z"/>
  <path class="fil1" d="M6288.87 1056.76c-75.81,0 -137.84,-64.29 -137.84,-140.11 0,-75.78 62.02,-137.84 137.84,-137.84 75.82,0 140.19,62.05 140.19,137.84 0,80.4 -64.37,140.11 -140.19,140.11z"/>
  <path class="fil1" d="M5994.6 1638.12c-75.82,0 -137.88,-64.3 -137.88,-140.11 0,-75.79 62.05,-137.85 137.88,-137.85 75.82,0 140.18,62.05 140.18,137.85 0,80.4 -64.36,140.11 -140.18,140.11z"/>
  <path class="fil1" d="M8072.31 1393.11c-75.85,0 -137.88,-64.29 -137.88,-140.11 0,-75.78 62.02,-137.84 137.88,-137.84 75.82,0 140.19,62.05 140.19,137.84 0,80.44 -64.37,140.11 -140.19,140.11z"/>
 </g>
</svg>
