<?xml version="1.0" encoding="UTF-8"?>
<!DOCTYPE svg PUBLIC "-//W3C//DTD SVG 1.1//EN" "http://www.w3.org/Graphics/SVG/1.1/DTD/svg11.dtd">
<!-- Creator: CorelDRAW 2020 (64-Bit) -->
<svg xmlns="http://www.w3.org/2000/svg" xml:space="preserve" width="131.551mm" height="36.2829mm" version="1.1" style="shape-rendering:geometricPrecision; text-rendering:geometricPrecision; image-rendering:optimizeQuality; fill-rule:evenodd; clip-rule:evenodd"
viewBox="0 0 7288.1 2010.13"
 xmlns:xlink="http://www.w3.org/1999/xlink"
 xmlns:xodm="http://www.corel.com/coreldraw/odm/2003">
 <defs>
  <style type="text/css">
   <![CDATA[
    .fil0 {fill:white;fill-rule:nonzero}
   ]]>
  </style>
 </defs>
 <g id="Capa_x0020_1">
  <metadata id="CorelCorpID_0Corel-Layer"/>
  <path class="fil0" d="M3941.64 1212.41c-1.82,20.89 -1.82,26.34 -1.82,38.17 0,69.05 27.27,101.75 54.51,136.29 21.81,23.61 47.26,58.14 65.42,96.31 14.56,-16.35 30.9,-49.07 30.9,-94.49 0,-74.5 -37.25,-144.48 -120.84,-189 49.98,55.43 89.94,121.76 91.76,227.15 -16.34,-96.32 -52.69,-161.73 -103.57,-216.24 13.62,67.23 43.61,121.74 72.69,179.88 -39.97,-45.42 -73.58,-108.1 -89.04,-178.07zm9.09 -178.07c13.62,42.7 52.71,79.94 95.4,79.94 29.98,0 49.98,-10.91 64.52,-36.33 -9.09,29.06 -32.71,50.87 -64.52,50.87 -53.59,0 -88.13,-38.15 -106.3,-78.12 7.27,63.58 41.79,114.47 107.22,114.47 50.88,0 89.04,-38.17 89.04,-89.05 0,-42.7 -24.54,-73.58 -54.53,-73.58 -6.35,0 -14.52,1.8 -18.18,8.17 3.66,-2.74 7.29,-4.55 13.64,-4.55 13.62,0 22.71,10.91 22.71,25.45 0,24.53 -19.99,44.52 -54.51,44.52 -39.99,0 -67.25,-16.35 -94.5,-41.78zm94.5 27.25c9.09,0 30.88,-1.82 37.25,-18.16 -1.84,2.72 -5.46,4.54 -12.73,4.54 -13.62,0 -23.63,-11.82 -23.63,-25.45 0,-18.18 13.62,-30.88 35.43,-31.8 38.17,-1.82 69.05,36.35 69.05,85.41 0,61.78 -45.42,103.59 -103.57,103.59 -61.8,0 -119.94,-47.26 -119.94,-141.76 0,-21.81 1.82,-39.97 5.45,-56.33 23.63,50.87 69.05,79.96 112.68,79.96zm-3.63 172.64c32.71,30.88 63.6,79.96 63.6,154.46 0,56.33 -23.63,101.77 -52.69,117.21 -18.18,-53.61 -45.44,-82.69 -69.05,-109.94 -32.71,-36.35 -59.98,-74.5 -59.98,-145.37 0,-30.9 7.27,-76.34 18.18,-99.95 19.99,34.52 61.79,47.24 99.95,83.6zm-89.05 -420.67c0.9,-29.09 10.91,-91.76 18.18,-119.02 -32.72,54.53 -50.88,92.68 -50.88,138.1 0,63.6 25.43,119.94 78.12,165.36 -1.82,-67.23 36.35,-129.01 36.35,-195.35 0,-42.7 -10.9,-82.67 -36.35,-113.57 5.47,18.18 9.09,59.98 9.09,90.86 0,41.78 -12.73,105.4 -29.08,159.91 9.11,-69.05 14.56,-118.13 14.56,-159.91 0,-18.18 -1.82,-59.96 -9.09,-85.41 -8.19,30.9 -13.64,72.68 -18.17,119.02 -2.74,26.34 -5.46,54.51 -7.27,82.67 -3.63,-18.16 -6.37,-56.33 -5.45,-82.67zm96.32 -10.91c0,66.34 -36.35,129.93 -36.35,193.53 0,9.09 1.82,19.98 5.46,29.09 -63.6,-32.72 -112.66,-109.04 -112.66,-192.63 0,-92.66 59.97,-129.01 59.97,-172.61 0,-3.64 0,-7.27 -1.82,-10.91 56.33,27.26 85.41,89.02 85.41,153.54zm-129.01 1149.35l-7.29 1.82 -7.25 -30.88 -1.82 0 2.72 21.79 0 19.07 -9.09 0.92 0 -55.43 10.01 -0.9 7.25 21.79 0.92 11.83 1.82 0 0.92 -12.73 5.43 -23.63 10.9 -1.82 0 49.07 -9.07 4.54 0 -18.18 2.72 -20.89 -1.82 0.9 -6.35 32.71zm210.77 -1331.97c0,-21.81 -14.53,-46.34 -39.97,-46.34 -2.71,0 -6.35,0 -11.8,1.82 10.9,-1.82 19.07,5.46 19.07,15.46 0,11.81 -9.09,19.99 -19.99,19.99 -27.25,0 -27.25,-36.35 -85.39,-45.44 65.41,-27.27 78.14,-77.24 76.3,-106.3 -8.17,-1.82 -14.52,-2.74 -23.61,-2.74 -25.45,0 -58.14,9.09 -87.23,49.08 3.63,-10.91 4.54,-23.63 4.54,-38.17 0,-52.69 -25.43,-73.58 -25.43,-108.12 0,-7.25 0.9,-15.44 2.71,-20.89 -2.71,0 -7.27,1.82 -9.98,2.71 -39.97,16.36 -65.43,59.98 -65.43,126.3 0,38.17 15.46,80.88 28.18,99.03 -9.99,-81.76 -6.37,-146.27 21.79,-189.89 -12.7,47.26 -21.79,109.94 -8.17,187.18 10.9,-36.33 20.89,-81.78 27.26,-124.48 3.63,39.97 -3.63,89.05 -13.62,128.12 29.06,-34.54 76.3,-77.24 118.1,-89.05 -47.24,29.09 -87.22,66.34 -107.22,96.32 31.8,-16.36 61.8,-36.35 89.96,-53.61 -18.17,21.79 -53.61,47.24 -83.59,62.7 16.34,0 49.06,0.9 70.87,14.52 41.78,26.34 68.13,50.89 94.5,30.9 -24.55,29.98 -59.06,6.35 -99.04,-19.07 -26.37,-16.36 -56.34,-15.44 -67.23,-14.54 47.24,21.79 92.66,71.77 141.72,71.77 30.9,0 52.69,-19.97 52.69,-47.24zm-261.66 1288.37l0 39.97c0,6.35 1.83,9.09 5.45,9.09 1.82,0 5.45,-1.82 5.45,-7.27l0 -40.89 10.01 0 0 39.07c0,12.73 -6.37,19.99 -15.46,19.99 -9.09,0 -16.36,-5.45 -16.36,-19.99l0 -41.78 10.91 1.82zm29.08 -1310.18c-29.08,-32.7 -47.24,-85.39 -47.24,-130.83 0,-92.68 55.41,-142.64 103.57,-143.56 -2.74,10.01 -4.55,20.89 -4.55,30.9 0,41.78 26.37,56.33 26.37,112.65 18.16,-14.52 45.42,-22.71 67.24,-22.71 21.79,0 34.52,3.64 38.15,5.46 7.27,45.42 -18.18,91.76 -58.14,113.57 15.46,5.45 25.45,15.44 34.53,24.53 0.9,-14.54 11.81,-26.34 32.7,-26.34 25.45,0 54.51,19.99 54.51,58.14 0,34.53 -29.06,59.96 -67.23,59.96 -70.87,0 -121.74,-81.77 -179.89,-81.77zm-54.53 1322.88c0,-5.45 -3.64,-9.99 -9.07,-9.99l0 20.89c5.43,0 9.07,-3.63 9.07,-10.9zm1.82 40.91l-6.35 -17.28 -0.9 -4.53 -3.63 0 0 19.07 -9.09 -1.82 0 -59.06 10.89 2.73c10.91,2.72 16.36,10.89 16.36,21.81 0,6.35 -3.63,12.71 -7.27,14.53l10.9 27.26 -10.9 -2.71zm178.09 -389.79c0,-58.15 -32.7,-121.74 -90.86,-163.53 41.81,63.57 65.42,132.65 59.98,198.96 -9.09,-59.06 -33.63,-138.1 -75.42,-194.43 4.55,63.6 -19.07,133.55 -57.25,146.27 29.09,-25.43 51.79,-94.5 38.17,-147.17 -16.36,85.39 -42.7,133.55 -88.14,150.8 8.19,8.19 28.18,18.18 48.16,18.18 40.89,0 75.42,-28.17 74.5,-106.3l0 -4.53 0 4.53c1.82,96.32 37.25,126.3 37.25,162.63 0,29.08 -20.89,45.44 -44.5,38.17 36.33,23.61 98.12,-13.65 98.12,-103.58zm-203.52 383.42l-23.63 -8.17 0 -58.14 23.63 8.17 0 9.09 -14.54 -5.46 0 15.44 10.91 2.72 0 9.09 -10.91 -3.63 0 17.28 14.54 3.63 0 9.98zm104.49 -145.37c-18.18,0 -37.25,9.09 -58.15,20.89 -22.73,12.73 -48.16,23.63 -71.78,17.28 29.98,12.7 69.95,21.79 99.03,21.79 32.72,0 67.24,-12.73 67.24,-35.43 0,-11.81 -12.73,-24.53 -36.33,-24.53zm-138.1 -254.41c83.6,-21.79 84.51,-114.47 109.94,-192.61 103.58,72.68 141.73,136.28 141.73,208.97 0,84.51 -45.42,123.56 -90.86,123.56 -27.25,0 -43.61,-16.34 -43.61,-36.33 0,-14.54 12.73,-25.45 25.43,-25.45 14.54,0 21.81,9.09 23.63,16.36 3.63,-3.64 3.63,-7.27 3.63,-13.62 0,-19.1 -19.97,-49.98 -25.45,-80.88 -10.89,23.63 -41.78,39.99 -72.69,39.99 -29.08,0 -60.88,-14.54 -71.77,-39.99zm-0.92 256.23c0,15.44 9.09,24.53 22.73,24.53 20.88,0 46.34,-14.54 65.42,-25.45 -10.91,-14.52 -33.64,-26.34 -53.61,-26.34 -19.99,0 -34.54,10.9 -34.54,27.26zm-1.82 72.69l9.09 3.63 -9.09 55.41 -16.34 -6.35 -7.27 -62.68 9.98 4.53 4.54 37.25 0 15.44 2.74 0.92 0.9 -15.44 5.45 -32.71zm-49.97 9.98c0,-4.53 2.74,-7.25 7.29,-7.25 4.52,0 7.25,2.71 7.25,7.25 0,4.55 -2.73,7.27 -7.25,7.27 -4.55,0 -7.29,-2.72 -7.29,-7.27zm-6.35 -656.88c-3.63,0 -9.09,3.63 -16.35,5.45l0 43.61 23.63 -34.54c3.63,-5.43 0,-14.52 -7.27,-14.52zm-7.27 679.62l-23.63 -9.09 0 -61.8 23.63 10.9 0 9.09 -14.52 -6.35 0 15.44 12.7 4.54 0 9.11 -12.7 -4.55 0 18.18 14.52 4.53 0 10.01zm-18.16 -672.35c-4.55,0.9 -10.01,1.82 -15.46,1.82l0 76.3 15.46 -22.71 0 -55.41zm-21.83 612.36c0,-7.27 -3.62,-9.98 -9.07,-11.8l0 19.99c3.63,1.82 9.07,-0.92 9.07,-8.19zm2.74 44.53l-7.27 -21.81 -0.9 -5.43 -3.63 0 0 22.71 -9.09 -3.63 0 -61.78 9.09 3.63c14.54,5.43 18.18,12.73 18.18,21.79 0,3.64 -1.82,11.83 -7.27,14.54l13.62 35.43 -12.73 -5.45zm-20.89 -655.07l0 113.57 15.44 -22.71 0 -89.96c-4.54,0 -9.99,0 -15.44,-0.9zm69.95 -1033.96c0,-16.36 10.01,-27.26 23.63,-27.26 14.54,0 21.81,10.9 21.81,21.79 0,11.83 -9.09,23.63 -29.09,21.83 7.27,7.25 19.99,9.09 32.7,9.09 20.91,0 38.17,-17.27 38.17,-40.89 0,-32.71 -23.61,-55.45 -61.78,-55.45 -47.24,0 -99.93,43.62 -99.93,145.39 0,63.6 19.98,136.28 74.49,201.7 -32.7,7.27 -49.06,25.42 -49.06,49.05 0,14.54 4.55,25.45 10.01,31.8 14.52,-22.71 32.7,-37.25 69.95,-45.42 -19.99,-9.09 -42.7,-5.46 -59.04,7.27 9.98,-21.81 33.62,-30.88 62.68,-25.45 -82.67,-150.83 -94.49,-244.4 -69.97,-298.94 -9.07,53.63 -8.17,135.41 83.59,288.95 8.19,-121.76 -45.42,-145.37 -59.04,-230.78 23.61,80.86 82.67,104.49 75.4,231.68 17.26,-21.79 24.53,-55.41 24.53,-79.04 0,-85.41 -89.04,-139.92 -89.04,-205.33zm-87.21 74.5c0,-110.85 58.14,-158.09 112.65,-158.09 45.44,0 76.32,29.98 76.32,68.15 0,30.88 -23.63,51.77 -52.71,51.77 -9.06,0 -20.87,-0.9 -29.96,-6.35 26.35,59.96 83.6,98.11 83.6,175.35 0,39.97 -17.28,87.23 -49.98,112.65 -47.24,7.27 -85.41,38.17 -89.04,61.78 -12.73,-10.89 -25.45,-32.7 -25.45,-54.51 0,-23.63 14.54,-47.24 43.62,-54.5 -52.71,-59.97 -69.05,-139.92 -69.05,-196.25zm8.17 957.64c-7.27,-1.82 -10.9,-3.63 -16.35,-5.45l0 158.08 16.35 -24.53 0 -128.09zm-14.52 -824.99c-5.47,-1.82 -10.9,-9.09 -10.9,-18.18 0,-10.9 7.25,-19.99 7.25,-34.52 9.09,9.07 16.35,21.79 16.35,32.7 0,10.91 -7.27,18.18 -12.7,19.99zm-15.46 1433.72l8.17 3.63 0 -29.06 -1.82 -0.92 -2.71 11.82 -3.63 14.52zm15.46 -1404.66c-16.35,0 -26.37,-14.52 -25.46,-32.7 3.63,3.63 25.46,7.27 23.63,25.45 1.83,-18.18 18.17,-14.54 25.45,-23.63l0 9.09c0,10.91 -9.09,21.79 -23.61,21.79zm-10.9 785.94c-5.45,-2.75 -11.83,-6.37 -16.36,-10.01l0 210.79 16.36 -24.53 0 -176.25zm29.06 655.99l-25.45 -10.93 0 -13.62 -10.9 -4.54 -3.63 12.73 -8.17 -3.63 16.36 -53.61 31.8 12.7 0 10.01 -14.54 -6.35 0 14.54 10.9 4.53 0 9.09 -10.9 -4.55 0 16.36 14.54 5.45 0 11.83zm-50.88 -1440.11c0,-3.63 0,-5.43 1.82,-9.07 7.25,10.91 25.42,10.91 25.42,25.43 5.47,-14.52 25.45,-9.09 34.54,-16.36 -1.82,18.18 -12.73,29.08 -29.06,29.08 -19.99,0 -32.71,-12.72 -32.71,-29.08zm9.98 314.37c0,-3.63 -2.73,-6.35 -6.35,-6.35 -3.63,0 -6.37,2.71 -6.37,6.35 0,3.63 2.74,6.37 6.37,6.37 3.62,0 6.35,-2.74 6.35,-6.37zm-20.89 -285.29c0,-3.63 0,-7.27 1.8,-9.09 5.47,10.9 30.92,12.73 30.92,30.9 3.61,-16.35 29.06,-9.09 39.97,-19.99 -1.82,21.81 -12.73,29.09 -30.9,29.09 -23.63,0 -41.79,-10.91 -41.79,-30.9zm23.63 -232.6l0 25.45c0,34.52 -3.65,79.96 -14.54,118.11 -9.09,-3.62 -16.36,-12.7 -16.36,-32.7 0,-5.45 0,-12.73 1.82,-18.18 1.82,-12.73 5.45,-43.6 5.45,-79.96 0,-12.73 0,-27.26 -1.82,-41.79 5.45,23.61 16.36,29.06 25.45,29.06zm20.9 641.45l16.35 -3.62c57.23,-12.72 90.84,-32.71 90.84,-76.34 0,-36.33 -29.06,-56.31 -63.6,-56.31 -23.63,0 -37.25,6.35 -52.69,19.98 -11.81,9.98 -19.99,14.54 -32.71,14.54 -7.25,0 -12.73,-3.63 -12.73,-7.27 0,-14.54 45.44,-52.69 98.13,-52.69 49.06,0 90.86,29.06 90.86,79.96 0,56.33 -47.26,83.57 -112.68,99.93l-21.79 3.63 0 -21.81zm-29.98 922.2l0 42.7c0,9.09 -8.19,15.46 -16.36,12.73 -9.09,-2.71 -14.54,-9.09 -14.54,-23.61l0 -42.7 9.09 3.63 0 40.87c0,7.29 2.74,11.82 7.27,12.72 3.63,0.92 5.46,-1.82 5.46,-5.43l0 -43.62 9.09 2.71zm-30.9 -1301.97c0,-5.46 1.82,-10.91 3.63,-18.18 1.82,10.9 27.26,16.36 27.26,34.52l0 7.27c3.62,-9.09 12.73,-9.09 19.97,-9.09 18.18,0 24.55,0.92 27.27,-1.82 -3.64,16.35 -14.54,25.45 -30.9,25.45 -21.79,0 -47.24,-14.54 -47.24,-38.15zm48.16 470.63l0 7.27c25.43,5.45 41.78,10.9 41.78,19.99l-99.93 0c0,-9.09 14.52,-14.54 39.97,-19.99l0 -10.89 18.18 3.62zm-59.06 339.82c0,59.96 29.06,83.59 34.54,114.47l0 -216.24 -12.73 -12.73c0,41.81 -21.81,56.33 -21.81,114.49zm6.37 379.77c10.89,1.82 64.52,2.74 75.4,2.74 38.17,0 92.68,-7.27 127.22,-21.81 -72.69,39.99 -140.84,36.35 -202.62,34.54 34.52,16.34 66.32,23.63 96.29,23.63 75.41,0 131.75,-55.43 171.74,-55.43 23.61,0 38.15,9.07 39.97,30.88 0.92,-2.71 1.82,-8.17 1.82,-10.89 0,-58.17 -67.23,-85.43 -112.65,-85.43 -61.8,0 -148.1,48.18 -209.89,67.25 72.69,0 153.55,-36.35 215.35,-36.35 19.97,0 41.78,3.64 54.51,9.09 -79.96,-12.73 -146.29,34.52 -257.13,41.78zm-16.36 -1126.62l0 29.98 5.46 0.91 -0.92 -22.73 8.19 23.63 10.89 0.9 0 -29.98 -5.43 0 0.9 21.81 -7.27 -22.71 -11.81 -1.82zm22.71 -332.55c0,23.63 0,50.88 -3.64,79.96 -16.35,-1.82 -18.17,-18.18 -18.17,-30.88l0 -36.35c0,-12.73 0,-25.45 -1.8,-39.97 3.62,21.79 14.52,27.25 23.61,27.25zm28.16 725.04c-41.78,-7.27 -52.69,-18.16 -52.69,-29.98 0,-11.8 7.27,-23.61 39.97,-32.7l0 20.9c-10.91,2.71 -14.54,5.45 -14.54,10.9 0,5.45 4.55,8.17 27.26,12.73l18.18 3.63c49.06,9.98 62.7,28.16 68.13,37.25 1.82,3.63 2.74,8.17 2.74,9.98 0,5.46 -1.82,10.91 -3.63,10.91 -10.91,0 1.82,-25.45 -67.24,-39.97l-18.18 -3.66zm-64.5 855.87c0,10.93 1.8,21.83 9.09,21.83 5.43,0 7.25,-9.09 7.25,-21.83 0,-10.89 -1.82,-20.88 -8.17,-20.88 -6.37,0 -8.17,8.17 -8.17,20.88zm50.88 -646.9c23.63,41.81 54.51,52.71 89.05,52.71 19.99,0 36.33,-9.09 52.69,-9.09 14.54,0 25.42,10.9 25.42,23.63 0,7.25 -3.61,14.52 -5.43,18.16l-141.76 221.69 -34.52 0 -7.27 -18.16c5.46,-3.64 9.09,-9.09 9.09,-14.54 0,-32.7 -38.16,-59.96 -38.16,-125.4 0,-58.14 23.61,-79.94 23.61,-103.57 0,-7.27 -1.82,-16.36 -7.27,-25.45l14.54 -19.99 19.99 0zm-38.15 677.82l-1.82 0c-14.54,0 -19.99,-12.73 -19.99,-32.72 0,-16.35 5.45,-29.08 16.34,-29.08 12.73,0 18.18,12.73 18.18,34.54 0,10.9 -1.82,18.17 -9.09,21.79l5.45 -1.82 7.27 1.82 0 10.9 -16.34 -5.43zm-22.73 -1255.67l18.18 4.55 0 -5.46 -9.09 -1.82 0 -7.27 7.27 1.82 0 -5.45 -7.27 -0.9 0 -8.19 8.17 2.72 0 -5.43 -17.26 -4.55 0 29.98zm66.34 -190.8c-14.54,47.26 -36.35,96.32 -63.6,129.01 -3.63,-1.82 -5.47,-3.63 -5.47,-9.09 0,-7.27 9.11,-21.79 18.18,-45.42 10.91,-30.9 23.63,-63.6 34.54,-112.65 0,25.43 5.45,34.52 16.36,38.15zm8.17 530.61l0 -67.23c-49.06,-10.91 -87.21,-23.63 -87.21,-56.35l192.61 0c0,32.71 -36.35,45.44 -87.22,56.35l0 70.86 -18.18 -3.63zm-64.5 -697.78c1.8,7.25 1.8,14.53 1.8,23.61 0,18.18 -1.8,36.33 -5.43,56.33 -16.35,-3.63 -18.18,-18.18 -18.18,-32.7 0,-9.09 1.82,-25.45 1.82,-38.17 0,-9.07 -1.82,-21.81 -3.64,-38.15 5.46,23.61 14.54,29.08 23.63,29.08zm-22.71 340.7c0,7.27 -2.74,9.09 -6.37,8.19l0 -21.81c3.63,0.9 6.37,3.63 6.37,13.62zm342.51 1160.25c-14.54,0 -26.34,-8.19 -26.34,-21.81 0,-10.89 6.35,-19.07 17.28,-20.89 -35.46,-9.99 -93.6,55.43 -184.46,55.43 -52.69,0 -107.2,-21.81 -159.91,-65.42 118.13,-35.43 186.26,-81.77 260.78,-81.77 72.67,0 127.2,47.24 127.2,97.21 0,23.63 -16.36,37.25 -34.54,37.25zm-310.71 -1544.58c-4.55,-36.35 -18.18,-63.6 -32.72,-78.14 -7.27,-7.27 -12.72,-9.09 -12.72,-12.72 0,-3.62 3.63,-5.46 7.27,-5.46 10.91,0 30.88,16.36 45.42,43.61 9.09,19.99 18.18,50.89 19.99,83.59 -14.54,0 -24.53,-9.07 -27.25,-30.88zm-38.17 397.05c7.27,1.82 15.44,-0.9 15.44,-10.9 0,-9.09 -3.63,-16.36 -14.54,-19.99l-9.98 -3.63 0 31.79 9.09 2.74zm-12.72 1216.58c0,-4.54 2.73,-7.27 7.27,-7.27 4.53,0 7.27,2.74 7.27,7.27 0,4.55 -2.74,7.27 -7.27,7.27 -4.54,0 -7.27,-2.71 -7.27,-7.27zm72.68 -1473.71c-9.09,65.41 -36.33,132.65 -63.6,176.27 -5.45,-1.82 -9.09,-5.45 -9.09,-10.91 0,-9.09 5.45,-21.81 10.9,-38.15 10.91,-30.9 32.7,-76.34 41.81,-158.09 0,21.79 9.07,30.88 19.97,30.88zm-56.33 -139.92c-3.63,-19.99 -9.09,-47.24 -21.81,-63.6 -1.82,-3.63 -3.63,-5.45 -3.63,-9.09 0,-3.64 3.63,-5.46 5.45,-5.46 5.46,0 10.91,5.46 14.54,10.91 16.36,23.63 25.45,49.06 29.06,96.29 -14.52,0 -19.98,-7.25 -23.61,-29.06zm-25.45 368.89c0,3.63 -1.82,5.45 -4.53,4.53l0 -11.81c3.63,0.9 4.53,3.63 4.53,7.27zm16.36 -339.82l0 30.9c0,14.54 0,29.08 -1.82,47.24 -10.91,0 -21.81,-10.9 -21.81,-27.24 0,-9.09 1.82,-23.63 1.82,-39.99 0,-10.91 0,-21.79 -1.82,-36.33 3.65,16.35 12.72,25.42 23.63,25.42zm-16.36 -67.23c5.45,0 9.09,7.29 14.54,52.71 -16.36,0 -21.81,-18.18 -21.81,-34.54 0,-12.72 1.82,-18.17 7.27,-18.17zm9.99 431.58l-7.25 -17.26c3.62,-0.92 5.45,-3.63 5.45,-7.27 0,-5.46 -3.63,-9.09 -12.72,-11.81l-9.09 -2.74 0 30.9 9.09 2.72 0 -11.81 4.53 13.62 9.99 3.63zm37.27 -257.12c-7.27,43.6 -30.9,116.29 -58.16,154.46 -3.62,-3.64 -5.46,-7.27 -5.46,-12.73 0,-9.09 1.84,-19.97 7.27,-34.52 12.72,-34.54 30.9,-87.23 36.35,-139.94 1.82,21.81 9.09,30.9 19.99,32.72zm-72.7 818.62c-5.43,-1.82 -9.07,-7.25 -9.07,-12.71 0,-10.9 12.73,-21.81 25.43,-29.08l0 -59.96 2.74 0c3.63,63.6 4.53,70.87 4.53,78.14 0,16.36 -12.7,27.26 -23.63,23.61zm-5.43 -578.75c-3.63,-0.92 -3.63,-6.37 -3.63,-11.82 0,-7.25 0,-12.7 3.63,-11.81 3.62,0.92 3.62,6.35 3.62,12.72 0,6.35 0,11.81 -3.62,10.91zm-6.37 1232.94l8.17 0.9 0 -17.26 0.92 -10.91 -0.92 0 -2.72 10.91 -5.45 16.35zm-0.9 -1585.46c0,-12.72 5.45,-18.17 10.89,-18.17 5.47,0 7.29,5.45 7.29,32.7 0,21.81 0,41.81 -3.63,65.41 -7.27,0 -16.36,-10.89 -16.36,-27.25 0,-10.9 1.82,-29.08 1.82,-52.69zm6.35 356.16c7.27,1.8 13.62,-2.74 13.62,-11.82 0,-9.09 -2.71,-17.26 -12.7,-19.07 -7.27,-0.92 -12.72,4.55 -12.72,14.54 0,8.17 3.63,14.54 11.8,16.36zm44.53 -256.23c-7.27,43.62 -27.25,110.86 -52.69,149.01 -3.63,-1.82 -5.47,-7.27 -5.47,-10.91 0,-9.09 3.66,-19.97 9.11,-36.33 9.07,-32.7 23.61,-78.14 27.25,-130.83 1.82,21.79 12.72,27.25 21.81,29.06zm-36.33 -7.27c-3.66,18.17 -7.27,43.62 -14.54,59.98 -7.29,0 -12.73,-10.9 -12.73,-23.63 0,-12.72 7.27,-43.6 9.09,-61.78 0,18.18 10.9,25.43 18.18,25.43zm18.16 1520.05l-23.63 -5.45 0 -11.81 -9.99 -1.82 -3.62 11.82 -10.01 -1.83 18.18 -54.51c7.25,0.91 21.79,4.53 29.06,6.35l0 9.09 -14.52 -3.64 0 14.54 12.7 1.82 0 9.09 -12.7 -2.74 0 17.27 14.52 2.72 0 9.09zm-43.61 -663.26c-14.54,-10.01 -12.72,-23.61 -5.45,-34.52l24.53 -52.71 2.71 0 -18.18 50.88c1.84,9.11 9.11,19.99 1.84,29.08 12.72,-9.09 23.63,3.63 38.15,3.63 -12.73,12.73 -24.53,16.36 -43.61,3.63zm-16.35 593.31l9.09 1.8 0 58.14 -9.09 -0.9 0 -59.05zm29.08 -1226.59c25.43,0 82.67,30.9 134.47,30.9 30.9,0 47.26,-3.63 63.6,-16.36 -3.63,54.53 -27.24,69.05 -69.05,69.05 -56.33,0 -136.28,-39.97 -163.55,-39.97 3.64,-30.9 12.73,-43.62 34.54,-43.62zm-36.35 653.27c-14.52,-16.35 -14.52,-30.9 0,-45.42 0,12.7 18.18,27.24 7.27,38.15 10.9,-10.91 25.45,9.09 36.33,9.09 -10.89,12.73 -25.43,18.18 -43.61,-1.82zm-9.98 -584.2c-3.64,0 -10.01,-1.82 -17.28,-18.17 5.45,3.61 3.63,1.82 14.56,9.09 -5.47,-5.47 -9.11,-9.09 -12.72,-16.36 14.52,7.27 20.87,13.62 20.87,20.9 0,2.73 -1.8,4.55 -5.43,4.55zm33.61 -81.79l-7.27 -10.89 -16.36 -19.99 -16.35 5.45 -9.07 9.09 -3.63 0 3.63 -14.54 23.61 -14.54 -9.09 -39.97c1.82,1.82 3.63,1.82 9.09,1.82 3.63,0 5.45,0 7.27,-1.82l3.63 39.97 38.15 14.54 5.47 10.9 -3.63 0 -3.66 -5.45 -18.18 -5.45 14.56 12.72 1.8 12.73 -3.62 0 -5.45 -9.09 -19.99 -16.36 10.9 18.18 1.8 12.7 -3.62 0zm-19.99 -118.11l0 12.73c0,7.27 -1.82,12.73 -5.45,12.73 -5.45,0 -10.89,-7.27 -12.7,-21.81 -1.83,10.9 -9.11,19.99 -16.36,21.81 0,-23.63 1.82,-36.35 9.07,-41.79 3.63,9.07 10.91,10.89 16.36,10.89 7.27,0 12.73,-5.45 12.73,-12.72 7.27,5.45 12.72,14.54 16.35,30.9 -7.27,3.63 -18.17,-5.45 -19.99,-12.73zm-3.63 -39.97l0 10.89c0,9.11 -1.82,12.74 -7.27,12.74 -3.63,0 -9.09,-5.47 -12.73,-18.18 0,9.09 -5.43,18.18 -14.52,18.18l0 -10.93c0,-27.25 5.46,-34.52 25.43,-34.52 14.54,0 21.81,7.27 29.08,34.52 -5.45,0 -12.72,0 -19.99,-12.7zm-39.07 1327.42c98.13,-49.06 223.51,-71.77 318.01,-124.48 99.95,-56.33 183.54,-173.53 188.97,-422.47 -45.42,-3.63 -62.68,-24.55 -64.5,-50.9l-300.75 0c0.92,8.19 2.74,19.08 2.74,30.9 0,70.87 -20.9,119.92 -144.48,161.73l0 405.22zm15.44 -1067.58c-5.43,0 -13.62,-4.54 -15.44,-29.98 3.63,5.46 7.27,9.09 12.73,18.18 -3.63,-10.9 -5.45,-14.54 -9.09,-25.45 12.73,12.73 18.18,21.79 18.18,29.08 0,5.46 -2.74,8.17 -6.37,8.17zm515.17 22.71c-22.71,4.55 -45.42,-2.71 -60.86,-18.18 -13.64,-13.62 -20.91,-35.43 -18.17,-58.14l-22.73 -11.81c-63.6,58.15 -136.28,95.4 -218.04,95.4 -49.07,0 -101.77,-10.9 -149.01,-34.52l-61.8 87.21 0 225.33c25.45,19.1 64.52,29.08 99.95,29.08 8.19,0 16.36,-0.9 23.63,-1.82l21.79 26.35c-7.27,18.18 -9.07,36.35 -9.07,53.61 0,14.54 1.8,27.26 3.63,39.98l302.55 0c1.82,-30 24.53,-47.26 62.68,-50.89 0,-47.24 -21.81,-132.65 -21.81,-190.79 0,-45.44 16.36,-109.04 58.16,-169l-10.9 -21.81zm-518.81 1143.9l-3.62 -18.18 -1.82 0 1.82 25.45 0 19.1 -9.09 0 0 -59.98 10.91 0.92 7.25 23.61 0.92 14.54 0.9 0 1.82 -14.54 7.27 -21.79 10.9 0.9 0 59.06 -9.09 -0.92 0 -19.07 1.82 -25.45 -1.82 0 -3.62 16.36 -3.65 14.54 -7.27 0 -3.63 -14.54zm-21.79 -1749.91c3.63,0 6.35,-1.82 6.35,-5.45 0,-3.63 -2.71,-5.45 -6.35,-5.45 -3.64,0 -6.37,1.82 -6.37,5.45 0,3.63 2.73,5.45 6.37,5.45zm-3.64 507.9l0 9.98 9.09 0 0 -9.98 7.27 -19.07 -5.45 0 -4.55 13.6 -4.53 -13.6 -9.09 0 7.27 19.07zm4.55 477.9c-6.37,0 -13.64,-7.27 -13.64,-14.54 0,-9.07 4.53,-14.54 10.01,-27.24l1.8 -34.54 3.63 0 1.84 34.54c5.43,12.7 9.98,18.17 9.98,27.24 0,7.27 -7.27,14.54 -13.62,14.54zm-0.91 -371.6c-7.27,0 -12.73,-3.63 -12.73,-16.35 0,-9.09 1.82,-17.26 7.27,-33.62 1.82,7.27 5.46,14.54 5.46,25.45 0,-10.91 3.63,-18.18 5.45,-25.45 5.45,16.36 7.27,24.53 7.27,33.62 0,12.72 -5.45,16.35 -12.72,16.35zm-21.81 1162.97l0 -59.96 21.81 -0.92 0 9.09 -12.73 0.9 0 15.46 10.91 -0.91 0 9.09 -10.91 0 0 18.18 12.73 -0.9 0 9.09 -21.81 0.9zm49.05 147.19c0,-19.99 -12.7,-36.35 -27.24,-49.07 -14.54,12.72 -27.27,29.08 -27.27,49.07 0,21.79 14.54,30.88 27.27,30.88 12.72,0 27.24,-9.09 27.24,-30.88zm-59.04 -1349.23c0,-7.29 5.45,-16.35 18.18,-29.08 -3.66,10.9 -5.46,14.54 -9.09,25.45 5.43,-9.09 9.09,-12.72 12.7,-18.18 -1.8,25.45 -9.98,29.98 -15.44,29.98 -3.63,0 -6.35,-2.71 -6.35,-8.17zm62.68 -40.89c-9.09,-1.82 -21.79,-3.63 -30.88,-3.63 -7.27,0 -19.99,1.82 -29.09,3.63 -3.63,-10.9 -9.09,-27.26 -9.09,-38.15 0,-14.56 10.9,-19.99 38.17,-19.99 29.06,0 39.97,5.43 39.97,19.99 0,10.89 -5.43,27.25 -9.09,38.15zm-75.4 24.53c0,-7.27 6.35,-13.62 20.9,-20.9 -3.64,7.27 -7.25,10.89 -12.73,16.36 10.9,-7.27 9.09,-5.47 14.54,-9.09 -7.27,16.35 -13.62,18.17 -17.26,18.17 -3.64,0 -5.46,-1.82 -5.46,-4.55zm45.44 454.29c-19.09,0 -30,-12.72 -33.63,-25.45l-14.52 -41.78 2.71 0 15.44 36.33c12.73,5.45 30,10.9 30,23.63 0,-12.73 17.26,-18.18 28.14,-23.63l17.28 -36.33 2.71 0 -14.52 41.78c-7.29,14.54 -16.36,25.45 -33.62,25.45zm-39.09 736.85c0,-14.54 -5.45,-21.79 -12.7,-19.99l0 39.99c7.25,0 12.7,-9.09 12.7,-19.99zm57.25 -1698.12c0,8.19 2.71,15.44 2.71,17.26 0,7.27 -10.89,12.73 -21.79,12.73 -7.27,0 -18.18,-5.46 -18.18,-10.91 0,-5.45 6.37,-18.16 6.37,-29.06 0,-1.82 0,-3.65 -1.82,-7.29 3.61,2.74 8.17,3.64 12.7,3.64 4.55,0 10.9,-1.8 12.72,-5.43 -21.81,6.35 -29.98,-6.37 -31.79,-17.28 -8.17,3.63 -16.36,0.92 -18.18,-5.45 -3.63,1.84 -8.17,2.74 -11.81,5.45 -3.63,-15.44 1.82,-19.07 20.89,-21.79 -2.71,-2.74 -3.63,-6.37 -3.63,-9.09 0,-9.09 10.01,-13.64 32.72,-13.64 9.98,0 16.35,3.63 14.54,8.19 0,3.63 -1.82,3.63 -1.82,5.45 11.81,3.64 15.44,13.62 15.44,23.63 0,18.16 -9.09,21.79 -9.09,43.61zm-19.07 211.71c9.09,0 18.17,-12.74 18.17,-27.26 3.62,14.52 7.25,21.79 14.53,21.79 7.27,0 12.72,-12.7 12.72,-29.06 10.91,16.36 14.54,32.7 14.54,43.62 0,12.7 -3.63,16.34 -7.27,16.34 -5.45,0 -12.72,-7.27 -14.54,-23.63 0,19.99 -5.45,29.09 -12.73,29.09 -3.63,0 -9.07,-7.27 -12.7,-19.99 0,16.36 -5.45,27.26 -12.72,27.26 -5.46,0 -10.91,-10.9 -10.91,-27.26 -3.63,12.72 -9.09,19.99 -12.72,19.99 -7.25,0 -12.73,-9.09 -12.73,-29.09 -1.82,16.36 -9.09,23.63 -14.52,23.63 -3.63,0 -7.27,-3.63 -7.27,-16.34 0,-10.93 3.64,-27.26 14.53,-43.62 0,16.36 5.45,29.06 12.74,29.06 7.25,0 10.89,-7.27 14.52,-21.79 0,14.52 9.09,27.26 16.36,27.26zm-59.97 1458.25l6.35 -0.9c14.54,-1.82 24.53,5.43 24.53,27.25 0,21.81 -10.9,29.08 -23.63,30.9l-7.25 0.9 0 -58.15zm60.88 -679.62c-19.09,0 -35.43,-10.91 -39.09,-25.43l-25.43 -43.62 3.63 0 25.45 38.17c12.7,5.45 32.7,10.91 35.43,21.79 3.64,-10.89 22.71,-16.34 35.43,-21.79l23.61 -38.17 3.63 0 -23.63 43.62c-5.43,14.52 -21.79,25.43 -39.05,25.43zm-0.91 -833.16c10.9,0 18.17,-10.89 18.17,-25.45 3.62,14.56 10.89,19.99 16.36,19.99 7.25,0 14.52,-12.72 14.52,-27.25 1.82,12.73 9.09,23.61 18.18,23.61 0,19.99 -3.63,30.9 -12.72,30.9 -5.46,0 -7.27,-9.09 -10.91,-23.63 0,14.54 -7.25,29.09 -14.54,29.09 -5.43,0 -9.06,-5.46 -12.7,-21.81 -1.82,16.35 -9.09,29.08 -16.35,29.08 -5.46,0 -14.54,-12.73 -14.54,-29.08 -3.63,16.35 -7.27,21.81 -12.73,21.81 -7.25,0 -14.54,-14.54 -14.54,-29.09 -3.63,14.54 -5.43,23.63 -10.91,23.63 -9.07,0 -12.7,-10.9 -12.7,-30.9 7.27,0 16.36,-10.89 18.18,-23.61 0,14.53 7.25,27.25 14.52,27.25 5.45,0 12.73,-5.43 16.36,-19.99 0,14.56 7.27,25.45 16.36,25.45zm-38.17 92.68c19.99,0 25.45,7.27 25.45,34.52l0 10.93c-9.09,0 -14.54,-9.09 -16.36,-18.18 -1.8,12.7 -7.27,18.18 -10.9,18.18 -5.45,0 -7.25,-3.63 -7.25,-12.74l0 -10.89c-7.27,12.7 -14.54,12.7 -19.99,12.7 7.27,-27.25 14.52,-34.52 29.06,-34.52zm39.09 769.56c-20.91,0 -37.27,-12.72 -40.9,-29.08l-32.72 -47.24 3.66 0 36.33 47.24c12.73,5.45 30.9,10.9 33.63,19.99 3.64,-9.09 20.88,-14.54 33.62,-19.99l36.33 -47.24 3.63 0 -32.71 49.06c-3.63,14.54 -20.89,27.26 -40.87,27.26zm-53.63 -727.75c0,7.25 3.66,14.52 10.91,14.52 5.45,0 10.93,-5.45 14.54,-12.72 7.27,7.27 10.91,19.99 10.91,43.62 -9.09,-1.82 -16.36,-10.91 -16.36,-21.81 -1.8,14.54 -7.27,21.81 -12.72,21.81 -3.62,0 -5.43,-5.46 -5.43,-12.73l0 -12.73c-1.84,7.27 -12.73,16.36 -21.83,12.73 5.47,-16.36 12.74,-29.06 19.99,-32.7zm9.09 858.59l36.35 -27.26 -14.54 -10.89c-12.7,12.7 -25.43,16.34 -39.97,5.45 10.91,-3.65 21.79,-23.63 34.52,-12.74 -10.9,-12.7 3.64,-27.25 1.82,-39.97 12.73,7.27 18.18,29.08 7.27,39.97l14.54 10.93 0 -59.98c-18.17,-1.82 -38.17,-14.52 -41.8,-34.52l-38.16 -56.33 3.63 0 41.79 52.69c14.54,5.45 39.09,10.91 39.09,23.63 0,-12.72 24.51,-18.18 39.05,-23.63l41.81 -52.69 3.63 0 -38.17 56.33c-3.63,19.99 -23.61,32.7 -41.78,34.52l0 59.98 14.54 -10.93c-10.91,-10.89 -5.46,-32.7 7.25,-39.97 -1.82,12.72 12.73,27.26 1.82,39.97 12.73,-10.89 21.81,9.09 34.54,12.74 -14.54,10.89 -27.25,7.25 -39.97,-5.45l-14.54 10.89 38.15 27.26 -10.89 3.63 -30.9 -21.81 0 32.72 -4.54 1.82 -4.55 -1.82 0 -32.72 -29.08 21.81 -10.9 -3.63zm-36.34 558.77l-3.63 -27.26 -1.82 0 -1.82 29.09 7.27 -1.82zm-1.82 -1243.84c0,8.19 -1.82,10.01 -5.45,11.82l0 -20.89c3.63,0 5.45,0 5.45,9.07zm34.54 628.74c-18.18,19.98 -32.72,16.36 -43.62,1.82 10.9,0 25.45,-18.18 36.35,-9.09 -10.91,-9.09 7.27,-25.43 7.27,-36.33 14.52,12.7 14.52,27.24 0,43.6zm-39.99 -612.39c9.99,-3.63 14.52,-8.17 14.52,-18.16 0,-9.09 -5.43,-12.74 -14.52,-10.9l-9.09 1.82 0 29.96 9.09 -2.72zm-9.09 -262.58c7.27,0 16.35,-7.25 18.18,-25.43 1.82,18.18 9.09,49.06 9.09,61.78 0,12.73 -5.45,23.63 -12.73,23.63 -7.27,-16.35 -10.9,-41.81 -14.54,-59.98zm-3.63 1517.33l7.27 -59.97 16.36 -3.63 10.9 56.31 -10.9 1.83 -1.82 -12.72 -10.01 2.74 -1.8 12.7 -10.01 2.74zm25.45 -1306.55l1.8 -12.7 10.93 -18.18 -19.99 16.36 -5.45 9.09 -3.63 0 1.82 -12.73 14.54 -12.72 -18.18 5.45 -3.63 5.45 -5.46 0 7.27 -10.9 36.35 -14.54 5.43 -39.97c1.84,1.82 3.66,1.82 7.27,1.82 5.45,0 7.27,0 9.09,-1.82l-9.09 39.97 23.63 14.54 3.63 14.54 -3.63 0 -9.07 -9.09 -16.36 -5.45 -16.36 19.99 -7.27 10.89 -3.63 0zm-7.27 -303.45c0,23.61 1.82,41.79 1.82,52.69 0,16.36 -9.09,27.25 -16.35,27.25 -3.63,-23.61 -5.46,-43.6 -5.46,-65.41 0,-27.25 3.64,-32.7 9.09,-32.7 5.45,0 10.9,5.45 10.9,18.17zm-28.16 337.09l2.71 14.52 -4.53 1.82 1.82 -16.34zm37.23 612.36c-17.24,12.73 -29.06,9.09 -41.77,-5.45 12.7,0 25.43,-12.72 38.16,-1.82 -9.09,-9.09 0,-19.97 1.82,-29.08l-18.18 -52.68 2.74 0 24.53 52.68c7.27,12.74 9.07,24.55 -7.29,36.35zm-21.79 -19.99c-10.91,4.55 -23.63,-5.43 -23.63,-21.79 0,-7.27 0.92,-14.54 4.55,-79.96l2.71 0 0 61.78c12.73,5.45 25.45,16.36 25.45,29.08 0,5.46 -3.63,8.17 -9.09,10.89zm-19.98 -596l-6.37 33.62 7.27 -2.74 0.91 -5.45 6.35 -2.72 0.9 4.54 9.09 -2.74 -7.27 -28.14 -10.89 3.63zm56.33 1327.42c23.63,0 39.97,7.27 58.15,18.18 18.17,-10.9 36.35,-18.18 59.96,-18.18 43.6,0 70.87,21.81 70.87,50.88 0,23.63 -19.99,38.17 -39.97,38.17 -16.36,0 -29.08,-7.27 -29.08,-21.81 0,-9.09 5.45,-16.36 16.36,-16.36 10.9,0 19.99,12.73 12.72,25.45 14.52,0 25.43,-10.9 25.43,-26.34 0,-22.71 -21.81,-37.25 -52.69,-37.25 -21.81,0 -43.6,7.27 -52.69,14.54 18.16,18.16 30.88,36.33 30.88,58.14 0,29.06 -21.79,45.42 -41.78,45.42 -19.99,0 -41.81,-16.35 -41.81,-45.42 0,-21.81 12.72,-39.99 30.9,-58.14 -9.09,-7.27 -29.08,-14.54 -50.88,-14.54 -32.71,0 -54.53,14.54 -54.53,37.25 0,15.44 10.9,26.34 25.45,26.34 -7.27,-12.72 1.82,-25.45 12.73,-25.45 10.9,0 16.35,7.27 16.35,16.36 0,14.54 -12.72,21.81 -29.08,21.81 -19.99,0 -39.97,-14.54 -39.97,-38.17 0,-29.06 27.24,-50.88 72.68,-50.88zm-45.44 -49.97c-12.72,5.45 -27.24,0.9 -27.24,-26.34 0,-19.99 10.89,-32.72 25.42,-30.9l0 9.09c-10.9,0 -15.44,7.27 -15.44,21.81 0,16.35 8.19,21.81 17.26,18.16l0 8.19zm-29.06 -1510.96c9.06,-1.82 19.99,-7.27 21.79,-29.06 3.63,52.69 18.18,98.13 27.26,130.83 5.46,16.36 9.09,27.25 9.09,36.33 0,3.63 -1.82,9.09 -5.46,10.91 -25.45,-38.15 -45.42,-105.38 -52.69,-149.01zm12.7 -161.73c3.63,0 7.29,5.45 7.29,18.17 0,16.36 -5.47,34.54 -21.81,34.54 5.46,-45.42 9.09,-52.71 14.53,-52.71zm-16.34 67.23c10.91,0 19.98,-9.07 23.63,-25.42 -1.82,14.54 -1.82,25.42 -1.82,36.33 0,16.35 1.82,30.9 1.82,39.99 0,16.34 -10.93,27.24 -21.81,27.24 -1.82,-18.16 -1.82,-32.7 -1.82,-47.24l0 -30.9zm26.35 751.41c-5.45,0 -10.01,-0.92 -15.44,-1.82l-11.82 14.54c3.63,16.34 7.27,30.88 7.27,50.88 0,25.42 -7.27,59.96 -7.27,81.77 0,67.23 16.35,110.84 138.12,150.8 121.74,-39.97 138.08,-83.57 138.08,-150.8 0,-21.81 -7.27,-56.35 -7.27,-81.77 0,-19.99 3.66,-34.54 7.27,-50.88l-11.81 -14.54c-5.45,0.9 -9.98,1.82 -15.46,1.82 -38.15,0 -76.3,-7.27 -110.82,-30.9 -34.53,23.63 -72.7,30.9 -110.85,30.9zm-30 -408.87l6.37 -2.71 0 25.42 9.09 -2.71 0 -25.45 5.45 -0.9 0 -6.37 -20.91 6.37 0 6.35zm-9.07 6.37c0,3.62 -0.92,5.45 -3.63,6.35l0 -10.91c2.71,-0.9 3.63,1.82 3.63,4.55zm-5.45 1248.36l7.27 -1.8 -1.82 -16.35 -0.92 -11.81 -1.82 0.9 -0.9 11.82 -1.82 17.24zm17.26 -1231.11l-7.25 -10.9c2.71,-0.9 4.52,-4.54 4.52,-7.27 0,-5.45 -4.52,-9.98 -11.81,-8.17l-9.99 2.71 0 30.9 9.09 -2.71 0 -11.82 5.45 9.98 9.99 -2.71zm-29.98 -258.94c10.9,-1.82 18.18,-10.91 19.99,-32.72 5.45,52.71 23.61,105.4 36.33,139.94 5.45,14.54 7.27,25.43 7.27,34.52 0,5.45 -1.82,9.09 -5.43,12.73 -27.27,-38.17 -50.9,-110.86 -58.17,-154.46zm-1.82 1515.49l9.99 -60.86 15.46 -4.55 9.09 55.42 -9.09 2.74 -1.82 -10.9 -10.01 2.71 -1.82 11.82 -11.81 3.62zm23.63 -1651.78c-3.63,21.81 -9.09,29.06 -23.63,29.06 3.63,-47.24 12.72,-72.66 29.06,-96.29 3.65,-5.45 9.11,-10.91 14.56,-10.91 1.8,0 5.43,1.82 5.43,5.46 0,3.63 -1.82,5.45 -3.64,9.09 -12.7,16.36 -18.16,43.6 -21.79,63.6zm-25.45 43.62c9.09,0 18.18,-5.47 23.63,-29.08 -1.82,16.34 -3.63,29.08 -3.63,38.15 0,12.73 1.82,29.09 1.82,38.17 0,14.52 -1.82,29.06 -18.18,32.7 -3.63,-19.99 -5.45,-38.15 -5.45,-56.33 0,-9.09 0,-16.36 1.82,-23.61zm29.98 677.78l-38.15 -129.93 0 129.93 38.15 0zm-42.68 -314.35l18.16 -3.65 0 -5.46 -9.09 1.84 0 -8.19 8.17 -0.9 0 -5.46 -8.17 1.82 0 -7.27 8.17 -0.92 0 -5.45 -17.24 3.63 0 30zm-16.36 1222.94c0,-4.55 2.71,-7.27 7.27,-7.27 4.54,0 7.25,2.72 7.25,7.27 0,4.53 -2.71,7.27 -7.25,7.27 -4.55,0 -7.27,-2.74 -7.27,-7.27zm3.63 -1228.41c0,3.63 -1.82,5.47 -4.55,5.47l0 -10.9c2.74,0 4.55,1.8 4.55,5.43zm0 -13.62c0,2.74 -1.82,4.55 -4.55,4.55l0 -9.09c2.74,0 4.55,1.82 4.55,4.54zm-5.45 -248.04c10.89,0 19.99,-9.09 19.99,-30.88 9.07,81.76 30.88,127.2 41.77,158.09 5.47,16.34 9.11,29.06 9.11,38.15 0,5.46 -1.82,9.09 -7.27,10.91 -27.26,-43.62 -54.51,-110.86 -63.6,-176.27zm-5.45 -94.5c9.09,0 18.16,-5.45 23.63,-27.25 -1.84,14.52 -1.84,27.25 -1.84,39.97l0 36.35c0,12.7 -1.82,29.06 -18.16,30.88 -3.63,-29.08 -3.63,-56.33 -3.63,-79.96zm27.26 -45.42c-2.74,21.81 -12.73,30.88 -27.26,30.88 1.8,-32.7 10.9,-63.6 19.97,-83.59 12.73,-27.25 34.54,-43.61 45.44,-43.61 3.63,0 7.27,1.84 7.27,5.46 0,3.63 -5.47,5.45 -12.72,12.72 -14.54,14.54 -28.18,41.79 -32.7,78.14zm-30 380.69l0 29.98 11.82 -0.9c7.25,-0.9 10.89,-4.55 10.89,-9.99 0,-5.47 -3.63,-6.37 -7.27,-6.37 3.63,0 6.37,-3.63 6.37,-7.27 0,-5.46 -4.54,-7.27 -11.81,-6.35l-10.01 0.9zm-14.54 29.09l9.09 0 0 -29.09 -9.09 0 0 29.09zm-2.71 -198.99c9.09,-3.63 16.36,-12.72 16.36,-38.15 10.9,49.06 21.79,81.76 34.52,112.65 9.09,23.63 18.17,38.16 18.17,45.42 0,5.45 -1.82,7.27 -5.45,9.09 -27.26,-32.7 -49.06,-81.75 -63.6,-129.01zm-0.9 510.62l38.16 0 0 -129.93 -38.16 129.93zm-11.82 942.2c7.27,1.82 13.62,0 13.62,-5.45 0,-10.9 -16.34,-12.73 -16.34,-29.06 0,-10.9 9.99,-18.19 22.71,-16.36l1.82 9.99c-7.27,-1.82 -13.62,-0.9 -13.62,6.37 0,9.07 17.26,11.81 17.26,28.17 0,12.7 -12.72,19.97 -23.63,16.34l-1.82 -9.99zm376.15 -1790.79c45.44,0 101.77,43.6 109.02,163.53 -16.34,0 -21.79,-12.71 -23.61,-32.7 -10.9,-76.32 -50.89,-112.68 -79.96,-112.68 -56.33,0 -10.9,89.04 -69.05,101.77 0,14.54 -3.63,32.72 -10.9,32.72 -9.09,0 -12.73,-16.36 -16.36,-29.09 0,19.99 -5.45,36.33 -12.72,36.33 -5.46,0 -10.91,-16.34 -14.53,-30.88 0,18.18 -9.09,36.34 -18.17,36.34 -7.27,0 -16.36,-18.16 -16.36,-36.34 -3.63,14.54 -9.09,30.88 -14.52,30.88 -7.29,0 -12.74,-16.34 -12.74,-36.33 -3.62,12.73 -7.25,29.09 -16.34,29.09 -7.27,0 -10.9,-18.18 -10.9,-32.72 -58.14,-12.73 -12.73,-101.77 -69.07,-101.77 -29.06,0 -69.03,36.35 -79.94,112.68 -1.82,19.99 -7.27,32.7 -23.63,32.7 7.27,-119.93 63.62,-163.53 109.04,-163.53 67.24,0 32.7,83.59 63.6,83.59 12.72,0 23.63,-14.54 34.52,-32.72 -1.82,3.64 -1.82,7.27 -1.82,10.91 0,14.54 14.54,23.61 38.17,23.61 25.42,0 39.97,-9.06 39.97,-23.61 0,-3.63 0,-7.27 -1.82,-10.91 10.9,18.18 19.99,32.72 34.53,32.72 29.09,0 -3.63,-83.59 63.6,-83.59zm-380.69 506.06l0 27.27c3.61,1.82 10.89,3.63 16.35,3.63l0 -5.45 -7.27 0 0 -24.53 -9.09 -0.92zm-0.92 -326.18c9.09,0 19.99,-5.45 25.45,-29.06 -1.82,14.53 -1.82,29.06 -1.82,41.79 0,36.35 3.63,67.23 5.45,79.96 1.82,5.45 1.82,12.73 1.82,18.18 0,19.99 -7.27,29.08 -16.35,32.7 -10.91,-38.15 -16.34,-83.6 -16.34,-118.11 0,-9.09 0,-18.17 1.8,-25.45zm-19.97 1613.63l9.06 -3.64 -3.63 -13.62 -1.82 -13.65 -1.8 0.92 0 13.62 -1.82 16.36zm-12.73 27.26l7.25 -63.6 14.54 -5.46 12.73 54.51 -9.09 3.63 -1.82 -10.9 -11.81 4.55 -0.9 12.7 -10.9 4.55zm12.73 -1468.26c-5.47,-1.82 -12.73,-9.09 -12.73,-19.99 0,-10.9 7.25,-23.63 16.34,-32.7 0,14.52 7.27,23.61 7.27,34.52 0,9.09 -7.27,16.36 -10.89,18.18zm181.7 112.65c21.81,0 30.88,12.73 34.54,43.61 -27.26,0 -107.22,41.81 -163.55,41.81 -41.8,0 -65.41,-14.53 -69.05,-69.05 16.36,12.73 40.86,16.36 63.6,16.36 50.88,0 108.12,-32.72 134.47,-32.72zm-121.76 -23.61c0,23.61 -25.42,38.15 -47.24,38.15 -16.36,0 -27.25,-9.09 -30.88,-25.45 2.71,2.74 9.09,1.82 27.24,1.82 7.27,0 16.36,0 19.99,9.09l0 -7.27c0,-18.16 25.45,-23.61 27.27,-34.52 1.82,7.27 3.61,12.72 3.61,18.18zm-59.94 -59.98c-14.54,0 -25.45,-10.89 -25.45,-21.79 0,-3.63 0,-5.45 1.8,-9.09 7.29,9.09 23.65,5.45 25.47,23.63 -1.82,-18.18 19.97,-21.81 23.61,-25.45 0.92,18.18 -9.09,32.7 -25.42,32.7zm43.6 30.9c0,19.99 -18.18,30.9 -41.78,30.9 -18.18,0 -29.09,-7.27 -30.9,-29.09 10.91,10.91 36.35,3.64 39.97,19.99 0,-18.17 25.45,-19.99 30.9,-30.9 1.82,1.82 1.82,5.45 1.82,9.09zm-10.9 -29.08c0,16.36 -12.73,29.08 -32.7,29.08 -16.36,0 -27.27,-10.9 -29.09,-29.08 9.09,7.27 29.09,1.84 32.7,16.36 1.82,-14.52 19.99,-14.52 27.26,-25.43 1.82,3.63 1.82,5.43 1.82,9.07zm-69.05 1386.48l9.09 -3.62 0 51.77 10.91 -5.45 0 10.01 -19.99 8.17 0 -60.88zm-30.88 13.64l0 43.6c0,3.64 1.82,5.46 3.63,5.46 3.62,0 7.25,-3.63 7.25,-10.89l0 -43.62 10.9 -4.55 0 42.7c0,18.18 -10.9,27.26 -19.97,27.26 -7.29,0 -10.9,-5.45 -10.9,-12.72l0 -43.61 9.09 -3.63zm-13.64 -1064.86l0 129.93 38.15 0 -38.15 -129.93zm-11.81 1113.01l-1.82 -12.72 -1.82 -13.62 -1.82 0.9 -3.64 29.09 9.09 -3.64zm201.69 -479.73c-5.45,3.63 -14.54,7.27 -28.16,7.27 -28.17,0 -45.44,-15.44 -45.44,-52.69 0,-33.62 0,-44.52 3.63,-107.2l-56.33 0c0,33.6 0.92,61.78 -3.63,92.66 -4.54,29.98 -16.34,49.98 -41.79,71.79l-20.89 -22.71c18.18,-13.65 30.88,-22.73 35.43,-52.71 4.54,-29.08 3.63,-56.33 3.63,-89.02 -30.9,0 -40.89,13.6 -40.89,41.79l-28.18 -7.27c5.45,-45.44 30,-59.96 71.79,-59.96l148.09 0 0 25.45 -40.87 0c-3.63,67.21 -2.74,73.58 -2.74,99.93 0,26.34 11.81,32.71 26.35,32.71 9.09,0 13.64,-1.83 19.99,-4.55l0 24.53zm-223.51 511.53l9.09 -62.7 16.34 -7.27 9.11 56.34 -9.11 3.62 -1.8 -12.7 -10.91 4.53 -1.82 13.65 -10.9 4.53zm22.71 -1014.88l0 -129.93 -37.25 129.93 37.25 0zm-49.97 993.99c0,-4.55 2.73,-7.27 7.27,-7.27 4.55,0 7.27,2.71 7.27,7.27 0,4.53 -2.71,7.27 -7.27,7.27 -4.54,0 -7.27,-2.74 -7.27,-7.27zm139.02 -1132.09c-10.91,0 -19.99,-8.17 -21.81,-15.44 -19.98,0 -39.97,3.62 -52.69,6.35l47.24 147.19 12.73 0c0,18.18 -21.81,34.54 -69.05,34.54 -45.42,0 -65.41,-16.36 -65.41,-34.54l10.9 0 43.61 -141.73 -8.17 2.71 -6.35 -19.07c29.06,-9.07 56.33,-14.52 87.21,-16.36 3.63,-9.07 12.72,-14.52 21.81,-14.52 9.09,0 18.16,5.45 20.91,14.52 30.88,1.84 59.05,7.29 88.11,16.36l-6.35 19.07 -8.17 -2.71 43.61 141.73 10.9 0c0,18.18 -19.99,34.54 -65.41,34.54 -47.24,0 -69.07,-16.36 -69.07,-34.54l12.72 0 47.26 -147.19c-11.83,-2.73 -31.8,-6.35 -52.69,-6.35 -1.82,7.27 -10.91,15.44 -21.81,15.44zm-162.63 1132.09c0,-5.47 -3.63,-9.09 -9.09,-7.27l0 18.16c7.27,-1.82 9.09,-7.27 9.09,-10.89zm-18.18 45.42l0 -58.14 7.27 -1.83c12.72,-3.62 19.97,2.74 19.97,11.82 0,7.27 -3.62,13.62 -9.07,17.26l15.44 19.99 -10.91 3.63 -8.17 -12.72 -1.82 -7.27 -3.63 0.92 0 23.63 -9.09 2.71zm24.53 -1458.27c-7.25,-127.19 51.79,-150.82 75.42,-231.68 -13.64,85.41 -67.23,109.02 -59.06,230.78 91.76,-153.54 92.68,-235.31 83.57,-288.95 24.55,54.53 12.74,148.11 -69.95,298.94 29.08,-5.43 52.71,3.63 62.7,25.45 -16.35,-12.73 -39.07,-16.36 -59.06,-7.27 37.25,8.17 55.43,22.71 69.97,45.42 5.45,-6.35 9.98,-17.26 9.98,-31.8 0,-23.63 -16.35,-41.78 -49.05,-49.05 54.51,-65.42 74.5,-138.1 74.5,-201.7 0,-101.77 -52.71,-145.39 -99.95,-145.39 -38.16,0 -61.78,22.73 -61.78,55.45 0,23.61 17.26,40.89 38.15,40.89 12.75,0 25.45,-1.83 32.72,-9.09 -19.97,1.8 -29.08,-10.01 -29.08,-21.83 0,-10.89 7.27,-21.79 21.81,-21.79 13.62,0 23.63,10.9 23.63,27.26 0,65.42 -89.05,119.93 -89.05,205.33 0,23.63 7.27,57.25 24.53,79.04zm126.29 40.89c0,21.81 -12.73,43.62 -25.45,54.51 -3.63,-23.61 -41.79,-54.51 -89.02,-61.78 -32.72,-25.42 -49.98,-72.69 -49.98,-112.65 0,-77.24 57.23,-115.39 83.57,-175.35 -9.07,5.45 -20.89,6.35 -29.98,6.35 -29.08,0 -52.69,-20.89 -52.69,-51.77 0,-38.17 30.9,-68.15 76.32,-68.15 54.53,0 112.65,47.24 112.65,158.09 0,56.33 -16.36,136.28 -69.03,196.25 29.06,7.27 43.6,30.88 43.6,54.5zm-179.89 1366.49c9.07,-1.8 16.34,-3.62 23.61,-5.43l0 9.09 -12.73 1.82 0 16.36 10.91 -3.64 0 9.07 -10.91 1.82 0 19.1c2.74,-0.92 9.09,-2.74 12.73,-4.55l0 9.09c-6.35,1.82 -17.26,4.55 -23.61,5.45l0 -58.17zm30.88 -119.92c-19.99,0 -42.7,11.82 -53.61,26.34 19.07,10.91 44.52,25.45 65.41,25.45 13.62,0 22.73,-9.09 22.73,-24.53 0,-16.36 -14.54,-27.26 -34.54,-27.26zm-55.43 132.66l-9.09 0.9 0 -9.09c6.35,0 21.81,-1.82 29.98,-3.63l0 9.99c0,0 -8.17,0.91 -9.99,0.91l0 48.16 -10.91 0.92 0 -48.16zm98.13 -268.95c61.78,0 142.64,36.35 215.32,36.35 -61.78,-19.07 -148.09,-67.25 -209.89,-67.25 -45.42,0 -112.65,27.26 -112.65,85.43 0,2.71 0.92,8.17 1.82,10.89 1.82,-21.81 16.36,-30.88 39.97,-30.88 39.99,0 96.32,55.43 171.74,55.43 29.98,0 61.78,-7.29 96.32,-23.63 -61.78,1.82 -129.93,5.45 -202.62,-34.54 34.52,14.54 89.05,21.81 127.2,21.81 10.91,0 64.52,-0.92 75.42,-2.74 -110.86,-7.27 -177.19,-54.51 -257.13,-41.78 12.71,-5.45 34.52,-9.09 54.51,-9.09zm251.68 -524.24c0,-11.82 1.82,-22.71 2.71,-30.9l-300.73 0c-1.82,26.35 -19.1,47.26 -64.52,50.9 5.45,248.94 89.04,366.14 189,422.47 94.49,52.71 219.87,75.42 317.98,124.48l0 -405.22c-123.56,-41.81 -144.45,-90.86 -144.45,-161.73zm-246.24 480.64c74.5,0 142.65,46.34 260.78,81.77 -52.71,43.61 -107.22,65.42 -159.91,65.42 -90.86,0 -149.01,-65.42 -184.44,-55.43 10.91,1.82 17.26,10.01 17.26,20.89 0,13.62 -11.8,21.81 -26.34,21.81 -18.18,0 -34.52,-13.62 -34.52,-37.25 0,-49.97 54.51,-97.21 127.17,-97.21zm-116.29 360.71l-9.09 -0.92 -7.27 -24.53 -3.61 -16.36 -1.82 0 3.64 21.81 0 17.26 -9.09 -1.82 0 -52.69 9.09 0.9 7.27 21.81 3.62 16.36 1.82 0 -3.64 -21.81 0 -16.36 9.09 0 0 56.35zm64.52 -886.77l302.57 0c1.8,-12.72 3.63,-25.45 3.63,-39.98 0,-17.26 -1.84,-35.43 -9.09,-53.61l21.79 -26.35c7.27,0.92 15.44,1.82 23.63,1.82 35.41,0 74.5,-9.98 99.93,-29.08l0 -225.33 -61.76 -87.21c-47.26,23.61 -99.95,34.52 -149.01,34.52 -81.79,0 -154.48,-37.25 -218.08,-95.4l-22.71 11.81c2.71,22.71 -4.54,44.52 -18.16,58.14 -15.46,15.46 -38.17,22.73 -60.9,18.18l-10.89 21.81c41.78,59.96 58.14,123.56 58.14,169 0,58.14 -21.79,143.55 -21.79,190.79 38.15,3.63 60.86,20.89 62.68,50.89zm-109.94 824.97l10.91 2.74 0 51.79c-5.45,-1.82 -8.19,-2.74 -10.91,-4.55l0 -49.97zm1068.47 -1063.04c0,76.34 23.63,123.58 23.63,201.72 -49.06,0 -63.6,14.54 -63.6,43.6 0,29.08 19.07,45.42 65.42,45.42 -7.27,275.3 -87.23,384.34 -196.25,447.94 -96.32,52.71 -216.24,71.78 -336.17,135.38 -119.94,-63.6 -239.87,-82.68 -336.18,-135.38 -109.04,-63.6 -189,-172.64 -196.27,-447.94 46.34,0 65.43,-16.34 65.43,-45.42 0,-29.06 -14.54,-43.6 -63.6,-43.6 0,-78.14 23.61,-125.38 23.61,-201.72 0,-43.6 -12.72,-107.2 -59.96,-170.8l19.99 -38.17c21.79,7.29 44.52,1.82 59.04,-12.7 12.73,-12.72 18.18,-33.61 11.83,-56.34l39.97 -21.79c65.42,61.78 139.02,98.13 216.26,98.13 38.15,0 94.48,-7.29 152.62,-39.98l67.25 92.66 67.21 -92.66c58.17,32.69 114.49,39.98 152.66,39.98 77.22,0 150.8,-36.35 216.24,-98.13l39.97 21.79c-6.35,22.73 -0.92,43.62 11.8,56.34 14.54,14.53 37.25,19.99 59.06,12.7l19.99 38.17c-47.26,63.6 -59.98,127.2 -59.98,170.8zm-1095.74 993.99c0,22.71 34.54,35.43 67.24,35.43 29.08,0 69.07,-9.09 99.03,-21.79 -23.61,6.35 -49.06,-4.55 -71.77,-17.28 -20.89,-11.81 -39.97,-20.89 -58.14,-20.89 -23.63,0 -36.35,12.72 -36.35,24.53zm258.96 -11.81c-76.34,34.52 -136.3,59.97 -191.73,59.97 -42.69,0 -59.94,-11.81 -70.87,-22.71l0 71.77c0,36.35 28.18,59.98 81.77,59.98 51.79,0 110.84,-24.55 197.16,-62.7 116.31,-51.79 203.54,-88.14 313.47,-88.14 109.92,0 197.15,36.35 313.46,88.14 86.31,38.15 145.37,62.7 197.16,62.7 53.61,0 81.76,-23.63 81.76,-59.98l0 -71.77c-10.91,10.91 -28.14,22.71 -70.87,22.71 -55.41,0 -115.39,-25.45 -191.69,-59.97 -92.68,-41.8 -236.25,-92.68 -329.82,-92.68 -93.6,0 -237.15,50.88 -329.81,92.68zm21.79 119.93c-86.31,38.17 -145.37,63.6 -202.62,63.6 -63.6,0 -96.32,-29.06 -96.32,-74.5l0 -86.3c0,-29.06 20.91,-48.16 56.35,-48.16 14.54,0 27.25,3.63 36.35,7.27 17.26,-19.99 40.86,-32.72 66.31,-32.72 29.06,0 49.06,14.54 49.06,39.99 0,14.54 -6.35,28.16 -19.99,34.52 30,-12.7 50.89,-22.69 83.59,-37.25 87.25,-39.07 232.6,-93.58 335.28,-93.58 102.65,0 248.02,54.51 335.25,93.58 32.72,14.56 53.61,24.55 83.6,37.25 -13.62,-6.35 -19.98,-19.97 -19.98,-34.52 0,-25.45 19.98,-39.99 49.06,-39.99 25.43,0 49.06,12.73 66.32,32.72 9.09,-3.64 21.81,-7.27 36.35,-7.27 35.43,0 56.33,19.1 56.33,48.16l0 86.3c0,45.44 -32.71,74.5 -96.29,74.5 -57.25,0 -116.31,-25.42 -202.64,-63.6 -110.84,-49.06 -198.06,-87.23 -307.98,-87.23 -109.93,0 -197.16,38.17 -308.02,87.23zm-238.03 -529.69c-41.83,56.33 -66.33,135.36 -75.42,194.43 -5.45,-66.31 18.16,-135.38 59.96,-198.96 -58.14,41.78 -90.86,105.38 -90.86,163.53 0,89.94 61.78,127.19 98.13,103.58 -23.63,7.27 -44.53,-9.09 -44.53,-38.17 0,-37.23 37.25,-67.24 37.25,-167.16 -1.82,81.76 32.72,110.84 74.5,110.84 19.99,0 39.97,-9.99 48.14,-18.18 -45.42,-17.26 -71.77,-65.41 -88.11,-150.8 -13.64,52.67 9.07,121.74 38.15,147.17 -38.15,-12.73 -61.78,-82.68 -57.22,-146.27zm-48.16 -599.66c-4.55,-46.34 -10.01,-88.13 -18.17,-119.02 -7.27,25.45 -9.09,67.23 -9.09,85.41 0,41.78 5.43,90.86 14.52,159.91 -16.34,-54.51 -29.06,-118.13 -29.06,-159.91 0,-30.88 3.64,-72.69 9.09,-90.86 -25.45,30.9 -36.33,70.87 -36.33,113.57 0,66.34 38.15,128.12 36.33,195.35 52.69,-45.42 78.14,-101.77 78.14,-165.36 0,-45.42 -18.18,-83.57 -50.89,-138.1 7.27,27.26 17.27,89.94 18.19,119.02 0.9,26.34 -1.84,64.52 -5.47,82.67 -1.82,-28.16 -4.53,-56.33 -7.25,-82.67zm178.99 742.3c-10.91,25.45 -42.73,39.99 -71.79,39.99 -30.9,0 -61.78,-16.36 -72.69,-39.99 -5.45,30.9 -25.45,61.78 -25.45,80.88 0,6.35 0,9.98 3.66,13.62 1.8,-7.27 9.07,-16.36 23.61,-16.36 12.72,0 25.42,10.9 25.42,25.45 0,19.99 -16.34,36.33 -43.6,36.33 -45.42,0 -90.86,-39.05 -90.86,-123.56 0,-72.69 38.17,-136.29 141.73,-208.97 25.45,78.14 26.37,170.81 109.96,192.61zm-178.99 -895.84c0,43.6 59.97,79.96 59.97,172.61 0,83.59 -49.08,159.91 -112.68,192.63 3.63,-9.11 5.45,-19.99 5.45,-29.09 0,-63.6 -36.33,-127.19 -36.33,-193.53 0,-64.52 29.06,-126.28 85.39,-153.54 -1.8,3.63 -1.8,7.27 -1.8,10.91zm7.25 550.59c-50.88,54.51 -87.22,119.92 -103.58,216.24 1.84,-105.38 41.81,-171.72 91.78,-227.15 -83.59,44.52 -120.84,114.49 -120.84,189 0,45.42 16.36,78.14 30.9,94.49 18.16,-38.17 43.6,-72.7 65.41,-96.31 27.25,-34.54 54.51,-67.24 54.51,-136.29 0,-11.82 0,-17.27 -1.82,-38.17 -15.44,69.97 -49.06,132.65 -89.02,178.07 29.06,-58.14 59.04,-112.65 72.66,-179.88zm34.54 39.98c0,70.87 -27.26,109.02 -59.96,145.37 -23.63,27.25 -50.88,56.33 -69.05,109.94 -29.08,-15.44 -52.69,-60.88 -52.69,-117.21 0,-74.5 30.88,-123.58 63.58,-154.46 38.17,-36.35 79.96,-49.08 99.95,-83.6 10.9,23.61 18.18,69.05 18.18,99.95zm-12.73 -655.09c-10.9,-0.9 -40.89,-1.82 -67.23,14.54 -39.99,25.43 -74.5,49.06 -99.04,19.07 26.35,19.99 52.69,-4.55 94.48,-30.9 21.81,-13.62 54.53,-14.52 70.89,-14.52 -30,-15.46 -65.43,-40.91 -83.59,-62.7 28.16,17.26 58.14,37.25 89.94,53.61 -19.99,-29.98 -59.96,-67.23 -107.22,-96.32 41.81,11.81 89.05,54.51 118.13,89.05 -10.01,-39.07 -17.26,-88.14 -13.62,-128.12 6.35,42.7 16.36,88.15 27.25,124.48 13.62,-77.24 4.55,-139.92 -8.17,-187.18 28.17,43.62 31.8,108.14 21.79,189.89 12.72,-18.16 28.16,-60.86 28.16,-99.03 0,-66.32 -25.42,-109.94 -65.41,-126.3 -2.72,-0.9 -7.25,-2.71 -9.99,-2.71 1.82,5.45 2.74,13.64 2.74,20.89 0,34.54 -25.45,55.43 -25.45,108.12 0,14.54 0.9,27.26 4.53,38.17 -29.08,-39.99 -61.78,-49.08 -87.22,-49.08 -9.07,0 -15.44,0.92 -23.61,2.74 -1.82,29.06 10.91,79.04 76.32,106.3 -58.14,9.09 -58.14,45.44 -85.41,45.44 -10.91,0 -19.99,-8.19 -19.99,-19.99 0,-10.01 8.19,-17.28 19.07,-15.46 -5.43,-1.82 -9.09,-1.82 -11.81,-1.82 -25.45,0 -39.97,24.53 -39.97,46.34 0,27.26 21.79,47.24 52.69,47.24 49.05,0 94.5,-49.97 141.73,-71.77zm-163.55 436.12c0,-14.54 9.09,-25.45 22.71,-25.45 6.37,0 10.01,1.82 13.64,4.55 -3.63,-6.37 -11.82,-8.17 -18.17,-8.17 -29.98,0 -54.53,30.88 -54.53,73.58 0,50.88 38.17,89.05 89.06,89.05 65.42,0 99.93,-50.89 107.2,-114.47 -18.18,39.97 -52.69,78.12 -106.3,78.12 -31.79,0 -55.41,-21.81 -64.52,-50.87 14.54,25.42 34.54,36.33 64.52,36.33 42.71,0 81.78,-37.24 95.4,-79.94 -27.27,25.43 -54.51,41.78 -94.5,41.78 -34.52,0 -54.51,-19.99 -54.51,-44.52zm-45.42 -411.58c0,-38.16 29.06,-58.14 54.51,-58.14 20.89,0 31.8,11.8 32.72,26.34 9.09,-9.09 19.07,-19.07 34.52,-24.53 -39.97,-21.81 -65.42,-68.15 -58.14,-113.57 3.63,-1.82 16.35,-5.46 38.15,-5.46 21.81,0 49.07,8.19 67.25,22.71 0,-56.33 26.34,-70.87 26.34,-112.65 0,-10.01 -1.82,-20.9 -4.55,-30.9 48.16,0.92 103.59,50.88 103.59,143.56 0,45.44 -18.18,98.13 -47.24,130.83 -58.17,0 -109.04,81.77 -179.91,81.77 -38.17,0 -67.24,-25.43 -67.24,-59.96zm218.06 417.94c0,94.5 -58.15,141.76 -119.93,141.76 -58.14,0 -103.58,-41.81 -103.58,-103.59 0,-49.05 30.88,-87.22 69.05,-85.41 21.81,0.92 35.43,13.62 35.43,31.8 0,13.62 -9.98,25.45 -23.63,25.45 -7.27,0 -10.9,-1.82 -12.7,-4.54 6.35,16.34 28.17,18.16 37.24,18.16 43.62,0 89.04,-29.09 112.67,-79.96 3.64,16.35 5.46,34.52 5.46,56.33z"/>
  <path class="fil0" d="M6391.57 746.51c8.48,0.78 21.6,1.17 33.17,1.17 30.1,0 59.4,-17.37 59.4,-70.59 0,-50.16 -32.4,-70.6 -71.75,-70.6l-20.81 0 0 140.02zm31.62 -163.92c58.27,0 95.65,32.01 95.65,88.71 0,63.64 -48.22,100.28 -111.07,100.28l-50.13 0 0 -188.99 65.55 0zm-218.68 32.01l-28.14 80.6 56.7 0 -28.55 -80.6zm37.43 105.31l-74.08 0 -18.12 51.67 -33.56 0 72.9 -188.21 35.1 -4.63 72.1 192.84 -35.84 0 -18.5 -51.67zm-292.9 26.6c8.48,0.78 21.6,1.17 33.17,1.17 30.08,0 59.4,-17.37 59.4,-70.59 0,-50.16 -32.39,-70.6 -71.75,-70.6l-20.81 0 0 140.02zm31.62 -163.92c58.24,0 95.65,32.01 95.65,88.71 0,63.64 -48.22,100.28 -111.07,100.28l-50.15 0 0 -188.99 65.57 0zm-147.85 188.99l-33.93 0 0 -188.99 33.93 0 0 188.99zm-234.77 -140.78c0,-29.32 28.93,-52.07 69.81,-52.07 22.75,0 43.96,3.09 57.46,7.33l-6.18 27.38c-18.14,-6.57 -38.17,-10.81 -60.15,-10.81 -17.36,0 -29.69,8.11 -29.69,23.14 0,15.05 11.16,23.53 41.63,35.5 48.22,18.9 58.24,33.16 58.24,57.85 0,33.56 -31.24,57.09 -79.84,57.09 -19.66,0 -41.26,-3.87 -55.53,-8.11l6.55 -28.53c18.9,7.33 40.11,11.94 64.4,11.94 16.59,0 32.03,-8.46 32.03,-23.51 0,-16.2 -8.48,-26.23 -43.58,-39.73 -38.95,-15.05 -55.15,-28.14 -55.15,-57.46zm-110.74 9.26c0,-22.38 -12.73,-34.73 -41.26,-34.73 -6.95,0 -13.5,0 -19.68,0.39l0 64.03c7.72,0.78 15.81,1.15 25.06,1.15 18.53,0 35.88,-8.09 35.88,-30.84zm-60.94 53.22l0 78.29 -33.95 0 0 -188.99 64.81 0c40.89,0 64.79,16.2 64.79,47.82 0,25.84 -14.66,43.58 -34.32,53.61l49.74 87.56 -38.17 0 -39.73 -79.07c-5.4,0.78 -10.79,1.15 -15.81,1.15 -4.24,0 -10.79,-0.37 -17.36,-0.37zm-223.71 -110.7l118.4 0 -3.09 25.07c-26.99,-0.39 -54.37,-0.78 -81.38,-1.17l0 56.33 75.21 0 -3.46 22.75 -71.75 -1.16 0 62.49 89.89 -1.17 -3.11 25.86 -120.71 0 0 -188.99zm-237.55 1.93l34.71 -5.78 54.37 156.59 52.85 -152.74 34.32 0 -72.12 187.45 -33.16 5.39 -70.97 -190.91zm-60.97 187.06l-33.95 0 0 -188.99 33.95 0 0 188.99zm-145.1 3.85l-101.05 -144.63 0 140.78 -30.86 0 0 -188.99 33.93 0 96.06 139.99 0 -139.99 30.45 0 0 187.06 -28.53 5.78zm-364.15 -192.84l33.56 0 0 117.25c0,36.25 18.12,49.37 51.29,49.37 21.22,0 36.25,-12.73 36.25,-40.11l0 -126.51 32.39 0 0 119.18c0,47.43 -27.36,73.66 -80.21,73.66 -45.52,0 -73.27,-21.6 -73.27,-65.18l0 -127.66z"/>
  <path class="fil0" d="M7067.7 950.91l64.23 0 0 310.89 156.18 -2.21 -6.59 48.9 -213.82 0 0 -357.58zm-269.22 60.56l-53.26 152.53 107.26 0 -54 -152.53zm70.81 199.23l-140.13 0 -34.3 97.78 -63.48 0 137.92 -356.12 66.39 -8.75 136.48 364.87 -67.86 0 -35.02 -97.78zm-387.47 105.09l-191.19 -273.68 0 266.37 -58.4 0 0 -357.58 64.24 0 181.71 264.9 0 -264.9 57.66 0 0 353.95 -54.02 10.94zm-549.14 -324.75c-56.19,0 -101.43,35.75 -101.43,129.17 0,106.54 49.62,148.87 121.86,148.87 56.93,0 102.18,-35.02 102.18,-129.91 0,-105.82 -50.37,-148.13 -122.6,-148.13zm-4.38 324.75c-96.33,0 -163.47,-64.95 -163.47,-178.81 0,-121.86 80.27,-193.37 193.39,-193.37 96.33,0 163.47,65.67 163.47,179.51 0,121.16 -80.29,192.67 -193.39,192.67zm-275.32 -7.31l-64.22 0 0 -357.58 64.22 0 0 357.58zm-166.91 -18.24c-26.27,14.6 -74.44,25.55 -114.59,25.55 -102.89,0 -178.05,-62.03 -178.05,-182.45 0,-111.66 74.43,-189.73 189.74,-189.73 44.52,0 83.18,7.29 99.97,15.32l-15.31 50.34c-23.35,-8.03 -60.59,-18.23 -103.64,-18.23 -51.07,0 -104.37,30.64 -104.37,132.83 0,108 67.9,143.02 130.66,143.02 32.83,0 66.41,-9.5 82.45,-18.98l13.14 42.33zm-524.95 -278.78l-53.27 152.53 107.28 0 -54.01 -152.53zm70.79 199.23l-140.12 0 -34.3 97.78 -63.5 0 137.94 -356.12 66.42 -8.75 136.46 364.87 -67.86 0 -35.04 -97.78zm-387.43 105.09l-191.2 -273.68 0 266.37 -58.38 0 0 -357.58 64.2 0 181.72 264.9 0 -264.9 57.64 0 0 353.95 -53.98 10.94z"/>
  <path class="fil0" d="M4623.87 1491.22l118.42 0 -3.1 25.07c-26.99,-0.39 -54.38,-0.78 -81.37,-1.15l0 56.29 75.21 0 -3.48 22.77 -71.73 -1.17 0 62.5 89.85 -1.15 -3.07 25.82 -120.73 0 0 -188.97zm-195.04 163.92c8.5,0.76 21.6,1.15 33.17,1.15 30.08,0 59.39,-17.35 59.39,-70.57 0,-50.13 -32.38,-70.58 -71.74,-70.58l-20.81 0 0 139.99zm31.62 -163.92c58.24,0 95.65,32.01 95.65,88.71 0,63.64 -48.22,100.27 -111.07,100.27l-50.15 0 0 -188.97 65.57 0z"/>
  <path class="fil0" d="M6456.47 1523.24l-28.14 80.62 56.68 0 -28.53 -80.62zm37.41 105.29l-74.06 0 -18.12 51.68 -33.56 0 72.9 -188.22 35.09 -4.61 72.14 192.83 -35.88 0 -18.51 -51.68zm-184.79 51.68l-33.93 0 0 -188.97 33.93 0 0 188.97zm-134.86 -52.07c0,-21.97 -17.75,-33.93 -47.84,-33.93 -6.55,0 -15.42,0.37 -23.53,0.37l0 61.34c10.42,0.39 23.14,0.78 35.12,0.78 20.03,0 36.25,-6.94 36.25,-28.55zm-12.74 -82.15c0,-20.05 -10.81,-31.62 -42.8,-31.62 -3.87,0 -10.03,0 -15.83,0.37l0 58.64c6.95,0 14.27,0.39 20.07,0.39 29.3,0 38.56,-11.18 38.56,-27.77zm-92.56 -54.76l61.33 0c41.26,0 64.01,16.2 64.01,44.74 0,21.2 -13.48,35.47 -30.47,44.34 21.22,3.48 44.37,15.81 44.37,43.98 0,33.94 -31.25,55.92 -84.08,55.92l-55.16 0 0 -188.97zm-258.45 42.8l-13.88 146.18 -31.62 0 23.53 -188.97 35.86 0 58.64 150.8 56.7 -150.8 35.84 0 22.76 188.97 -33.19 0 -14.64 -146.55 -53.24 141.15 -1.52 0 0 0.39 -29.32 4.63 -55.93 -145.81zm-201.19 -21.6c-29.69,0 -53.61,18.9 -53.61,68.27 0,56.3 26.23,78.69 64.42,78.69 30.08,0 54,-18.51 54,-68.66 0,-55.91 -26.62,-78.29 -64.81,-78.29zm-2.3 171.64c-50.94,0 -86.41,-34.32 -86.41,-94.5 0,-64.42 42.43,-102.19 102.2,-102.19 50.94,0 86.4,34.71 86.4,94.86 0,64.03 -42.43,101.83 -102.19,101.83zm-246.67 -192.84l33.93 0 0 164.31 82.55 -1.17 -3.5 25.84 -112.99 0 0 -188.97zm-168.08 21.2c-29.69,0 -53.61,18.9 -53.61,68.27 0,56.3 26.25,78.69 64.42,78.69 30.08,0 54,-18.51 54,-68.66 0,-55.91 -26.62,-78.29 -64.81,-78.29zm-2.31 171.64c-50.91,0 -86.38,-34.32 -86.38,-94.5 0,-64.42 42.41,-102.19 102.19,-102.19 50.91,0 86.39,34.71 86.39,94.86 0,64.03 -42.41,101.83 -102.2,101.83zm-132.98 -13.51c-13.89,7.72 -39.34,13.51 -60.56,13.51 -54.37,0 -94.09,-32.79 -94.09,-96.43 0,-59 39.32,-100.26 100.27,-100.26 23.53,0 43.97,3.85 52.83,8.09l-8.09 26.62c-12.35,-4.24 -32.02,-9.66 -54.76,-9.66 -27.01,0 -55.17,16.2 -55.17,70.2 0,57.07 35.88,75.6 69.05,75.6 17.35,0 35.1,-5.02 43.58,-10.02l6.95 22.35z"/>
  <path class="fil0" d="M2253.89 0l19.68 0 0 1992.67c-6.41,0.33 -12.31,0.61 -17.98,0.88 -3.85,-12.64 -5.41,-1959.83 -1.7,-1993.55z"/>
  <path class="fil0" d="M816.44 1533.01c-2.19,4.89 -4.5,9.75 -6.55,14.71 -15.77,38.37 -32.11,76.52 -46.91,115.27 -5.06,13.24 -12.45,20.21 -26.27,20.89 -2.75,0.16 -5.49,0.83 -10.16,1.53 -15.87,-50.66 -28.05,-102.61 -43.47,-153.55 -1.11,0.2 -2.23,0.39 -3.36,0.57 -7.41,50.75 -14.81,101.51 -22.36,153.17l-28.73 0c11.87,-69.17 23.57,-137.38 35.38,-206.14l33.44 0c14.97,53.1 30.12,106.81 45.26,160.5 0.96,0.14 1.92,0.29 2.88,0.45 22.22,-53.38 44.4,-106.74 66.9,-160.75l32.52 0c2.21,68.37 4.42,136.44 6.66,205.8l-28.3 0c-0.63,-5.81 -1.88,-12.16 -1.92,-18.51 -0.16,-44.33 -0.08,-88.65 -0.08,-132.98 -1.66,-0.31 -3.3,-0.64 -4.94,-0.98z"/>
  <path class="fil0" d="M376.76 1560.64c-5.87,-1.91 -9.97,-3.71 -14.25,-4.57 -24.39,-4.93 -37.1,2.52 -43.98,26.64 -5.72,20.13 -7.21,40.79 -3.63,61.53 0.82,4.8 2.78,9.73 5.37,13.89 4.2,6.68 11.67,8.78 17.51,4.24 16.14,-12.5 29.77,-28.12 34.32,-48.22 3.79,-16.73 3.16,-34.44 4.65,-53.51zm18.64 124.99l-21.99 0c-0.86,-9.73 -1.68,-18.94 -2.74,-30.78 -4.08,4.04 -6.45,6.65 -9.07,8.93 -8.38,7.33 -15.97,16.13 -25.46,21.48 -19.72,11.1 -39.83,3.21 -47.73,-17.94 -3.09,-8.27 -4.77,-17.36 -5.51,-26.19 -2.6,-31.24 3.6,-60.42 23.65,-85.31 15.85,-19.7 35.59,-30.59 61.92,-23.59 2.66,0.72 5.51,0.72 9.85,1.23 2.07,-25.8 4.12,-51.22 6.22,-77.18 9.11,-1.82 17.2,-3.44 25.25,-5.04 3.09,11.76 -9.3,213.93 -14.38,234.39z"/>
  <path class="fil0" d="M139.92 1484.97c-2.5,8.99 -4.71,16.95 -7.31,26.25 -11.4,-2.64 -21.99,-5.63 -32.76,-7.42 -9.32,-1.53 -18.88,-2.11 -28.34,-2.33 -11.06,-0.25 -19.74,4.53 -24.02,15.05 -4.61,11.4 -3.12,22.61 5.77,31.07 6.37,6.06 14.37,10.61 22.12,14.95 9.27,5.16 19.33,8.89 28.6,14.09 33.36,18.76 39.85,58.16 13.64,86.29 -7.06,7.56 -16.32,13.97 -25.74,18.27 -29.59,13.47 -59.75,10.65 -91.88,0.8 2.71,-9.77 5.16,-18.63 7.97,-28.69 6.45,1.74 11.73,2.89 16.83,4.59 15.61,5.2 31.6,7.19 48,6.33 12.25,-0.64 21.85,-5.86 26.23,-17.59 4.65,-12.47 3.19,-24.86 -6.98,-34.04 -6.94,-6.28 -15.52,-10.89 -23.75,-15.56 -9.22,-5.24 -19.04,-9.46 -28.35,-14.54 -35.5,-19.35 -30.35,-63.58 -10.69,-83.75 13.19,-13.52 29.43,-19.95 47.71,-22.32 15.42,-1.98 44.44,1.8 62.95,8.54z"/>
  <path class="fil0" d="M977.07 1557.7c-4.61,-1.47 -7.72,-2.58 -10.91,-3.42 -19.96,-5.3 -31.25,-0.53 -39.38,18.08 -10.6,24.33 -12.24,50.01 -7.57,75.79 1.02,5.69 6.22,12.42 11.36,15.13 6.94,3.67 12.33,-2.91 16.73,-8.05 16.65,-19.53 30.19,-40.24 28.32,-67.76 -0.62,-9.39 0.86,-18.9 1.45,-29.77zm29.8 -17.24c-3.42,49.12 -6.72,96.52 -10.08,144.85l-23.82 0c-0.66,-9.95 -1.27,-19.24 -2.09,-31.29 -4.44,4.34 -7.17,7.33 -10.2,9.94 -8.85,7.62 -16.95,16.65 -26.94,22.3 -14.91,8.4 -30.31,2.87 -38.44,-12.35 -3.36,-6.29 -6.02,-13.48 -6.92,-20.54 -3.05,-23.59 -2.07,-46.94 6.12,-69.71 16.38,-45.46 46.83,-61.99 93.4,-50.09 5.88,1.48 11.45,4.12 18.98,6.9z"/>
  <path class="fil0" d="M1474.43 1558.74c-31.68,-12.32 -46.42,-6.16 -54.24,24.25 -4.28,16.59 -5.27,34.22 -6.1,51.46 -0.35,7.42 2.44,15.52 5.63,22.47 3.77,8.21 12.39,10.6 17.79,4.14 11.76,-14.05 25.62,-28.28 31.41,-44.93 6.18,-17.82 4.04,-38.5 5.51,-57.4zm-7.07 99.05c-9.03,7.79 -17.22,15.56 -26.09,22.38 -22.79,17.53 -46.03,10.83 -53.41,-16.65 -10.3,-38.27 -4.22,-74.78 18.23,-107.63 13.84,-20.23 34.09,-28.59 58.48,-25.55 13.21,1.64 26.7,2.93 39.32,11.18 -3.36,47.4 -6.7,94.83 -10.16,143.5l-23.65 0c-0.94,-9.34 -1.89,-19.04 -2.71,-27.22z"/>
  <path class="fil0" d="M1146.8 1686.04l-25.7 0c0,-7.42 -0.55,-14.5 0.08,-21.48 2.29,-25.11 5.22,-50.19 7.33,-75.32 0.6,-7.15 0.18,-14.65 -1.29,-21.67 -2.19,-10.49 -10.48,-14.3 -18.76,-7.74 -16.89,13.37 -31.76,28.89 -33.98,51.89 -2.03,21.21 -3.09,42.51 -4.64,63.77 -0.19,2.8 -0.6,5.55 -1.07,9.76l-28.18 0c3.36,-49.43 6.73,-98.88 10.17,-149.79 7.82,-1.56 15.19,-3.05 24.49,-4.93 0.73,11.59 1.33,21.42 2.15,34.58 4.93,-5.34 8.11,-8.64 11.14,-12.1 8.62,-9.85 18.14,-18.28 31.29,-21.62 20.05,-5.08 35.65,3.95 37.64,24.39 1.61,16.61 0.61,33.6 -0.64,50.3 -1.72,22.93 -4.71,45.73 -7.29,68.58 -0.37,3.29 -1.52,6.49 -2.71,11.37z"/>
  <path class="fil0" d="M1647.44 1596.99l4.2 4.08c8.95,-3.91 18.53,-6.88 26.66,-12.08 5.2,-3.32 8.93,-9.58 12.19,-15.19 3.42,-5.88 2.5,-13.11 -3.25,-16.36 -4.67,-2.64 -11.82,-3.48 -16.96,-1.97 -4.65,1.37 -9.56,6.25 -11.72,10.85 -4.61,9.79 -7.51,20.4 -11.12,30.66zm-1.97 25.99c1.23,8.2 1.6,17.18 4.01,25.56 4.81,16.73 16.71,22.3 32.31,14.81 9.38,-4.52 17.78,-11.1 27.67,-17.43 3.52,5.32 6.78,10.26 10.18,15.42 -13.07,13.41 -27.22,22.96 -44.62,27.2 -24.53,5.96 -47.82,-5.55 -54.49,-29.67 -10.79,-38.97 -3.8,-75.58 20.87,-107.88 11.61,-15.17 28.22,-21.93 47.28,-20.91 27.46,1.47 40.36,23.69 28.93,48.88 -5.61,12.35 -15.36,20.91 -27.17,26.43 -13.6,6.33 -27.94,11.04 -44.97,17.59z"/>
  <path class="fil0" d="M466.28 1599.79c18.29,-2.15 31.92,-7.1 40.9,-20.54 5.73,-8.54 4.71,-18.33 -1.37,-22.77 -6.98,-5.12 -17.59,-3.81 -24.16,3.72 -3.22,3.71 -5.98,8.2 -7.66,12.82 -2.83,7.8 -4.67,15.97 -7.72,26.78zm-1.82 23.53c1.72,9.52 2.27,19.75 5.57,28.99 4.77,13.37 15.19,17.65 28.3,11.78 10.05,-4.49 19.14,-11.17 30.06,-17.75 3.17,4.54 6.51,9.3 10.16,14.54 -13.46,15.01 -28.9,24.63 -47.51,28.4 -25.29,5.12 -48.43,-9.85 -53.41,-36.69 -6.33,-34.16 -1.62,-67.21 18.65,-96.51 13.13,-19 31.72,-28.36 54.96,-25.6 24.25,2.85 35.22,22.34 26.61,45.42 -5,13.41 -14.81,22.71 -27.11,28.67 -13.95,6.76 -28.81,11.77 -46.28,18.74z"/>
  <path class="fil0" d="M189.64 1600.36c18.95,-3.15 32.89,-7.78 41.57,-21.71 5.1,-8.13 4.36,-16.96 -0.96,-21.5 -6.51,-5.59 -17.41,-4.81 -24.23,2.33 -3.01,3.15 -5.69,7.09 -7.17,11.16 -3.22,8.72 -5.57,17.77 -9.2,29.73zm62.85 45.83c3.22,5.02 6.18,9.57 9.6,14.89 -13.52,15.11 -29.43,25 -48.69,28.44 -25.31,4.52 -47.84,-11.26 -52.4,-38.25 -5.59,-33.01 -1.17,-65.01 17.81,-93.54 13.52,-20.35 32.8,-30.49 57.46,-26.99 22.63,3.22 33.05,21.4 25.96,43.29 -4.42,13.64 -13.78,23.37 -26.09,29.45 -14.44,7.14 -29.71,12.57 -46.32,19.45 -1.17,8.78 -0.76,19.19 3.54,29.16 5.72,13.25 15.26,17.9 28.38,12.12 10.08,-4.45 19.21,-11.12 30.76,-18.02z"/>
  <path class="fil0" d="M1253.38 1685.77c-2.85,-13.94 1.19,-23.69 8.13,-33.27 19.04,-26.32 37.48,-53.06 56.11,-79.68 3.11,-4.46 5.96,-9.09 10.53,-16.13l-63.73 0c1,-8.79 1.78,-15.56 2.6,-22.77l96.86 0c1.8,12.55 -0.37,22.61 -7.52,32.31 -19.29,26.15 -37.92,52.77 -56.76,79.23 -3.2,4.54 -6.17,9.23 -11.06,16.54 24.57,1.88 47.16,-0.16 71.36,1.45 -1.1,7.93 -2.06,14.75 -3.09,22.32l-103.43 0z"/>
  <path class="fil0" d="M1736.06 1680.92c1.74,-8.2 3.44,-16.12 5.24,-24.57 12.1,3.3 22.75,6.51 33.56,9.01 4.8,1.11 10.1,1.74 14.91,0.96 12.32,-1.99 17.53,-13.23 11.09,-24 -2.8,-4.69 -6.98,-8.74 -11.1,-12.43 -7.93,-7.11 -16.2,-13.82 -24.41,-20.6 -15.17,-12.51 -19.06,-29 -14.43,-47 4.67,-18.1 18.69,-26.91 36.32,-30.84 17.1,-3.81 33.09,0.55 50.79,5.28 -1.91,8.42 -3.57,15.77 -5.63,24.88 -7.31,-2.01 -13.48,-3.85 -19.74,-5.43 -4.34,-1.07 -8.75,-1.88 -13.13,-2.74 -8.29,-1.6 -16.17,-0.69 -20.64,7.21 -4.53,7.93 -1.5,15.42 4.73,21.16 10.28,9.48 21.01,18.49 31.6,27.63 9.25,8.02 15.4,17.42 15.77,30.24 0.76,26.38 -18.35,47.77 -46.26,50.11 -16.32,1.39 -32.17,-1.55 -48.66,-8.88z"/>
  <path class="fil0" d="M1553.84 1456.09c9.6,-1.8 17.73,-3.32 27.17,-5.1 0,8.95 0.47,16.65 -0.08,24.28 -3.89,53.61 -7.98,107.2 -12,160.79 -0.08,1.11 -0.12,2.23 -0.18,3.34 -1.37,26.91 0.37,28.26 25.79,18.66 1.61,5.26 3.19,10.42 5.24,17.12 -8.54,4.28 -16.13,8.9 -24.28,12.04 -19.64,7.62 -35.2,-2.43 -35.51,-23.59 -0.21,-16.75 1.33,-33.56 2.44,-50.31 3.13,-46.93 6.41,-93.83 9.7,-140.76 0.33,-4.96 1.02,-9.93 1.7,-16.48z"/>
  <path class="fil0" d="M1220.41 1686.02l-28.28 0c3.52,-50.38 7,-99.75 10.58,-150.66 9.02,-1.61 17.63,-3.11 28.71,-5.06 -3.7,52.55 -7.31,103.49 -11,155.73z"/>
  <path class="fil0" d="M1238.26 1477.12c-0.08,7.48 -10.81,19.62 -17.69,19.99 -7.7,0.39 -17.14,-9.58 -16.63,-17.59 0.53,-8.43 10.91,-19.17 18.27,-18.96 7.45,0.23 16.11,9.16 16.05,16.55z"/>
 </g>
</svg>
