<svg xmlns="http://www.w3.org/2000/svg" viewBox="0 0 22.51 32.06"><defs><style>.cls-1{fill:none;stroke:#b4d1cd;stroke-linecap:round;stroke-linejoin:round;stroke-width:1.5px;}</style></defs><g id="Capa_2" data-name="Capa 2"><g id="Capa_1-2" data-name="Capa 1"><g id="_8q6cl5" data-name="8q6cl5"><path class="cls-1" d="M10.36.75h1.79l.29.06a22.74,22.74,0,0,1,2.34.55,10.68,10.68,0,0,1,7,9.56,11.1,11.1,0,0,1-1.43,5.8Q16.69,23.35,13.07,30a2.31,2.31,0,0,1-1.52,1.31H10.9a2.22,2.22,0,0,1-1.33-1.07Q5.85,23.4,2.11,16.57a10.79,10.79,0,0,1-1.35-4.8A10.45,10.45,0,0,1,2.2,6,10.17,10.17,0,0,1,8.58,1.1C9.17,1,9.77.87,10.36.75ZM11.26,6a4.3,4.3,0,1,0,4.29,4.32A4.3,4.3,0,0,0,11.26,6Z"/></g></g></g></svg>