<svg xmlns="http://www.w3.org/2000/svg" viewBox="0 0 32.5 32.5"><defs><style>.cls-1{fill:none;stroke:#698595;stroke-linecap:round;stroke-linejoin:round;stroke-width:1.5px;}</style></defs><g id="Capa_2" data-name="Capa 2"><g id="Capa_1-2" data-name="Capa 1"><g id="xUrbPk"><path class="cls-1" d="M31.75,4.88C30.67,7.1,29.14,8,27.3,7.32a7.79,7.79,0,0,1-1.12-.55l-5.42,5.41a4.58,4.58,0,0,1-.08,5.42c1.36,1.36,2.65,2.69,4,4a1.07,1.07,0,0,0,.82.12,2.28,2.28,0,0,1,2.61,1.15,2.24,2.24,0,0,1-3,3A2.32,2.32,0,0,1,24,23.19a1.05,1.05,0,0,0-.12-.81c-1.28-1.33-2.61-2.63-3.87-3.9-.67.27-1.26.46-1.8.74a.91.91,0,0,0-.47.64c0,1.69,0,3.37,0,5.11a3.56,3.56,0,0,1,2.73,2.78c.31,1.75-.4,2.87-2.49,4H16.25l-.88-.49c-2-1.23-2.31-4.38-.26-5.51,1.39-.76,1.47-1.69,1.39-2.93a8.27,8.27,0,0,1,0-1.65c.17-1.22-.09-2-1.47-2.39a1.12,1.12,0,0,0-1.37.29c-1.95,2-3.92,4-5.91,5.9a1.19,1.19,0,0,0-.39,1.41,3.29,3.29,0,0,1-1.84,3.93,3.37,3.37,0,0,1-4.13-1.12A11.82,11.82,0,0,1,.75,28V26.38c.74-1.5,1.77-2.65,3.62-2.47a10.77,10.77,0,0,1,2,.62l7.05-7a4.63,4.63,0,0,1,.1-5.44c-1.35-1.34-2.64-2.68-4-3.94C9.32,7.9,8.79,8,8.43,8a2.28,2.28,0,0,1-2.5-1.54A2.28,2.28,0,0,1,7.21,3.75a2.18,2.18,0,0,1,2.82,1,2.21,2.21,0,0,1,.19,1.48c-.22.69.1,1,.5,1.41,1.2,1.18,2.38,2.37,3.59,3.58a4.76,4.76,0,0,1,5.56,0C21.62,9.51,23.37,7.78,25.1,6a.86.86,0,0,0,.13-.62c-.48-2.49,0-3.49,2.39-4.64h1.44a4.09,4.09,0,0,1,2.69,2.69Zm-14.63,6.6a3.36,3.36,0,1,0,3.34,3.36A3.34,3.34,0,0,0,17.12,11.48Zm2.22,16.91a2.25,2.25,0,0,0-4.5-.1,2.25,2.25,0,1,0,4.5.1Zm9.07-22a2.23,2.23,0,0,0,0-4.46,2.19,2.19,0,0,0-2.23,2.3A2.19,2.19,0,0,0,28.41,6.36Zm-22,20.86A2.27,2.27,0,0,0,4.14,25a2.31,2.31,0,0,0-2.25,2.34,2.24,2.24,0,0,0,4.47-.09ZM9.36,6V5.57C8.92,5.28,8.51,4.8,8,4.74A1,1,0,0,0,7,5.85C7,6.53,7.44,7,8.09,6.9,8.56,6.81,8.94,6.33,9.36,6ZM25.71,25.09l.48.06c.34-.39.84-.72,1-1.16.2-.66-.24-1.12-.92-1.21a1,1,0,0,0-1.21.94C25,24.18,25.47,24.63,25.71,25.09Z"/></g></g></g></svg>