<svg xmlns="http://www.w3.org/2000/svg" viewBox="0 0 29.14 31.54"><defs><style>.cls-1{fill:none;stroke:#b4d1cd;stroke-linecap:round;stroke-linejoin:round;stroke-width:1.5px;}</style></defs><g id="Capa_2" data-name="Capa 2"><g id="Capa_1-2" data-name="Capa 1"><g id="tzxEpI"><path class="cls-1" d="M14.08,30.79c-.25-.06-.51-.11-.76-.18a4.76,4.76,0,0,1-3.5-4c0-.15-.06-.19-.21-.19H8A.42.42,0,0,1,7.53,26,.44.44,0,0,1,8,25.55H25.66a1.72,1.72,0,1,0,.19-3.43H3.51a1.72,1.72,0,1,0-.19,3.44c.93,0,1.86,0,2.79,0a.46.46,0,0,1,.51.38.42.42,0,0,1-.42.51c-1,0-2.06,0-3.1,0A2.58,2.58,0,0,1,.75,23.77a2.61,2.61,0,0,1,2.42-2.54A1.66,1.66,0,0,0,5,19.72a13.1,13.1,0,0,0,.29-2.86c0-1.25,0-2.5.06-3.76a16.91,16.91,0,0,1,.74-4.84A7.16,7.16,0,0,1,9.49,4a8.11,8.11,0,0,1,2.13-.77c.2,0,.29-.11.33-.33A2.65,2.65,0,0,1,14.12.79l.1,0h.7a6.9,6.9,0,0,1,.9.33A2.5,2.5,0,0,1,17.16,3a.33.33,0,0,0,.31.31,7.26,7.26,0,0,1,4,2.24,7.4,7.4,0,0,1,1.24,2,.43.43,0,0,1-.22.59.45.45,0,0,1-.59-.23,13.11,13.11,0,0,0-.8-1.36,5.81,5.81,0,0,0-3.34-2.2,12.37,12.37,0,0,0-6.22-.06A6.2,6.2,0,0,0,6.91,8.58a14.63,14.63,0,0,0-.65,3.93c0,1.53-.06,3.05-.09,4.58a10.86,10.86,0,0,1-.4,3.1,10,10,0,0,1-.44,1h18.5a3.49,3.49,0,0,1-.18-.31,4.87,4.87,0,0,1-.59-2.14c-.07-1.32-.11-2.65-.13-4a32.26,32.26,0,0,0-.27-4.28q-.09-.52-.21-1.05c-.06-.32.05-.55.31-.61s.49.09.56.41a20.84,20.84,0,0,1,.48,4.38c0,1.47.05,2.95.1,4.42a6.52,6.52,0,0,0,.37,2.09,1.48,1.48,0,0,0,1.44,1.08,2.56,2.56,0,0,1,2.15,1.08,2.59,2.59,0,0,1-2,4.13c-2.08,0-4.17,0-6.26,0h-.27a4.88,4.88,0,0,1-.73,2.12,4.8,4.8,0,0,1-3.4,2.18l-.19.05Zm4.33-4.34h-7.7a3.87,3.87,0,0,0,7.7,0ZM12.86,3h3.4a1.74,1.74,0,0,0-3.4,0Z"/><path class="cls-1" d="M25.78,9.82v.43a.46.46,0,0,1-.43.49.44.44,0,0,1-.46-.46,11.17,11.17,0,0,0-.3-2.45,7.19,7.19,0,0,0-2.68-4.16,1.88,1.88,0,0,1-.23-.16.45.45,0,0,1-.11-.59.42.42,0,0,1,.6-.13,11.39,11.39,0,0,1,1.2,1,8.52,8.52,0,0,1,2.28,4.82C25.71,9,25.73,9.39,25.78,9.82Z"/><path class="cls-1" d="M27.72,7.43a2.46,2.46,0,0,1,0,.26.45.45,0,0,1-.4.49.43.43,0,0,1-.49-.42c0-.37-.05-.73-.1-1.1a4.65,4.65,0,0,0-1.46-2.78c-.07-.07-.16-.12-.24-.19a.46.46,0,0,1-.1-.58.42.42,0,0,1,.56-.17,2.64,2.64,0,0,1,.5.38A5.63,5.63,0,0,1,27.67,6.8c0,.11,0,.21,0,.32s0,.21,0,.31Z"/><path class="cls-1" d="M3.35,9.9a9.37,9.37,0,0,1,2-5.73A5.93,5.93,0,0,1,6.92,2.8a.44.44,0,0,1,.5,0,.38.38,0,0,1,.19.43.57.57,0,0,1-.2.32,7.25,7.25,0,0,0-3,5.11,14,14,0,0,0-.13,1.59c0,.31-.18.49-.45.5a.44.44,0,0,1-.44-.49Z"/><path class="cls-1" d="M1.37,7.5A5.86,5.86,0,0,1,3.31,3.14,1.92,1.92,0,0,1,3.52,3a.46.46,0,0,1,.64.11A.44.44,0,0,1,4,3.71,4,4,0,0,0,2.8,5.26a5.44,5.44,0,0,0-.53,2.38c0,.23,0,.42-.28.51a.42.42,0,0,1-.58-.27A3.08,3.08,0,0,1,1.37,7.5Z"/></g></g></g></svg>