<svg xmlns="http://www.w3.org/2000/svg" viewBox="0 0 36.03 35.97"><defs><style>.cls-1{fill:none;stroke:#b4d1cd;stroke-linecap:round;stroke-linejoin:round;stroke-width:1.5px;}</style></defs><g id="Capa_2" data-name="Capa 2"><g id="Capa_1-2" data-name="Capa 1"><g id="xg4VDp"><path class="cls-1" d="M35.28,7.09a2.78,2.78,0,0,1-.85,1.11,1.29,1.29,0,0,1-1.82,0,4.59,4.59,0,0,1-.3-.35c-.32.34-.61.66-.91,1a.49.49,0,0,1-.64.13.5.5,0,0,1-.1-.8l.94-.91L28.84,4.49,25.19,8.16l2.75,2.71,1-1a.45.45,0,0,1,.53-.15.74.74,0,0,1,.34.4.69.69,0,0,1-.17.46c-.27.31-.57.58-.86.87l-.2.21,1.32,1.29a1.3,1.3,0,0,1,.4,1.42,2,2,0,0,1-1.85,1.31,2.58,2.58,0,0,1-.7-.32c-.09,0-.15-.13-.26-.23-.16.17-.3.33-.46.48L13.85,28.78a2.29,2.29,0,0,1-2,.76,5.66,5.66,0,0,1-.88-.29.7.7,0,0,0-.35,0c-.45.14-.9.29-1.34.45a1.32,1.32,0,0,1-1.56-.35l-.18-.16-.19.18L1.77,34.91a3.47,3.47,0,0,1-.36.31H.75v-.66c.11-.12.21-.26.33-.38l5.55-5.55.18-.2c0-.05-.09-.11-.14-.15a1.25,1.25,0,0,1-.3-1.38c.16-.47.33-.95.48-1.43a.45.45,0,0,0,0-.34A2.24,2.24,0,0,1,7,22.46c.72-.79,1.49-1.54,2.25-2.3l9.57-9.56,2-1.95.13-.13a1.43,1.43,0,0,1-.57-1.15v0a1.85,1.85,0,0,1,2.27-1.54,1.53,1.53,0,0,1,.46.34c.44.43.87.87,1.35,1.36l3.69-3.76a2.91,2.91,0,0,1-.3-.31,1.29,1.29,0,0,1,0-1.81l.46-.46a1.24,1.24,0,0,1,1.74-.06c.6.55,1.17,1.15,1.74,1.73a.48.48,0,0,1,0,.69.49.49,0,0,1-.72,0c-.5-.48-1-1-1.48-1.46l-.14-.15a.28.28,0,0,0-.43,0l-.43.42a.28.28,0,0,0,0,.41l.12.13,4.48,4.48c.31.31.38.31.7,0,.51-.5.51-.5,0-1L32.81,5.24c-.26-.26-.29-.55-.09-.76a.52.52,0,0,1,.8,0c.46.45.93.89,1.36,1.37a3.89,3.89,0,0,1,.4.69ZM15.66,25.53l-.9-.9a.45.45,0,0,1-.09-.54.64.64,0,0,1,.4-.29.79.79,0,0,1,.49.2c.28.25.54.54.77.77l1.22-1.22-.79-.77a.85.85,0,0,1-.19-.29.47.47,0,0,1,.21-.55.48.48,0,0,1,.63.07c.29.29.56.6.84.89l1.24-1.27-.87-.84a.5.5,0,0,1,0-.71.49.49,0,0,1,.71,0c.09.08.18.18.27.27l.57.57,1.23-1.19c-.28-.27-.57-.55-.85-.85a.5.5,0,0,1,0-.69.52.52,0,0,1,.69-.06l.23.2.68.7,1.22-1.22c-.27-.26-.57-.54-.85-.83a.5.5,0,1,1,.72-.7c.28.28.56.58.84.88L25.16,16,20,10.86l-.13.12q-6,6-11.95,12a2.22,2.22,0,0,0-.28.33,1.23,1.23,0,0,0,.11,1.48c1.16,1.17,2.32,2.34,3.5,3.49a1.19,1.19,0,0,0,1.54.1,12.66,12.66,0,0,0,.93-.88c-.3-.3-.58-.56-.85-.84a.76.76,0,0,1-.19-.32.49.49,0,0,1,.83-.45c.3.3.58.61.85.89ZM21.34,7.42a2.78,2.78,0,0,0,.26.32c1.64,1.66,3.29,3.3,4.93,4.95l1.81,1.82c.22.22.35.22.57,0s.23-.23.34-.34a.31.31,0,0,0,0-.49L23.16,7.61l-.8-.8c-.19-.19-.31-.19-.5,0s-.26.24-.38.37A1.72,1.72,0,0,0,21.34,7.42Zm-.49,2.67L26,15.2l.77-.8L21.63,9.3ZM7.7,26.14c-.13.37-.27.75-.39,1.13a.34.34,0,0,0,.09.29c.36.39.74.76,1.13,1.12a.34.34,0,0,0,.29.09c.38-.12.76-.26,1.11-.39Z"/></g></g></g></svg>