<svg xmlns="http://www.w3.org/2000/svg" viewBox="0 0 65 74"><defs><style>.cls-1{fill:#fff;}.cls-2{fill:#103e68;}</style></defs><g id="Capa_2" data-name="Capa 2"><g id="Capa_1-2" data-name="Capa 1"><path class="cls-1" d="M32.34,56.16h-.08c-15,0-27.13-12.55-27.13-28V28c0-15.49,12.14-28,27.13-28h.08c15,0,27.13,12.55,27.13,28v.09c0,15.48-12.14,28-27.13,28"/><polygon class="cls-2" points="32.04 47.7 16.69 36.63 16.84 36.41 32.19 47.48 32.04 47.7"/><polygon class="cls-2" points="32.23 47.64 32 47.54 37.13 35.11 37.37 35.21 32.23 47.64"/><polygon class="cls-2" points="37.14 35.22 33.3 27.98 33.53 27.85 37.36 35.09 37.14 35.22"/><polygon class="cls-2" points="31.49 20.64 19.84 13.58 19.97 13.35 31.62 20.41 31.49 20.64"/><polygon class="cls-2" points="31.66 20.6 31.45 20.44 37.43 12.55 37.63 12.72 31.66 20.6"/><polygon class="cls-2" points="37.3 35.28 37.2 35.04 49.74 29.37 49.84 29.61 37.3 35.28"/><polygon class="cls-2" points="39.03 22.64 37.4 12.66 37.65 12.61 39.28 22.6 39.03 22.64"/><polygon class="cls-2" points="33.39 28.05 25.7 26.38 25.76 26.12 33.45 27.79 33.39 28.05"/><polygon class="cls-2" points="28.3 34.11 28.11 33.93 33.32 27.83 33.51 28 28.3 34.11"/><path class="cls-2" d="M26.09,29.49A3.22,3.22,0,0,1,23,26.22,3.17,3.17,0,0,1,26.09,23a3.24,3.24,0,0,1,0,6.48"/><path class="cls-2" d="M31.53,23.76a3.22,3.22,0,0,1-3.11-3.27,3.17,3.17,0,0,1,3.11-3.21,3.24,3.24,0,0,1,0,6.48"/><path class="cls-2" d="M33.39,31.15a3.21,3.21,0,0,1-3.11-3.26,3.17,3.17,0,0,1,3.11-3.21,3.24,3.24,0,0,1,0,6.47"/><path class="cls-2" d="M32.11,50.51A3.21,3.21,0,0,1,29,47.24,3.16,3.16,0,0,1,32.11,44a3.24,3.24,0,0,1,0,6.48"/><path class="cls-2" d="M49.77,32.73a3.22,3.22,0,0,1-3.11-3.27,3.17,3.17,0,0,1,3.11-3.21,3.24,3.24,0,0,1,0,6.48"/><path class="cls-2" d="M39.13,25.86A3.22,3.22,0,0,1,36,22.59a3.17,3.17,0,0,1,3.11-3.21,3.24,3.24,0,0,1,0,6.48"/><path class="cls-2" d="M28,37.07a3.22,3.22,0,0,1-3.11-3.27A3.17,3.17,0,0,1,28,30.59a3.24,3.24,0,0,1,0,6.48"/><path class="cls-2" d="M37.22,38.4a3.22,3.22,0,0,1-3.11-3.27,3.17,3.17,0,0,1,3.11-3.21,3.24,3.24,0,0,1,0,6.48"/><path class="cls-2" d="M16.74,39.76a3.22,3.22,0,0,1-3.11-3.27,3.17,3.17,0,0,1,3.11-3.21,3.24,3.24,0,0,1,0,6.48"/><path class="cls-2" d="M37.22,15.87a3.21,3.21,0,0,1-3.11-3.26,3.18,3.18,0,0,1,3.11-3.22,3.24,3.24,0,0,1,0,6.48"/><path class="cls-2" d="M20.25,17a3.21,3.21,0,0,1-3.11-3.26,3.17,3.17,0,0,1,3.11-3.21,3.24,3.24,0,0,1,0,6.47"/><path class="cls-1" d="M8.68,70.08A4.36,4.36,0,0,1,7.37,73a4.3,4.3,0,0,1-3,1,4,4,0,0,1-2.3-.67,4.43,4.43,0,0,1-1.54-1.9A6.94,6.94,0,0,1,0,68.62V67.05a7,7,0,0,1,.54-2.84,4.35,4.35,0,0,1,1.57-1.92,4.18,4.18,0,0,1,2.35-.68,4.07,4.07,0,0,1,3,1,4.36,4.36,0,0,1,1.26,2.89h-1q-.36-3.07-3.23-3.07A3,3,0,0,0,1.93,63.7,5.51,5.51,0,0,0,1,67.09v1.48a5.5,5.5,0,0,0,.92,3.33,2.94,2.94,0,0,0,2.48,1.24,3.21,3.21,0,0,0,2.33-.77,3.71,3.71,0,0,0,1-2.29Z"/><path class="cls-1" d="M9.67,69.22a5.3,5.3,0,0,1,.49-2.32,3.72,3.72,0,0,1,1.36-1.61,3.56,3.56,0,0,1,2-.58A3.53,3.53,0,0,1,16.34,66a4.94,4.94,0,0,1,1.07,3.32v.21a5.34,5.34,0,0,1-.49,2.33,3.66,3.66,0,0,1-1.36,1.61,3.71,3.71,0,0,1-2,.56,3.53,3.53,0,0,1-2.8-1.25,4.94,4.94,0,0,1-1.08-3.33Zm1,.28a4.11,4.11,0,0,0,.81,2.63,2.67,2.67,0,0,0,4.21,0,4.26,4.26,0,0,0,.81-2.72v-.19a4.81,4.81,0,0,0-.37-1.88,3.13,3.13,0,0,0-1-1.32,2.58,2.58,0,0,0-1.52-.46,2.54,2.54,0,0,0-2.09,1,4.31,4.31,0,0,0-.81,2.72Z"/><polygon class="cls-1" points="21.31 72.47 23.95 64.88 24.93 64.88 21.7 73.83 20.92 73.83 17.66 64.88 18.65 64.88 21.31 72.47"/><path class="cls-1" d="M25.79,62.29a.66.66,0,0,1,.18-.47.6.6,0,0,1,.48-.2.63.63,0,0,1,.48.2A.66.66,0,0,1,26.45,63a.62.62,0,0,1-.48-.19.66.66,0,0,1-.18-.47m1.13,11.54H26v-9h1Z"/><path class="cls-1" d="M28.48,69.27a5.51,5.51,0,0,1,.9-3.32,2.86,2.86,0,0,1,2.45-1.24,3,3,0,0,1,2.68,1.43v-5h1V73.83h-.9l0-1.19A3,3,0,0,1,31.81,74a2.87,2.87,0,0,1-2.41-1.25,5.56,5.56,0,0,1-.92-3.36Zm1,.18a4.73,4.73,0,0,0,.67,2.7,2.13,2.13,0,0,0,1.87,1,2.58,2.58,0,0,0,2.52-1.62v-4.2A2.56,2.56,0,0,0,32,65.57a2.17,2.17,0,0,0-1.89,1,5.22,5.22,0,0,0-.67,2.9"/><path class="cls-1" d="M42.8,73.83a4.69,4.69,0,0,1-.19-1.25,3.2,3.2,0,0,1-1.28,1,3.77,3.77,0,0,1-1.66.37,2.85,2.85,0,0,1-2-.72,2.37,2.37,0,0,1-.77-1.82,2.43,2.43,0,0,1,1-2.07,4.92,4.92,0,0,1,2.94-.76h1.74v-1A2,2,0,0,0,42,66.1a2.3,2.3,0,0,0-1.67-.55,2.52,2.52,0,0,0-1.66.53,1.59,1.59,0,0,0-.65,1.27h-1a2.33,2.33,0,0,1,1-1.85,3.63,3.63,0,0,1,2.36-.78,3.31,3.31,0,0,1,2.29.75,2.74,2.74,0,0,1,.86,2.09v4.24a5.63,5.63,0,0,0,.26,1.95v.09Zm-3-.71a3.1,3.1,0,0,0,1.71-.48,2.81,2.81,0,0,0,1.11-1.28v-2H40.89a4.16,4.16,0,0,0-2.24.54,1.71,1.71,0,0,0-.27,2.7,2,2,0,0,0,1.41.49"/><rect class="cls-1" x="45.57" y="61.12" width="0.96" height="12.72"/><path class="cls-1" d="M51.83,74a3.69,3.69,0,0,1-2-.56,3.79,3.79,0,0,1-1.39-1.57,5,5,0,0,1-.5-2.26v-.35a5.48,5.48,0,0,1,.48-2.33,4,4,0,0,1,1.36-1.63,3.26,3.26,0,0,1,1.87-.59,3.08,3.08,0,0,1,2.5,1.11,4.63,4.63,0,0,1,.93,3.05v.55H48.9v.19a3.8,3.8,0,0,0,.85,2.54,2.63,2.63,0,0,0,2.13,1,2.92,2.92,0,0,0,1.35-.29A3,3,0,0,0,54.3,72l.6.47A3.46,3.46,0,0,1,51.83,74m-.17-8.44a2.36,2.36,0,0,0-1.82.81,3.8,3.8,0,0,0-.9,2.21h5.19v-.11a3.3,3.3,0,0,0-.71-2.1,2.17,2.17,0,0,0-1.76-.81"/><path class="cls-1" d="M60.3,65.72a3.24,3.24,0,0,0-.64-.06,2.31,2.31,0,0,0-1.52.52,2.88,2.88,0,0,0-.89,1.5v6.15h-1v-9h.94V66.3a2.55,2.55,0,0,1,2.45-1.59,1.58,1.58,0,0,1,.63.11Z"/><path class="cls-1" d="M63.05,62.58v2.3h1.8v.81h-1.8v6a1.93,1.93,0,0,0,.26,1.11,1,1,0,0,0,.87.37,6.73,6.73,0,0,0,.78-.08l0,.8A3.11,3.11,0,0,1,64,74a1.7,1.7,0,0,1-1.43-.59,2.87,2.87,0,0,1-.45-1.74v-6H60.5v-.81h1.59v-2.3Z"/></g></g></svg>