<svg xmlns="http://www.w3.org/2000/svg" viewBox="0 0 121.25 63.97"><defs><style>.cls-1{fill:#103e68;}.cls-2{opacity:0.6;}.cls-3{fill:#3a848f;}.cls-4{fill:#dfdbd4;}.cls-5{fill:#b4d1cd;}</style></defs><g id="Capa_2" data-name="Capa 2"><g id="Capa_1-2" data-name="Capa 1"><path class="cls-1" d="M47,63.76a1.72,1.72,0,0,1-.84.21c-.62,0-1-.35-1.07-1a4.1,4.1,0,0,1-2.81,1c-1.62,0-2.53-.8-2.53-2.08,0-1.5,1.3-2.21,3.17-2.21A7,7,0,0,1,45,60V58.86c0-1.33-.59-2-2.07-2a4.42,4.42,0,0,0-2.49.77l-.11-.7a4.83,4.83,0,0,1,2.73-.8c1.85,0,2.77.87,2.77,2.64v3.63c0,.71.18.92.63.92a1,1,0,0,0,.39-.09ZM45,62.19V60.7a6,6,0,0,0-2-.36c-1.48,0-2.4.52-2.4,1.5s.78,1.42,1.83,1.42A3.78,3.78,0,0,0,45,62.19Z"/><path class="cls-1" d="M55.86,63.76A1.64,1.64,0,0,1,55,64c-.73,0-1.09-.46-1.09-1.39V59.27c0-1.62-.56-2.38-2-2.38a3.73,3.73,0,0,0-2.69,1.23v5.67h-.85V56.3h.78l.07,1.07a4.12,4.12,0,0,1,2.94-1.25c1.8,0,2.58,1,2.58,2.89v3.38c0,.71.16.92.59.92a1.27,1.27,0,0,0,.41-.09Z"/><path class="cls-1" d="M57.09,54.59a.63.63,0,1,1,.64.64A.64.64,0,0,1,57.09,54.59Zm.21,8V56.3h.86v6.16c0,.66.16.85.58.85a1.23,1.23,0,0,0,.43-.09l0,.54a1.58,1.58,0,0,1-.81.21C57.68,64,57.3,63.51,57.3,62.58Z"/><path class="cls-1" d="M61,63.06h4.7v.73H59.72v-.37L64.39,57H60V56.3h5.68v.36Z"/><path class="cls-1" d="M73.48,63.76a1.68,1.68,0,0,1-.83.21c-.63,0-1-.35-1.07-1a4.12,4.12,0,0,1-2.81,1c-1.62,0-2.53-.8-2.53-2.08,0-1.5,1.3-2.21,3.17-2.21a6.93,6.93,0,0,1,2.15.36V58.86c0-1.33-.59-2-2.06-2a4.45,4.45,0,0,0-2.5.77l-.1-.7a4.83,4.83,0,0,1,2.72-.8c1.85,0,2.78.87,2.78,2.64v3.63c0,.71.18.92.62.92a1,1,0,0,0,.39-.09Zm-1.92-1.57V60.7a6,6,0,0,0-2-.36c-1.47,0-2.4.52-2.4,1.5s.78,1.42,1.83,1.42A3.76,3.76,0,0,0,71.56,62.19Z"/><path class="cls-1" d="M84.08,63.14a4.21,4.21,0,0,1-2.69.83c-2.37,0-3.62-1.58-3.62-3.91a4.21,4.21,0,0,1,.93-2.83,3.1,3.1,0,0,1,2.49-1.11c1.87,0,2.85,1.19,2.85,3.12A5.92,5.92,0,0,1,84,60H78.63c0,2.08,1.1,3.33,2.9,3.33a4,4,0,0,0,2.35-.73Zm-5.42-3.83h4.6v-.2c0-1.4-.73-2.36-2-2.36A2.61,2.61,0,0,0,78.66,59.31Z"/><path class="cls-1" d="M85.06,62.14l.71-.29a2.13,2.13,0,0,0,2.28,1.43c1.26,0,2-.55,2-1.39s-.62-1.12-2-1.57a8.82,8.82,0,0,1-2-.85,1.45,1.45,0,0,1-.59-1.28,1.74,1.74,0,0,1,.79-1.52,3.14,3.14,0,0,1,1.88-.55c1.48,0,2.58.7,2.67,2.05l-.67.18a1.81,1.81,0,0,0-2-1.55c-1.08,0-1.85.51-1.85,1.32a.92.92,0,0,0,.41.78,13,13,0,0,0,1.69.68,6.57,6.57,0,0,1,1.48.6,1.68,1.68,0,0,1,1,1.62C90.91,63.22,89.63,64,88,64S85.34,63.21,85.06,62.14Z"/><polygon class="cls-1" points="27.54 63.79 27.82 56.11 32.25 62.18 32.45 62.18 36.92 56.05 37.17 63.79 38.02 63.79 37.68 53.95 37.31 53.95 32.38 60.91 27.45 53.95 27.06 53.95 26.69 63.79 27.54 63.79"/><path class="cls-1" d="M76.4,63.31c-.42,0-.58-.19-.58-.85V54H75v8.63c0,.93.36,1.39,1.09,1.39a1.54,1.54,0,0,0,.82-.21l0-.54A1.23,1.23,0,0,1,76.4,63.31Z"/><g class="cls-2"><rect class="cls-3" x="40.53" y="22.45" width="18.8" height="0.13" transform="translate(1.52 48.13) rotate(-52.15)"/><polygon class="cls-3" points="55.71 15.16 55.7 15.04 69.44 13.6 69.46 13.73 55.71 15.16"/><polygon class="cls-3" points="69.5 13.7 69.39 13.63 75.87 1.73 75.98 1.79 69.5 13.7"/><polygon class="cls-3" points="73.89 25.14 69.39 13.69 69.51 13.64 74.01 25.09 73.89 25.14"/><rect class="cls-3" x="83.67" y="7.84" width="9.36" height="0.13" transform="translate(14.42 56.92) rotate(-38.66)"/><rect class="cls-3" x="93.15" y="12.65" width="8.82" height="0.13" transform="translate(8.59 54.72) rotate(-32.7)"/><polygon class="cls-3" points="103.28 25.76 103.21 25.66 114.47 17.52 114.54 17.62 103.28 25.76"/><rect class="cls-3" x="98.19" y="17.11" width="0.13" height="11.49" transform="translate(29.65 96.82) rotate(-60.25)"/><rect class="cls-3" x="80.24" y="-0.01" width="0.13" height="12.62" transform="translate(18.2 57.59) rotate(-44.03)"/><rect class="cls-3" x="74.82" y="8.58" width="0.13" height="10.88" transform="translate(55.95 87.82) rotate(-86.22)"/><polygon class="cls-3" points="73.99 25.16 73.91 25.06 80.27 19.96 80.35 20.06 73.99 25.16"/><rect class="cls-3" x="84.07" y="14.11" width="5.88" height="0.13" transform="translate(9.75 56.63) rotate(-38.04)"/><rect class="cls-3" x="89.26" y="12.37" width="0.13" height="5.2"/><rect class="cls-3" x="87.12" y="19.71" width="0.13" height="4.76" transform="translate(28.88 90.58) rotate(-63.81)"/><rect class="cls-3" x="88.78" y="21.51" width="5.04" height="0.13" transform="translate(6.41 61.51) rotate(-38.49)"/></g><path class="cls-1" d="M0,42.64a7.39,7.39,0,0,1,1.89-5.38,6.73,6.73,0,0,1,5-1.95c3.12,0,5.11,1.53,5.4,4.43l-2.77.78c-.22-1.46-1-2.7-2.8-2.7-2.21,0-3.51,1.79-3.51,4.53,0,3.22,1.69,5,4.52,5a6.36,6.36,0,0,0,4-1.4l.75,2.21A8.71,8.71,0,0,1,7.07,50C2.41,50,0,47,0,42.64Z"/><path class="cls-1" d="M27.42,42.51A7.7,7.7,0,0,1,25.5,48a6.83,6.83,0,0,1-5.18,2,6.7,6.7,0,0,1-5.14-2,7.48,7.48,0,0,1-1.89-5.37c0-4.53,2.77-7.3,7.16-7.3S27.42,38.05,27.42,42.51Zm-7-4.76c-2.38,0-3.88,1.83-3.88,4.82s1.5,5,3.85,5,3.84-1.92,3.84-5S22.73,37.75,20.39,37.75Z"/><path class="cls-1" d="M81.06,46.61V26.94h3.19V46.09c0,1.21.36,1.63,1.17,1.63a1.93,1.93,0,0,0,.72-.13l.13,1.86A4.51,4.51,0,0,1,84,50C82.07,50,81.06,49.09,81.06,46.61Z"/><path class="cls-1" d="M99.69,43.06H90.37c.23,3,1.89,4.5,4.63,4.5a7.53,7.53,0,0,0,4.07-1.18l.62,2A8,8,0,0,1,94.48,50c-4.92,0-7.33-2.87-7.33-7.33A7.71,7.71,0,0,1,89,37.33a6.44,6.44,0,0,1,5-2c3.78,0,5.93,2.41,5.93,6A11.81,11.81,0,0,1,99.69,43.06Zm-2.54-2a1.44,1.44,0,0,0,0-.46c-.09-1.95-1.17-3.25-3-3.25s-3.39,1.36-3.68,3.71Z"/><path class="cls-1" d="M111.08,35.47,111,38.7l-.16.06a3.63,3.63,0,0,0-1.86-.39,4.81,4.81,0,0,0-3.58,1.86v9.38h-3.19V35.67h3.06l.1,1.95a5.89,5.89,0,0,1,4.49-2.31A5.26,5.26,0,0,1,111.08,35.47Z"/><path class="cls-1" d="M121,46.61a5.67,5.67,0,0,1-2.67.75c-1.8,0-2.71-1.14-2.71-3.42V38.11h5V35.67h-5V31.53l-3.19.39V44.76c0,3.48,1.6,5.21,4.76,5.21a6.9,6.9,0,0,0,4-1.08Z"/><path class="cls-4" d="M73.89,27.29a2,2,0,0,1-2-2,2,2,0,0,1,2-2,2,2,0,0,1,2,2A2,2,0,0,1,73.89,27.29Z"/><path class="cls-5" d="M75.86,3.94a2,2,0,0,1-2-2,2,2,0,0,1,2-1.95,2,2,0,1,1,0,3.94Z"/><path class="cls-1" d="M84.63,18.16a2,2,0,0,1-2-2,2,2,0,0,1,2-2,2,2,0,0,1,2,2A2,2,0,0,1,84.63,18.16Z"/><path class="cls-4" d="M89.26,19.75a2,2,0,0,1-2-2,2,2,0,0,1,2-2,2,2,0,1,1,0,3.94Z"/><path class="cls-1" d="M84.56,13.34a2,2,0,0,1-2-2,2,2,0,0,1,2-1.95,2,2,0,1,1,0,3.94Z"/><path class="cls-1" d="M79.83,16.52a2,2,0,0,1-2-2,2,2,0,0,1,2-1.95,2,2,0,1,1,0,3.94Z"/><path class="cls-4" d="M80.3,22.12a2,2,0,0,1-2-2,2,2,0,0,1,2-2,2,2,0,0,1,2,2A2,2,0,0,1,80.3,22.12Z"/><path class="cls-5" d="M89.16,25.31a2,2,0,0,1-2-2,2,2,0,0,1,2-2,2,2,0,0,1,2,2A2,2,0,0,1,89.16,25.31Z"/><path class="cls-5" d="M93.2,22.19a2,2,0,0,1-2-2,2,2,0,0,1,2-1.95,2,2,0,1,1,0,3.94Z"/><path class="cls-4" d="M93.79,17.28a2,2,0,0,1-2-2,2,2,0,0,1,2-2,2,2,0,1,1,0,3.94Z"/><path class="cls-5" d="M91.94,7.17a2,2,0,0,1-2-2,2,2,0,0,1,2-1.95,2,2,0,1,1,0,3.94Z"/><path class="cls-5" d="M103.18,27.89a2,2,0,0,1-2-2,2,2,0,0,1,2-2,2,2,0,0,1,2,2A2,2,0,0,1,103.18,27.89Z"/><path class="cls-4" d="M101.21,12.51a2,2,0,0,1-2-2,2,2,0,0,1,2-2,2,2,0,0,1,2,2A2,2,0,0,1,101.21,12.51Z"/><path class="cls-5" d="M55.69,17.14a2,2,0,0,1-1.95-2,2,2,0,0,1,1.95-2,2,2,0,0,1,2,2A2,2,0,0,1,55.69,17.14Z"/><path class="cls-5" d="M37.94,35.64h3.42l-5.89,14H33.22l-5.93-14h3.39l3.74,9.93Z"/><path class="cls-5" d="M44.1,32.12a2,2,0,0,1-2-2,2,2,0,0,1,2-1.95,2,2,0,1,1,0,3.94ZM42.5,46.61V35.67h3.19V46.09c0,1.21.36,1.63,1.17,1.63a2.16,2.16,0,0,0,.72-.13l.13,1.86a4.55,4.55,0,0,1-2.28.52C43.51,50,42.5,49.09,42.5,46.61Z"/><path class="cls-5" d="M64.13,49.45a4.7,4.7,0,0,1-2.25.52,2.49,2.49,0,0,1-2.8-2,6.81,6.81,0,0,1-4.82,2c-3.75,0-5.87-2.64-5.87-7,0-4.92,2.77-7.62,7-7.62a7.43,7.43,0,0,1,3.55.81V26.94h3.16V46.09c0,1.21.36,1.63,1.18,1.63a1.92,1.92,0,0,0,.71-.13ZM55.2,47.13a5.31,5.31,0,0,0,3.71-1.63V38.67a7.2,7.2,0,0,0-3-.66c-2.84,0-4.27,1.7-4.27,4.69C51.62,45.34,52.76,47.13,55.2,47.13Z"/><path class="cls-5" d="M79.33,49.45A4.91,4.91,0,0,1,77,50a2.43,2.43,0,0,1-2.58-1.6A7.86,7.86,0,0,1,69.6,50c-3,0-4.82-1.53-4.82-4,0-2.9,2.44-4.27,6.18-4.27a10.64,10.64,0,0,1,3.16.43v-1.4c0-1.92-1.07-2.87-3.19-2.87a9.08,9.08,0,0,0-4.62,1.43L66,36.84a10.46,10.46,0,0,1,5.5-1.53c3.88,0,5.8,1.73,5.8,5.18V45.8c0,1.43.33,1.92,1.24,1.92a1.6,1.6,0,0,0,.65-.13Zm-8.73-2a5.41,5.41,0,0,0,3.52-1.3V44.3a9.64,9.64,0,0,0-2.67-.39c-2.08,0-3.39.72-3.39,1.92C68.06,46.87,69.14,47.49,70.6,47.49Z"/><path class="cls-3" d="M69.12,15.85a2,2,0,0,1-2-2,2,2,0,0,1,2-1.95,2,2,0,1,1,0,3.94Z"/><path class="cls-3" d="M89.16,15a2,2,0,0,1-2-2,2,2,0,0,1,2-2,2,2,0,0,1,2,2A2,2,0,0,1,89.16,15Z"/><path class="cls-3" d="M85,23.22a2,2,0,0,1-2-2,2,2,0,0,1,2-2,2,2,0,0,1,2,2A2,2,0,0,1,85,23.22Z"/><path class="cls-3" d="M114.44,19.75a2,2,0,0,1-2-2,2,2,0,0,1,2-2,2,2,0,1,1,0,3.94Z"/></g></g></svg>