<svg xmlns="http://www.w3.org/2000/svg" viewBox="0 0 241.06 127.18"><defs><style>.cls-1{fill:#103e68;}.cls-2{opacity:0.6;}.cls-3{fill:#3a848f;}.cls-4{fill:#dfdbd4;}.cls-5{fill:#b4d1cd;}</style></defs><g id="Capa_2" data-name="Capa 2"><g id="Capa_1-2" data-name="Capa 1"><path class="cls-1" d="M93.36,126.76a3.4,3.4,0,0,1-1.67.42c-1.24,0-1.94-.71-2.12-2.09A8.24,8.24,0,0,1,84,127.18c-3.22,0-5-1.59-5-4.14,0-3,2.59-4.39,6.3-4.39a13.72,13.72,0,0,1,4.28.71V117c0-2.65-1.16-4-4.1-4a8.81,8.81,0,0,0-5,1.52l-.22-1.38a9.58,9.58,0,0,1,5.42-1.59c3.68,0,5.52,1.73,5.52,5.23V124c0,1.42.35,1.84,1.24,1.84a2.14,2.14,0,0,0,.77-.18Zm-3.83-3.12v-3a11.8,11.8,0,0,0-4.07-.71c-2.93,0-4.77,1-4.77,3s1.56,2.83,3.64,2.83A7.4,7.4,0,0,0,89.53,123.64Z"/><path class="cls-1" d="M111.05,126.76a3.19,3.19,0,0,1-1.63.42c-1.45,0-2.15-.92-2.15-2.76v-6.58c0-3.22-1.14-4.74-3.93-4.74A7.42,7.42,0,0,0,98,115.54v11.29H96.3v-14.9h1.55l.14,2.12a8.23,8.23,0,0,1,5.84-2.47c3.58,0,5.13,1.91,5.13,5.73V124c0,1.42.32,1.84,1.17,1.84a2.78,2.78,0,0,0,.82-.18Z"/><path class="cls-1" d="M113.5,108.53a1.26,1.26,0,1,1,1.27,1.28A1.28,1.28,0,0,1,113.5,108.53Zm.42,15.89V111.93h1.7v12.24c0,1.31.32,1.7,1.17,1.7a2.7,2.7,0,0,0,.85-.18l.1,1.07a3.19,3.19,0,0,1-1.63.42C114.66,127.18,113.92,126.26,113.92,124.42Z"/><path class="cls-1" d="M121.18,125.38h9.34v1.45H118.73v-.75l9.27-12.7h-8.81v-1.45h11.29v.71Z"/><path class="cls-1" d="M146.09,126.76a3.36,3.36,0,0,1-1.66.42c-1.24,0-2-.71-2.13-2.09a8.24,8.24,0,0,1-5.59,2.09c-3.22,0-5-1.59-5-4.14,0-3,2.58-4.39,6.3-4.39a13.76,13.76,0,0,1,4.28.71V117c0-2.65-1.17-4-4.11-4a8.83,8.83,0,0,0-4.95,1.52l-.21-1.38a9.52,9.52,0,0,1,5.41-1.59c3.68,0,5.52,1.73,5.52,5.23V124c0,1.42.35,1.84,1.24,1.84a2.19,2.19,0,0,0,.78-.18Zm-3.82-3.12v-3a11.88,11.88,0,0,0-4.07-.71c-2.94,0-4.78,1-4.78,3s1.56,2.83,3.65,2.83A7.44,7.44,0,0,0,142.27,123.64Z"/><path class="cls-1" d="M167.15,125.52a8.36,8.36,0,0,1-5.35,1.66c-4.7,0-7.18-3.15-7.18-7.78a8.35,8.35,0,0,1,1.84-5.63,6.18,6.18,0,0,1,5-2.19c3.71,0,5.66,2.37,5.66,6.19a9.89,9.89,0,0,1-.11,1.41H156.32c0,4.14,2.19,6.62,5.77,6.62a7.92,7.92,0,0,0,4.67-1.45Zm-10.76-7.61h9.13v-.39c0-2.8-1.45-4.71-4-4.71C158.66,112.81,156.82,114.83,156.39,117.91Z"/><path class="cls-1" d="M169.1,123.54l1.41-.57c.64,1.87,2.16,2.83,4.53,2.83s4.07-1.1,4.07-2.76-1.24-2.23-4-3.11a18.48,18.48,0,0,1-4-1.7,2.85,2.85,0,0,1-1.16-2.55,3.45,3.45,0,0,1,1.55-3,6.29,6.29,0,0,1,3.75-1.09c2.94,0,5.13,1.37,5.31,4.06l-1.34.36c-.25-2.16-2-3.08-4-3.08-2.16,0-3.68,1-3.68,2.62a1.79,1.79,0,0,0,.81,1.56,25.49,25.49,0,0,0,3.36,1.34,13.33,13.33,0,0,1,2.94,1.2,3.34,3.34,0,0,1,2.09,3.22c0,2.83-2.55,4.32-5.84,4.32S169.66,125.66,169.1,123.54Z"/><polygon class="cls-1" points="54.75 126.83 55.31 111.54 64.12 123.61 64.51 123.61 73.39 111.44 73.9 126.83 75.59 126.83 74.92 107.26 74.17 107.26 64.37 121.1 54.57 107.26 53.79 107.26 53.06 126.83 54.75 126.83"/><path class="cls-1" d="M151.9,125.87c-.85,0-1.17-.39-1.17-1.7V107.26H149v17.16c0,1.84.71,2.76,2.16,2.76a3.07,3.07,0,0,0,1.63-.42l-.08-1.07A2.65,2.65,0,0,1,151.9,125.87Z"/><g class="cls-2"><rect class="cls-3" x="80.58" y="44.64" width="37.37" height="0.25" transform="translate(3.01 95.69) rotate(-52.15)"/><polygon class="cls-3" points="110.75 30.14 110.73 29.89 138.06 27.04 138.08 27.29 110.75 30.14"/><polygon class="cls-3" points="138.18 27.23 137.96 27.11 150.83 3.44 151.05 3.56 138.18 27.23"/><polygon class="cls-3" points="146.9 49.97 137.96 27.21 138.19 27.12 147.14 49.88 146.9 49.97"/><rect class="cls-3" x="166.34" y="15.59" width="18.62" height="0.25" transform="translate(28.66 113.16) rotate(-38.66)"/><rect class="cls-3" x="185.2" y="25.15" width="17.53" height="0.25" transform="translate(17.08 108.78) rotate(-32.7)"/><polygon class="cls-3" points="205.33 51.22 205.18 51.01 227.57 34.83 227.72 35.03 205.33 51.22"/><rect class="cls-3" x="195.21" y="34.02" width="0.25" height="22.85" transform="translate(58.95 192.49) rotate(-60.25)"/><rect class="cls-3" x="159.53" y="-0.03" width="0.25" height="25.08" transform="translate(36.17 114.49) rotate(-44.03)"/><rect class="cls-3" x="148.74" y="17.06" width="0.25" height="21.63" transform="translate(111.23 174.58) rotate(-86.22)"/><polygon class="cls-3" points="147.1 50.02 146.94 49.83 159.58 39.68 159.73 39.87 147.1 50.02"/><rect class="cls-3" x="167.13" y="28.05" width="11.68" height="0.25" transform="translate(19.38 112.58) rotate(-38.04)"/><rect class="cls-3" x="177.45" y="24.58" width="0.25" height="10.34"/><rect class="cls-3" x="173.21" y="39.19" width="0.25" height="9.46" transform="translate(57.42 180.07) rotate(-63.81)"/><rect class="cls-3" x="176.49" y="42.77" width="10.01" height="0.25" transform="translate(12.74 122.28) rotate(-38.49)"/></g><path class="cls-1" d="M0,84.77c0-4.53,1.23-8.09,3.76-10.69a13.35,13.35,0,0,1,10-3.88c6.21,0,10.16,3,10.75,8.81L19,80.56c-.45-2.91-2-5.37-5.57-5.37-4.4,0-7,3.56-7,9,0,6.41,3.37,9.9,9,9.9a12.61,12.61,0,0,0,8-2.78l1.49,4.4c-2,1.88-6.41,3.63-10.88,3.63C4.79,99.34,0,93.51,0,84.77Z"/><path class="cls-1" d="M54.52,84.51c0,4.47-1.3,8.09-3.82,10.81s-6,4-10.3,4-7.7-1.3-10.23-4-3.75-6.22-3.75-10.69c0-9,5.5-14.5,14.24-14.5C49.21,70.2,54.52,75.64,54.52,84.51Zm-14-9.45c-4.73,0-7.7,3.62-7.7,9.58s3,9.84,7.64,9.84,7.64-3.82,7.64-9.84S45.19,75.06,40.53,75.06Z"/><path class="cls-1" d="M161.15,92.67V53.56h6.35V91.63c0,2.4.71,3.24,2.33,3.24a4,4,0,0,0,1.42-.26l.26,3.69a8.8,8.8,0,0,1-4.47,1C163.16,99.34,161.15,97.59,161.15,92.67Z"/><path class="cls-1" d="M198.18,85.61H179.67c.45,5.89,3.75,8.94,9.19,8.94a15.15,15.15,0,0,0,8.1-2.33l1.22,4c-2.52,2.07-6,3.11-10.36,3.11-9.77,0-14.56-5.7-14.56-14.57a15.29,15.29,0,0,1,3.62-10.56,12.85,12.85,0,0,1,9.84-4c7.51,0,11.79,4.79,11.79,12A23.4,23.4,0,0,1,198.18,85.61Zm-5.05-3.88a3.71,3.71,0,0,0-.06-.91c-.2-3.89-2.33-6.48-6-6.48-4,0-6.74,2.72-7.32,7.39Z"/><path class="cls-1" d="M220.84,70.52l-.13,6.41-.32.13a7.2,7.2,0,0,0-3.69-.77c-2.53,0-4.92,1.23-7.12,3.69V98.63h-6.35V70.91h6.09l.19,3.89c2.66-3,5.64-4.6,8.94-4.6A9.84,9.84,0,0,1,220.84,70.52Z"/><path class="cls-1" d="M240.61,92.67a11.23,11.23,0,0,1-5.31,1.49c-3.56,0-5.38-2.27-5.38-6.8V75.77h9.91V70.91h-9.91V62.69l-6.34.77V89c0,6.93,3.17,10.36,9.45,10.36a13.8,13.8,0,0,0,8-2.14Z"/><path class="cls-4" d="M146.89,54.26A4,4,0,0,1,143,50.31a3.9,3.9,0,0,1,3.89-3.88,3.92,3.92,0,1,1,0,7.83Z"/><path class="cls-5" d="M150.81,7.83a4,4,0,0,1-3.89-3.94A3.9,3.9,0,0,1,150.81,0a4,4,0,0,1,3.95,3.89A3.92,3.92,0,0,1,150.81,7.83Z"/><path class="cls-1" d="M168.24,36.11a3.94,3.94,0,0,1-3.88-4,3.89,3.89,0,0,1,3.88-3.88,3.92,3.92,0,1,1,0,7.83Z"/><path class="cls-4" d="M177.45,39.26a4,4,0,0,1-3.89-3.94,3.9,3.9,0,0,1,3.89-3.89,3.92,3.92,0,1,1,0,7.83Z"/><path class="cls-1" d="M168.11,26.52a4,4,0,0,1-3.88-3.95,3.9,3.9,0,0,1,3.88-3.88,3.92,3.92,0,1,1,0,7.83Z"/><path class="cls-1" d="M158.7,32.84a4,4,0,0,1-3.89-4A3.89,3.89,0,0,1,158.7,25a3.92,3.92,0,1,1,0,7.83Z"/><path class="cls-4" d="M159.64,44A4,4,0,0,1,155.76,40a3.9,3.9,0,0,1,3.88-3.89,3.92,3.92,0,1,1,0,7.83Z"/><path class="cls-5" d="M177.25,50.33a4,4,0,0,1-3.89-3.95,3.9,3.9,0,0,1,3.89-3.89,3.92,3.92,0,1,1,0,7.84Z"/><path class="cls-5" d="M185.28,44.11a4,4,0,0,1-3.88-3.94,3.9,3.9,0,0,1,3.88-3.89,3.92,3.92,0,1,1,0,7.83Z"/><path class="cls-4" d="M186.46,34.36a4,4,0,0,1-3.89-3.95,3.9,3.9,0,0,1,3.89-3.89,3.92,3.92,0,1,1,0,7.84Z"/><path class="cls-5" d="M182.79,14.25a4,4,0,0,1-3.89-3.95,3.89,3.89,0,0,1,3.89-3.88,3.92,3.92,0,1,1,0,7.83Z"/><path class="cls-5" d="M205.12,55.45a4,4,0,0,1-3.88-4,3.9,3.9,0,0,1,3.88-3.88,3.92,3.92,0,1,1,0,7.83Z"/><path class="cls-4" d="M201.2,24.88a4,4,0,0,1-3.88-3.95A3.9,3.9,0,0,1,201.2,17a3.92,3.92,0,1,1,0,7.84Z"/><path class="cls-5" d="M110.72,34.08a4,4,0,0,1-3.88-3.95,3.89,3.89,0,0,1,3.88-3.88,3.92,3.92,0,1,1,0,7.83Z"/><path class="cls-5" d="M75.43,70.85h6.8L70.51,98.69H66L54.26,70.85H61L68.44,90.6Z"/><path class="cls-5" d="M87.66,63.85a4,4,0,0,1-3.88-4A3.9,3.9,0,0,1,87.66,56a3.92,3.92,0,1,1,0,7.83ZM84.49,92.67V70.91h6.35V91.63c0,2.4.71,3.24,2.33,3.24a4.52,4.52,0,0,0,1.42-.26l.26,3.69a8.88,8.88,0,0,1-4.53,1C86.5,99.34,84.49,97.59,84.49,92.67Z"/><path class="cls-5" d="M127.49,98.3a9.16,9.16,0,0,1-4.47,1c-3.18,0-5-1.36-5.57-4a13.47,13.47,0,0,1-9.58,4c-7.45,0-11.66-5.25-11.66-14,0-9.78,5.51-15.15,13.86-15.15a14.79,14.79,0,0,1,7.06,1.62V53.56h6.28V91.63c0,2.4.71,3.24,2.33,3.24a4,4,0,0,0,1.42-.26Zm-17.75-4.6a10.66,10.66,0,0,0,7.39-3.23V76.87a14.64,14.64,0,0,0-6-1.3c-5.63,0-8.48,3.37-8.48,9.33C102.62,90.14,104.89,93.7,109.74,93.7Z"/><path class="cls-5" d="M157.72,98.3a9.65,9.65,0,0,1-4.73,1c-2.65,0-4.33-1-5.11-3.17a15.76,15.76,0,0,1-9.52,3.17c-6,0-9.58-3-9.58-8,0-5.76,4.85-8.48,12.3-8.48a21.73,21.73,0,0,1,6.28.84V81c0-3.82-2.14-5.7-6.35-5.7a18,18,0,0,0-9.19,2.85l-.65-4.86a20.88,20.88,0,0,1,11-3c7.7,0,11.52,3.43,11.52,10.29V91.05c0,2.85.65,3.82,2.46,3.82a3.42,3.42,0,0,0,1.3-.26Zm-17.35-3.88a10.77,10.77,0,0,0,7-2.59V88.07a19.07,19.07,0,0,0-5.31-.78c-4.14,0-6.73,1.43-6.73,3.83C135.32,93.19,137.45,94.42,140.37,94.42Z"/><path class="cls-3" d="M137.41,31.51a4,4,0,0,1-3.89-4,3.9,3.9,0,0,1,3.89-3.89,3.92,3.92,0,1,1,0,7.84Z"/><path class="cls-3" d="M177.25,29.78a4,4,0,0,1-3.89-3.94A3.9,3.9,0,0,1,177.25,22a3.92,3.92,0,1,1,0,7.83Z"/><path class="cls-3" d="M169,46.17a4,4,0,0,1-3.88-4A3.89,3.89,0,0,1,169,38.34a3.92,3.92,0,1,1,0,7.83Z"/><path class="cls-3" d="M227.51,39.26a4,4,0,0,1-3.88-3.94,3.9,3.9,0,0,1,3.88-3.89,3.92,3.92,0,1,1,0,7.83Z"/></g></g></svg>