<svg xmlns="http://www.w3.org/2000/svg" xmlns:xlink="http://www.w3.org/1999/xlink" viewBox="0 0 530.87 519.98"><defs><style>.cls-1{fill:none;}.cls-2{clip-path:url(#clip-path);}.cls-3{opacity:0.3;}.cls-4{clip-path:url(#clip-path-2);}.cls-5{opacity:0.7;}.cls-6{fill:#103e68;}</style><clipPath id="clip-path" transform="translate(129.44 207.47)"><rect class="cls-1" width="449.48" height="327.74"/></clipPath><clipPath id="clip-path-2" transform="translate(129.44 207.47)"><rect class="cls-1" x="-8" y="-2.06" width="512.48" height="525.06" transform="translate(496.48 520.94) rotate(180)"/></clipPath></defs><g id="Capa_2" data-name="Capa 2"><g id="Capa_1-2" data-name="Capa 1"><g class="cls-2"><g class="cls-3"><g class="cls-4"><g class="cls-5"><polygon class="cls-6" points="498.95 419.48 472.38 332.86 472.67 332.77 499.25 419.39 498.95 419.48"/><polygon class="cls-6" points="339.05 455.83 338.84 455.6 472.42 332.71 472.63 332.93 339.05 455.83"/><polygon class="cls-6" points="338.98 455.86 338.91 455.56 499.07 419.29 499.13 419.58 338.98 455.86"/><polygon class="cls-6" points="338.79 455.69 355.57 342.39 355.87 342.44 339.1 455.74 338.79 455.69"/><polygon class="cls-6" points="214.41 515.72 214.28 515.44 338.88 455.58 339.01 455.86 214.41 515.72"/><polygon class="cls-6" points="210.71 432.33 210.77 432.02 338.97 455.56 338.92 455.87 210.71 432.33"/><polygon class="cls-6" points="214.19 515.59 210.59 432.18 210.9 432.17 214.5 515.57 214.19 515.59"/><polygon class="cls-6" points="214.23 515.68 109.33 394.42 109.56 394.22 214.46 515.48 214.23 515.68"/><polygon class="cls-6" points="109.39 394.46 109.5 394.18 210.8 432.03 210.69 432.32 109.39 394.46"/><polygon class="cls-6" points="210.59 432.16 217.25 323.53 217.56 323.55 210.9 432.18 210.59 432.16"/><polygon class="cls-6" points="210.61 432.1 282.23 304.59 282.49 304.74 210.88 432.25 210.61 432.1"/><polygon class="cls-6" points="210.83 432.31 210.66 432.05 355.65 342.27 355.8 342.54 210.83 432.31"/><polygon class="cls-6" points="338.8 455.76 282.22 304.72 282.5 304.61 339.09 455.67 338.8 455.76"/><polygon class="cls-6" points="338.83 455.82 217.28 323.64 217.51 323.44 339.06 455.61 338.83 455.82"/><polygon class="cls-6" points="217.44 323.69 217.36 323.39 283.34 303.52 283.43 303.82 217.44 323.69"/><polygon class="cls-6" points="472.38 332.75 526.34 220.17 526.61 220.3 472.66 332.88 472.38 332.75"/><polygon class="cls-6" points="350.43 238.95 350.61 238.71 472.62 332.69 472.43 332.94 350.43 238.95"/><polygon class="cls-6" points="355.73 342.56 355.72 342.26 472.51 332.67 472.52 332.97 355.73 342.56"/><polygon class="cls-6" points="355.57 342.42 350.37 238.84 350.68 238.83 355.87 342.4 355.57 342.42"/><polygon class="cls-6" points="282.29 304.8 282.43 304.53 355.79 342.27 355.66 342.55 282.29 304.8"/><polygon class="cls-6" points="355.6 342.5 268.56 228.4 268.8 228.23 355.85 342.31 355.6 342.5"/><polygon class="cls-6" points="282.21 304.69 268.53 228.35 268.83 228.29 282.51 304.63 282.21 304.69"/><polygon class="cls-6" points="282.46 304.77 282.24 304.55 350.41 238.73 350.62 238.95 282.46 304.77"/><polygon class="cls-6" points="350.62 238.95 350.41 238.72 409.88 187.4 410.08 187.63 350.62 238.95"/><polygon class="cls-6" points="350.54 238.99 350.5 238.68 526.46 220.08 526.49 220.39 350.54 238.99"/><polygon class="cls-6" points="409.94 187.66 410.02 187.37 526.52 220.09 526.43 220.38 409.94 187.66"/><polygon class="cls-6" points="308.73 202.03 308.69 201.72 409.96 187.37 410 187.67 308.73 202.03"/><polygon class="cls-6" points="409.83 187.47 437.56 89.47 437.85 89.56 410.13 187.56 409.83 187.47"/><polygon class="cls-6" points="308.62 201.99 308.81 201.75 350.62 238.72 350.42 238.94 308.62 201.99"/><polygon class="cls-6" points="268.76 228.44 268.6 228.19 308.63 201.74 308.79 202 268.76 228.44"/><polygon class="cls-6" points="213.91 195.8 214.07 195.53 268.76 228.19 268.6 228.45 213.91 195.8"/><polygon class="cls-6" points="268.54 228.24 315.67 146.37 315.94 146.53 268.81 228.39 268.54 228.24"/><polygon class="cls-6" points="308.59 201.77 390.17 98.55 390.41 98.73 308.83 201.96 308.59 201.77"/><rect class="cls-6" x="154.88" y="-33.46" width="55.87" height="0.3" transform="matrix(0.13, -0.99, 0.99, 0.13, 322.07, 359.73)"/><polygon class="cls-6" points="308.56 201.82 377.49 4.34 377.77 4.44 308.86 201.92 308.56 201.82"/><polygon class="cls-6" points="390.32 98.79 390.27 98.48 437.67 89.36 437.73 89.66 390.32 98.79"/><polygon class="cls-6" points="390.14 98.66 377.49 4.42 377.79 4.37 390.44 98.62 390.14 98.66"/><polygon class="cls-6" points="322.11 128.35 321.98 128.07 390.24 98.5 390.36 98.78 322.11 128.35"/><polygon class="cls-6" points="315.66 146.41 321.9 128.17 322.19 128.26 315.95 146.5 315.66 146.41"/><polygon class="cls-6" points="321.91 128.3 295.07 90.21 295.32 90.04 322.17 128.13 321.91 128.3"/><polygon class="cls-6" points="321.91 128.15 377.5 4.33 377.78 4.46 322.18 128.27 321.91 128.15"/><polygon class="cls-6" points="218.67 152.02 218.49 151.78 295.1 90 295.29 90.24 218.67 152.02"/><polygon class="cls-6" points="295.09 90.02 377.52 4.29 377.75 4.5 295.31 90.23 295.09 90.02"/><polygon class="cls-6" points="213.87 195.57 295.07 90.04 295.31 90.22 214.12 195.75 213.87 195.57"/><polygon class="cls-6" points="213.84 195.64 218.42 151.88 218.72 151.92 214.15 195.68 213.84 195.64"/><polygon class="cls-6" points="139.34 208.35 139.16 208.09 218.49 151.78 218.66 152.03 139.34 208.35"/><polygon class="cls-6" points="61.08 316.02 218.47 151.8 218.69 152.01 61.3 316.24 61.08 316.02"/><polygon class="cls-6" points="4.51 338.57 4.29 338.35 139.14 208.12 139.35 208.33 4.51 338.57"/><polygon class="cls-6" points="135.99 287.02 139.09 208.22 139.41 208.23 136.29 287.03 135.99 287.02"/><polygon class="cls-6" points="61.46 371.17 139.11 208.16 139.38 208.29 61.74 371.31 61.46 371.17"/><polygon class="cls-6" points="4.45 338.61 4.34 338.32 61.13 315.98 61.24 316.27 4.45 338.61"/><polygon class="cls-6" points="61.44 371.24 61.03 316.13 61.34 316.13 61.76 371.24 61.44 371.24"/><polygon class="cls-6" points="61.24 316.27 61.14 315.98 136.09 286.88 136.2 287.17 61.24 316.27"/><polygon class="cls-6" points="103.07 333.38 136.02 286.94 136.27 287.12 103.31 333.56 103.07 333.38"/><polygon class="cls-6" points="136.2 287.17 136.09 286.89 193.53 264.35 193.64 264.63 136.2 287.17"/><polygon class="cls-6" points="210.6 432.24 136.01 287.1 136.28 286.96 210.88 432.11 210.6 432.24"/><polygon class="cls-6" points="62.74 372.61 62.86 372.34 109.51 394.18 109.37 394.45 62.74 372.61"/><polygon class="cls-6" points="109.3 394.33 103.04 333.49 103.34 333.45 109.6 394.3 109.3 394.33"/><polygon class="cls-6" points="109.32 394.23 193.46 264.41 193.72 264.57 109.58 394.4 109.32 394.23"/><rect class="cls-6" x="-47.4" y="94.6" width="0.31" height="45.44" transform="translate(-8.2 236.32) rotate(-67.55)"/><polygon class="cls-6" points="3.08 339.9 3.07 339.59 103.18 333.31 103.2 333.62 3.08 339.9"/><polygon class="cls-6" points="103.08 333.58 103.29 333.35 210.85 432.06 210.64 432.29 103.08 333.58"/><polygon class="cls-6" points="193.48 264.6 139.14 208.33 139.36 208.12 193.7 264.38 193.48 264.6"/><polygon class="cls-6" points="190.29 267.49 213.85 195.61 214.14 195.7 190.57 267.59 190.29 267.49"/><polygon class="cls-6" points="217.25 323.59 193.45 264.55 193.73 264.43 217.54 323.49 217.25 323.59"/><path class="cls-6" d="M263.91-105.67a4.4,4.4,0,0,1-6.22-.11,4.39,4.39,0,0,1,.11-6.21,4.4,4.4,0,0,1,6.22.1A4.4,4.4,0,0,1,263.91-105.67Z" transform="translate(129.44 207.47)"/><path class="cls-6" d="M283.59-16.79a4.39,4.39,0,0,1-6.22-.12,4.39,4.39,0,0,1,.11-6.2,4.39,4.39,0,0,1,6.22.1A4.39,4.39,0,0,1,283.59-16.79Z" transform="translate(129.44 207.47)"/><path class="cls-6" d="M195.65-76.1a4.39,4.39,0,0,1-6.21-.1,4.41,4.41,0,0,1,.11-6.22,4.39,4.39,0,0,1,6.21.11A4.39,4.39,0,0,1,195.65-76.1Z" transform="translate(129.44 207.47)"/><path class="cls-6" d="M189.43-57.85a4.41,4.41,0,0,1-6.22-.11,4.39,4.39,0,0,1,.1-6.21,4.39,4.39,0,0,1,6.22.1A4.41,4.41,0,0,1,189.43-57.85Z" transform="translate(129.44 207.47)"/><path class="cls-6" d="M142.29,24a4.4,4.4,0,1,1,.11-6.21A4.38,4.38,0,0,1,142.29,24Z" transform="translate(129.44 207.47)"/><path class="cls-6" d="M224.13,34.52a4.4,4.4,0,1,1,.11-6.21A4.4,4.4,0,0,1,224.13,34.52Z" transform="translate(129.44 207.47)"/><path class="cls-6" d="M156,100.35a4.4,4.4,0,1,1,.11-6.21A4.38,4.38,0,0,1,156,100.35Z" transform="translate(129.44 207.47)"/><path class="cls-6" d="M182.33-2.43a4.4,4.4,0,0,1-6.22-.12,4.39,4.39,0,0,1,.1-6.21,4.39,4.39,0,0,1,6.22.11A4.41,4.41,0,0,1,182.33-2.43Z" transform="translate(129.44 207.47)"/><path class="cls-6" d="M9.75,82.71a4.39,4.39,0,1,1,.11-6.2A4.38,4.38,0,0,1,9.75,82.71Z" transform="translate(129.44 207.47)"/><path class="cls-6" d="M-16.95,190a4.4,4.4,0,0,1-6.21-.1,4.41,4.41,0,0,1,.11-6.22,4.4,4.4,0,0,1,6.22.1A4.39,4.39,0,0,1-16.95,190Z" transform="translate(129.44 207.47)"/><path class="cls-6" d="M84.36,227.87a4.4,4.4,0,1,1,.1-6.22A4.41,4.41,0,0,1,84.36,227.87Z" transform="translate(129.44 207.47)"/><path class="cls-6" d="M91,119.23a4.4,4.4,0,1,1,.1-6.21A4.4,4.4,0,0,1,91,119.23Z" transform="translate(129.44 207.47)"/><path class="cls-6" d="M-64.79,166.92a4.38,4.38,0,0,1-6.21-.1,4.4,4.4,0,0,1,.11-6.22,4.4,4.4,0,0,1,6.21.11A4.38,4.38,0,0,1-64.79,166.92Z" transform="translate(129.44 207.47)"/><path class="cls-6" d="M87.6-8.65a4.39,4.39,0,0,1-6.21-.11A4.39,4.39,0,0,1,81.5-15a4.41,4.41,0,0,1,6.22.11A4.4,4.4,0,0,1,87.6-8.65Z" transform="translate(129.44 207.47)"/><path class="cls-6" d="M212.55,251.4a4.39,4.39,0,1,1,.11-6.21A4.38,4.38,0,0,1,212.55,251.4Z" transform="translate(129.44 207.47)"/><path class="cls-6" d="M88,311.27a4.39,4.39,0,1,1,.11-6.21A4.4,4.4,0,0,1,88,311.27Z" transform="translate(129.44 207.47)"/><path class="cls-6" d="M346.13,128.51a4.39,4.39,0,1,1,.11-6.21A4.39,4.39,0,0,1,346.13,128.51Z" transform="translate(129.44 207.47)"/><path class="cls-6" d="M372.72,215.12a4.4,4.4,0,1,1,.1-6.21A4.39,4.39,0,0,1,372.72,215.12Z" transform="translate(129.44 207.47)"/><path class="cls-6" d="M400.08,15.93a4.4,4.4,0,1,1,.12-6.21A4.39,4.39,0,0,1,400.08,15.93Z" transform="translate(129.44 207.47)"/><path class="cls-6" d="M229.34,138.1a4.4,4.4,0,1,1,.1-6.21A4.39,4.39,0,0,1,229.34,138.1Z" transform="translate(129.44 207.47)"/><path class="cls-6" d="M311.32-114.8a4.4,4.4,0,0,1-6.22-.1,4.4,4.4,0,0,1,.1-6.22,4.41,4.41,0,0,1,6.22.11A4.4,4.4,0,0,1,311.32-114.8Z" transform="translate(129.44 207.47)"/><path class="cls-6" d="M251.25-199.92A4.39,4.39,0,0,1,245-200a4.4,4.4,0,0,1,.11-6.21,4.42,4.42,0,0,1,6.23.11A4.39,4.39,0,0,1,251.25-199.92Z" transform="translate(129.44 207.47)"/><path class="cls-6" d="M168.81-114.19a4.39,4.39,0,0,1-6.22-.1,4.4,4.4,0,0,1,.11-6.22,4.41,4.41,0,0,1,6.22.11A4.39,4.39,0,0,1,168.81-114.19Z" transform="translate(129.44 207.47)"/><path class="cls-6" d="M92.19-52.4A4.4,4.4,0,0,1,86-52.52a4.4,4.4,0,0,1,.12-6.22,4.39,4.39,0,0,1,6.21.12A4.39,4.39,0,0,1,92.19-52.4Z" transform="translate(129.44 207.47)"/><path class="cls-6" d="M12.86,3.91a4.41,4.41,0,0,1-6.22-.1,4.41,4.41,0,0,1,.11-6.22,4.41,4.41,0,0,1,6.22.1A4.41,4.41,0,0,1,12.86,3.91Z" transform="translate(129.44 207.47)"/><path class="cls-6" d="M67.2,60.18A4.39,4.39,0,1,1,67.31,54,4.4,4.4,0,0,1,67.2,60.18Z" transform="translate(129.44 207.47)"/><path class="cls-6" d="M-23.2,129.16a4.39,4.39,0,0,1-6.21-.11,4.39,4.39,0,0,1,.11-6.22,4.4,4.4,0,0,1,6.22.12A4.39,4.39,0,0,1-23.2,129.16Z" transform="translate(129.44 207.47)"/><path class="cls-6" d="M-65.2,111.81a4.39,4.39,0,0,1-6.22-.1,4.4,4.4,0,0,1,.12-6.22,4.37,4.37,0,0,1,6.2.12A4.37,4.37,0,0,1-65.2,111.81Z" transform="translate(129.44 207.47)"/><path class="cls-6" d="M-122,134.15a4.41,4.41,0,0,1-6.22-.1,4.41,4.41,0,0,1,.11-6.22,4.4,4.4,0,0,1,6.22.11A4.4,4.4,0,0,1-122,134.15Z" transform="translate(129.44 207.47)"/></g></g></g></g></g></g></svg>