<?xml version="1.0" encoding="UTF-8"?>
<!DOCTYPE svg PUBLIC "-//W3C//DTD SVG 1.0//EN" "http://www.w3.org/TR/2001/REC-SVG-20010904/DTD/svg10.dtd">
<!-- Creator: CorelDRAW 2020 (64-Bit) -->
<svg xmlns="http://www.w3.org/2000/svg" xml:space="preserve" width="6.91181in" height="7.14331in" version="1.0" style="shape-rendering:geometricPrecision; text-rendering:geometricPrecision; image-rendering:optimizeQuality; fill-rule:evenodd; clip-rule:evenodd"
viewBox="0 0 6861.31 7091.11"
 xmlns:xlink="http://www.w3.org/1999/xlink"
 xmlns:xodm="http://www.corel.com/coreldraw/odm/2003">
 <defs>
  <style type="text/css">
   <![CDATA[
    .fil0 {fill:#103E68;fill-rule:nonzero}
    .fil1 {fill:white;fill-rule:nonzero}
   ]]>
  </style>
 </defs>
 <g id="Layer_x0020_1">
  <metadata id="CorelCorpID_0Corel-Layer"/>
  <g>
   <path class="fil0" d="M3435.71 7091.11l-10.1 0c-1893.99,0 -3425.6,-1584.64 -3425.6,-3535.45l0 -20.2c0,-1955.86 1532.87,-3535.45 3425.6,-3535.45l10.1 -0c1893.99,0 3425.6,1584.64 3425.6,3535.45l0 11.37c0,1954.6 -1532.87,3535.45 -3425.6,3535.45l0 8.84zm0 0l0 0 0 0z"/>
  </g>
  <polygon class="fil1" points="3397.82,6022.9 1460.9,4625.13 1478.58,4597.35 3416.77,5995.12 "/>
  <polygon class="fil1" points="3421.82,6015.32 3392.77,6002.7 4040.52,4433.21 4070.82,4445.83 "/>
  <polygon class="fil1" points="4041.78,4447.1 3558.18,3532.93 3585.96,3516.52 4069.56,4430.68 "/>
  <polygon class="fil1" points="3328.38,2606.14 1857.38,1714.7 1873.79,1685.65 3344.79,2577.09 "/>
  <polygon class="fil1" points="3349.85,2601.09 3323.33,2580.88 4078.4,1584.64 4103.65,1606.11 "/>
  <polygon class="fil1" points="4061.99,4454.67 4049.36,4424.37 5632.74,3708.44 5646.62,3738.74 "/>
  <polygon class="fil1" points="4280.42,2858.67 4074.61,1598.53 4107.44,1592.22 4311.99,2853.62 "/>
  <polygon class="fil1" points="3568.28,3541.77 2597.3,3330.9 2603.61,3298.07 3574.6,3508.94 "/>
  <polygon class="fil1" points="2925.59,4306.94 2901.6,4284.21 3559.44,3513.99 3583.44,3535.46 "/>
  <g>
   <path class="fil1" d="M2646.54 3723.59c-217.79,-8.13 -390.24,-187.06 -390.24,-405.03 0,-2.57 0.05,-5.34 0.1,-7.87 -0.05,-2.45 -0.09,-5.13 -0.09,-7.66 0,-216.92 173.42,-394.18 390.23,-398.9 225.91,-0 409.11,183.19 409.11,409.1 0,225.9 -183.2,409.1 -409.1,409.1l-0 1.26zm0 0l0 0 0 0z"/>
  </g>
  <g>
   <path class="fil1" d="M3333.43 3000.09c-219.01,-7.45 -392.74,-187.19 -392.74,-406.34 0,-2.13 0.05,-4.47 0.05,-6.55 0.02,-1.6 -0.03,-3.45 -0.03,-5.12 0,-218.09 174.69,-396.16 392.74,-400.22 225.88,0.02 409.08,183.22 409.08,409.12 0,225.9 -183.2,409.1 -409.1,409.1l-0 -0zm0 0l0 0 0 0z"/>
  </g>
  <g>
   <path class="fil1" d="M3568.28 3933.19c-218.76,-6.78 -392.74,-186.2 -392.74,-405.12 0,-2.13 0.05,-4.46 0.05,-6.53 0.02,-1.58 -0.03,-3.44 -0.03,-5.1 0,-218.09 174.7,-396.16 392.73,-400.22 216.75,12.08 386.37,191.38 386.37,408.5 0,217.11 -169.61,396.42 -386.38,408.45l-0.01 0.01zm0 0l0 0 0 0z"/>
  </g>
  <g>
   <path class="fil1" d="M3407.93 6377.71c-219.3,-6.08 -394.02,-185.75 -394.02,-405.16 0,-2.57 0.05,-5.19 0.05,-7.72 -0.01,-3.33 -0.11,-6.78 -0.11,-10.15 0,-218.42 175.7,-396.27 394.08,-398.95 225.9,-0.02 409.1,183.18 409.1,409.09 0,225.9 -183.2,409.1 -409.1,409.1l-0 3.79zm0 0l0 0 0 0z"/>
  </g>
  <g>
   <path class="fil1" d="M5636.53 4132.69c-219.01,-7.45 -392.74,-187.19 -392.74,-406.34 0,-2.13 0.05,-4.47 0.05,-6.55 0.02,-1.6 -0.03,-3.46 -0.03,-5.12 0,-218.09 174.7,-396.16 392.74,-400.22 225.88,0.02 409.08,183.22 409.08,409.12 0,225.9 -183.2,409.1 -409.1,409.1l0 -0zm0 0l0 0 0 0z"/>
  </g>
  <g>
   <path class="fil1" d="M4293.05 3265.24c-220.05,-6.09 -395.26,-186.27 -395.26,-406.41 0,-2.13 0.05,-4.37 0.05,-6.45 0.02,-1.62 -0.03,-3.48 -0.03,-5.14 0,-218.09 174.7,-396.16 392.74,-400.22 225.89,0.02 409.09,183.22 409.09,409.12 0,225.9 -183.2,409.1 -409.1,409.1l2.52 -0zm0 0l0 0 0 0z"/>
  </g>
  <g>
   <path class="fil1" d="M2887.71 4680.69c-219.01,-7.46 -392.74,-187.19 -392.74,-406.34 0,-2.13 0.05,-4.47 0.05,-6.55 0.02,-1.6 -0.03,-3.46 -0.03,-5.12 0,-218.09 174.69,-396.16 392.74,-400.22 225.89,0.02 409.09,183.22 409.09,409.13 0,225.9 -183.2,409.09 -409.1,409.09l-0 0zm0 0l0 0 0 0z"/>
  </g>
  <g>
   <path class="fil1" d="M4051.88 4848.62c-219.01,-7.46 -392.74,-187.19 -392.74,-406.34 0,-2.13 0.05,-4.47 0.05,-6.55 0.02,-1.6 -0.03,-3.46 -0.03,-5.12 0,-218.09 174.7,-396.16 392.74,-400.22 225.89,0.02 409.09,183.22 409.09,409.13 0,225.9 -183.2,409.09 -409.1,409.09l0 0zm0 0l0 0 0 0z"/>
  </g>
  <g>
   <path class="fil1" d="M1465.95 5020.34c-219.01,-7.46 -392.74,-187.2 -392.74,-406.34 0,-2.13 0.05,-4.47 0.05,-6.55 0.02,-1.6 -0.03,-3.46 -0.03,-5.12 0,-218.09 174.69,-396.16 392.74,-400.21 225.89,0.02 409.09,183.21 409.09,409.12 0,225.9 -183.2,409.09 -409.1,409.09l-0 0zm0 0l0 0 0 0z"/>
  </g>
  <g>
   <path class="fil1" d="M4051.88 2003.84c-218.76,-6.77 -392.74,-186.2 -392.74,-405.11 0,-2.13 0.05,-4.46 0.05,-6.53 0.02,-1.65 -0.03,-3.41 -0.03,-5.13 0,-218.29 174.51,-396.67 392.7,-401.43 225.92,0 409.12,183.2 409.12,409.1 0,225.9 -183.2,409.1 -409.1,409.1l0 -0.01zm0 0l0 0 0 0z"/>
  </g>
  <g>
   <path class="fil1" d="M1909.15 2146.53c-218.76,-6.78 -392.74,-186.2 -392.74,-405.12 0,-2.13 0.05,-4.46 0.05,-6.53 0.02,-1.58 -0.03,-3.44 -0.03,-5.1 0,-218.09 174.69,-396.16 392.74,-400.22 216.75,12.08 386.37,191.38 386.37,408.49 0,217.11 -169.61,396.42 -386.38,408.45l-0.01 0.01zm0 0l0 0 0 0z"/>
  </g>
 </g>
</svg>
